G04*
G04 #@! TF.GenerationSoftware,Altium Limited,Altium Designer,21.6.1 (37)*
G04*
G04 Layer_Color=3128826*
%FSTAX24Y24*%
%MOIN*%
G70*
G04*
G04 #@! TF.SameCoordinates,7AD6CBE7-45AD-4871-8827-9D585CE600FE*
G04*
G04*
G04 #@! TF.FilePolarity,Positive*
G04*
G01*
G75*
%ADD10C,0.0100*%
%ADD11C,0.0197*%
%ADD12C,0.0079*%
%ADD13C,0.0059*%
%ADD14C,0.0050*%
%ADD15C,0.0071*%
%ADD16R,0.1536X0.0276*%
%ADD17R,0.0276X0.0748*%
%ADD18R,0.0276X0.3750*%
%ADD19R,0.1536X0.0276*%
%ADD20R,0.0276X0.0748*%
%ADD21R,0.0228X0.1339*%
G36*
X0613Y026011D02*
Y026022D01*
X061308Y026043D01*
X061324Y026058D01*
X061345Y026067D01*
X061356D01*
X061367D01*
X061387Y026058D01*
X061403Y026043D01*
X061411Y026022D01*
Y026011D01*
Y026D01*
X061403Y02598D01*
X061387Y025964D01*
X061367Y025955D01*
X061356D01*
X061345D01*
X061324Y025964D01*
X061308Y02598D01*
X0613Y026D01*
Y026011D01*
D01*
D02*
G37*
G36*
X064835Y021849D02*
Y02185D01*
X064836D01*
Y021854D01*
X064838D01*
Y021856D01*
X06484D01*
Y021859D01*
X064842D01*
Y021861D01*
X064844D01*
Y021865D01*
X064845D01*
Y021867D01*
X064847D01*
Y02187D01*
X064849D01*
Y021874D01*
X064851D01*
Y021876D01*
X064853D01*
Y021879D01*
X064854D01*
Y021881D01*
X064856D01*
Y021885D01*
X064858D01*
Y021888D01*
X06486D01*
Y02189D01*
X064862D01*
Y021893D01*
X064863D01*
Y021895D01*
X064865D01*
Y021899D01*
X064867D01*
Y021901D01*
X064869D01*
Y021904D01*
X064871D01*
Y021908D01*
X064872D01*
Y02191D01*
X064874D01*
Y021913D01*
X064876D01*
Y021915D01*
X064878D01*
Y021919D01*
X064879D01*
Y021922D01*
X064881D01*
Y021924D01*
X064883D01*
Y021928D01*
X064885D01*
Y021929D01*
X064887D01*
Y021933D01*
X064888D01*
Y021935D01*
X06489D01*
Y021938D01*
X064892D01*
Y021942D01*
X064894D01*
Y021944D01*
X064896D01*
Y021947D01*
X064897D01*
Y021949D01*
X064899D01*
Y021953D01*
X064901D01*
Y021954D01*
X064903D01*
Y021958D01*
X064905D01*
Y021962D01*
X064906D01*
Y021963D01*
X064908D01*
Y021967D01*
X06491D01*
Y021969D01*
X064912D01*
Y021972D01*
X064914D01*
Y021974D01*
X064915D01*
Y021978D01*
X064917D01*
Y021981D01*
X064919D01*
Y021983D01*
X064921D01*
Y021987D01*
X064922D01*
Y021988D01*
X064924D01*
Y021992D01*
X064926D01*
Y021996D01*
X064928D01*
Y021997D01*
X06493D01*
Y022001D01*
X064931D01*
Y022003D01*
X064933D01*
Y022006D01*
X064935D01*
Y022008D01*
X064937D01*
Y022012D01*
X064939D01*
Y022015D01*
X06494D01*
Y022017D01*
X064942D01*
Y022021D01*
X064944D01*
Y022022D01*
X064946D01*
Y022026D01*
X064948D01*
Y02203D01*
X064949D01*
Y022031D01*
X064951D01*
Y022035D01*
X064953D01*
Y022037D01*
X064955D01*
Y02204D01*
X064957D01*
Y022042D01*
X064958D01*
Y022046D01*
X06496D01*
Y022049D01*
X064962D01*
Y022051D01*
X064964D01*
Y022055D01*
X064965D01*
Y022057D01*
X064967D01*
Y02206D01*
X064969D01*
Y022064D01*
X064971D01*
Y022065D01*
X064973D01*
Y022069D01*
X064974D01*
Y022071D01*
X064976D01*
Y022074D01*
X064978D01*
Y022076D01*
X06498D01*
Y02208D01*
X064982D01*
Y022083D01*
X064983D01*
Y022085D01*
X064985D01*
Y022089D01*
X064987D01*
Y022091D01*
X064989D01*
Y022094D01*
X064991D01*
Y022096D01*
X064992D01*
Y0221D01*
X064994D01*
Y022103D01*
X064996D01*
Y022105D01*
X064998D01*
Y022108D01*
X065D01*
Y02211D01*
X065001D01*
Y022112D01*
X065003D01*
Y022116D01*
X065005D01*
Y022119D01*
X065007D01*
Y022123D01*
X065008D01*
Y022125D01*
X06501D01*
Y022126D01*
X065012D01*
Y02213D01*
X065014D01*
Y022132D01*
X065016D01*
Y022137D01*
X065017D01*
Y022139D01*
X065019D01*
Y022141D01*
X065021D01*
Y022144D01*
X065023D01*
Y022146D01*
X065025D01*
Y02215D01*
X065026D01*
Y022151D01*
X065028D01*
Y022157D01*
X06503D01*
Y022159D01*
X065032D01*
Y02216D01*
X065034D01*
Y022164D01*
X065035D01*
Y022166D01*
X065037D01*
Y022169D01*
X065039D01*
Y022173D01*
X065041D01*
Y022175D01*
X065043D01*
Y022178D01*
X065044D01*
Y02218D01*
X065046D01*
Y022184D01*
X065048D01*
Y022185D01*
X06505D01*
Y022189D01*
X065051D01*
Y022193D01*
X065053D01*
Y022194D01*
X065055D01*
Y022198D01*
X065057D01*
Y0222D01*
X065059D01*
Y022203D01*
X06506D01*
Y022207D01*
X065062D01*
Y022209D01*
X065064D01*
Y022212D01*
X065066D01*
Y022214D01*
X065068D01*
Y022218D01*
X065069D01*
Y02222D01*
X065071D01*
Y022223D01*
X065073D01*
Y022227D01*
X065075D01*
Y022229D01*
X065077D01*
Y022232D01*
X065078D01*
Y022234D01*
X06508D01*
Y022237D01*
X065082D01*
Y022239D01*
X065084D01*
Y022243D01*
X065086D01*
Y022246D01*
X065087D01*
Y022248D01*
X065089D01*
Y022252D01*
X065091D01*
Y022254D01*
X065093D01*
Y022257D01*
X065094D01*
Y022259D01*
X065096D01*
Y022263D01*
X065098D01*
Y022266D01*
X0651D01*
Y022268D01*
X065102D01*
Y022271D01*
X065103D01*
Y022273D01*
X065105D01*
Y022277D01*
X065107D01*
Y02228D01*
X065109D01*
Y022282D01*
X065111D01*
Y022286D01*
X065112D01*
Y022288D01*
X065114D01*
Y022291D01*
X065116D01*
Y022293D01*
X065118D01*
Y022297D01*
X06512D01*
Y0223D01*
X065121D01*
Y022302D01*
X065123D01*
Y022306D01*
X065125D01*
Y022307D01*
X065127D01*
Y022311D01*
X065128D01*
Y022315D01*
X06513D01*
Y022316D01*
X065132D01*
Y02232D01*
X065134D01*
Y022322D01*
X065136D01*
Y022325D01*
X065137D01*
Y022327D01*
X065139D01*
Y022331D01*
X065141D01*
Y022334D01*
X065143D01*
Y022336D01*
X065145D01*
Y02234D01*
X065146D01*
Y022341D01*
X065148D01*
Y022345D01*
X06515D01*
Y022347D01*
X065152D01*
Y02235D01*
X065154D01*
Y022354D01*
X065155D01*
Y022356D01*
X065157D01*
Y022359D01*
X065159D01*
Y022361D01*
X065161D01*
Y022365D01*
X065163D01*
Y022368D01*
X065164D01*
Y02237D01*
X065166D01*
Y022374D01*
X065168D01*
Y022375D01*
X06517D01*
Y022379D01*
X065171D01*
Y022381D01*
X065173D01*
Y022384D01*
X065175D01*
Y022388D01*
X065177D01*
Y02239D01*
X065179D01*
Y022393D01*
X06518D01*
Y022395D01*
X065182D01*
Y022399D01*
X065184D01*
Y0224D01*
X065186D01*
Y022404D01*
X065188D01*
Y022408D01*
X065189D01*
Y022409D01*
X065191D01*
Y022413D01*
X065193D01*
Y022415D01*
X065195D01*
Y022418D01*
X065197D01*
Y022422D01*
X065198D01*
Y022424D01*
X0652D01*
Y022427D01*
X065202D01*
Y022429D01*
X065204D01*
Y022433D01*
X065206D01*
Y022435D01*
X065207D01*
Y022438D01*
X065209D01*
Y022442D01*
X065211D01*
Y022443D01*
X065213D01*
Y022447D01*
X065214D01*
Y022449D01*
X065216D01*
Y022452D01*
X065218D01*
Y022454D01*
X06522D01*
Y022458D01*
X065222D01*
Y022461D01*
X065223D01*
Y022463D01*
X065225D01*
Y022467D01*
X065227D01*
Y022469D01*
X065229D01*
Y02247D01*
X065231D01*
Y022476D01*
X065232D01*
Y022478D01*
X065234D01*
Y022481D01*
X065236D01*
Y022483D01*
X065238D01*
Y022485D01*
X06524D01*
Y022488D01*
X065241D01*
Y02249D01*
X065243D01*
Y022495D01*
X065245D01*
Y022497D01*
X065247D01*
Y022499D01*
X065249D01*
Y022503D01*
X06525D01*
Y022504D01*
X065252D01*
Y022508D01*
X065254D01*
Y022512D01*
X065256D01*
Y022513D01*
X065257D01*
Y022517D01*
X065259D01*
Y022519D01*
X065261D01*
Y022522D01*
X065263D01*
Y022524D01*
X065265D01*
Y022528D01*
X065266D01*
Y022531D01*
X065268D01*
Y022533D01*
X06527D01*
Y022537D01*
X065272D01*
Y022538D01*
X065274D01*
Y022542D01*
X065275D01*
Y022544D01*
X065277D01*
Y022547D01*
X065279D01*
Y022551D01*
X065281D01*
Y022553D01*
X065283D01*
Y022556D01*
X065284D01*
Y022558D01*
X065286D01*
Y022562D01*
X065288D01*
Y022565D01*
X06529D01*
Y022567D01*
X065292D01*
Y022571D01*
X065293D01*
Y022572D01*
X065295D01*
Y022576D01*
X065297D01*
Y022578D01*
X065299D01*
Y022581D01*
X0653D01*
Y022585D01*
X065302D01*
Y022587D01*
X065304D01*
Y02259D01*
X065306D01*
Y022592D01*
X065308D01*
Y022596D01*
X065309D01*
Y022598D01*
X065311D01*
Y022601D01*
X065313D01*
Y022605D01*
X065315D01*
Y022607D01*
X065317D01*
Y02261D01*
X065318D01*
Y022612D01*
X06532D01*
Y022615D01*
X065322D01*
Y022619D01*
X065324D01*
Y022621D01*
X065326D01*
Y022624D01*
X065327D01*
Y022626D01*
X065329D01*
Y02263D01*
X065331D01*
Y022632D01*
X065333D01*
Y022635D01*
X065335D01*
Y022639D01*
X065336D01*
Y022641D01*
X065338D01*
Y022644D01*
X06534D01*
Y022646D01*
X065342D01*
Y02265D01*
X065343D01*
Y022651D01*
X065345D01*
Y022655D01*
X065347D01*
Y022657D01*
X065349D01*
Y022658D01*
X065351D01*
Y022662D01*
X065352D01*
Y022664D01*
X065354D01*
Y022666D01*
X065356D01*
Y022669D01*
X065358D01*
Y022671D01*
X06536D01*
Y022673D01*
X065361D01*
Y022675D01*
X065363D01*
Y022676D01*
X065365D01*
Y022678D01*
X065367D01*
Y02268D01*
X065369D01*
Y022682D01*
X06537D01*
Y022684D01*
X065372D01*
Y022685D01*
X065374D01*
Y022687D01*
X065376D01*
Y022689D01*
X065378D01*
Y022691D01*
X065379D01*
Y022693D01*
X065383D01*
Y022694D01*
X065385D01*
Y022696D01*
X065386D01*
Y022698D01*
X065388D01*
Y0227D01*
X06539D01*
Y022701D01*
X065394D01*
Y022703D01*
X065395D01*
Y022705D01*
X065399D01*
Y022707D01*
X065401D01*
Y022709D01*
X065403D01*
Y02271D01*
X065406D01*
Y022712D01*
X065408D01*
Y022714D01*
X065412D01*
Y022716D01*
X065415D01*
Y022718D01*
X065419D01*
Y022719D01*
X065422D01*
Y022721D01*
X065424D01*
Y022723D01*
X065429D01*
Y022725D01*
X065431D01*
Y022727D01*
X065437D01*
Y022728D01*
X06544D01*
Y02273D01*
X065446D01*
Y022732D01*
X065451D01*
Y022734D01*
X065455D01*
Y022736D01*
X065464D01*
Y022737D01*
X065467D01*
Y022739D01*
X065478D01*
Y022741D01*
X065485D01*
Y022743D01*
X065496D01*
Y022744D01*
X06555D01*
Y022743D01*
X06556D01*
Y022741D01*
X065567D01*
Y022739D01*
X065578D01*
Y022737D01*
X065582D01*
Y022736D01*
X065591D01*
Y022734D01*
X065594D01*
Y022732D01*
X0656D01*
Y02273D01*
X065605D01*
Y022728D01*
X065609D01*
Y022727D01*
X065614D01*
Y022725D01*
X065616D01*
Y022723D01*
X065621D01*
Y022721D01*
X065625D01*
Y022719D01*
X065627D01*
Y022718D01*
X06563D01*
Y022716D01*
X065634D01*
Y022714D01*
X065637D01*
Y022712D01*
X065639D01*
Y02271D01*
X065643D01*
Y022709D01*
X065644D01*
Y022707D01*
X065648D01*
Y022705D01*
X06565D01*
Y022703D01*
X065652D01*
Y022701D01*
X065655D01*
Y0227D01*
X065657D01*
Y022698D01*
X065659D01*
Y022696D01*
X065662D01*
Y022694D01*
X065664D01*
Y022693D01*
X065666D01*
Y022691D01*
X065668D01*
Y022689D01*
X06567D01*
Y022687D01*
X065671D01*
Y022685D01*
X065673D01*
Y022684D01*
X065675D01*
Y022682D01*
X065677D01*
Y02268D01*
X065679D01*
Y022678D01*
X06568D01*
Y022676D01*
X065682D01*
Y022675D01*
X065684D01*
Y022673D01*
X065686D01*
Y022671D01*
X065687D01*
Y022669D01*
X065689D01*
Y022666D01*
X065691D01*
Y022664D01*
X065693D01*
Y022662D01*
X065695D01*
Y02266D01*
X065696D01*
Y022658D01*
X065698D01*
Y022655D01*
X0657D01*
Y022653D01*
X065702D01*
Y02265D01*
X065704D01*
Y022646D01*
X065705D01*
Y022644D01*
X065707D01*
Y022641D01*
X065709D01*
Y022639D01*
X065711D01*
Y022635D01*
X065713D01*
Y022633D01*
X065714D01*
Y022632D01*
X065716D01*
Y022626D01*
X065718D01*
Y022624D01*
X06572D01*
Y022621D01*
X065722D01*
Y022619D01*
X065723D01*
Y022617D01*
X065725D01*
Y022614D01*
X065727D01*
Y02261D01*
X065729D01*
Y022607D01*
X06573D01*
Y022605D01*
X065732D01*
Y022603D01*
X065734D01*
Y022599D01*
X065736D01*
Y022598D01*
X065738D01*
Y022594D01*
X065739D01*
Y02259D01*
X065741D01*
Y022587D01*
X065743D01*
Y022585D01*
X065745D01*
Y022583D01*
X065747D01*
Y02258D01*
X065748D01*
Y022576D01*
X06575D01*
Y022572D01*
X065752D01*
Y022571D01*
X065754D01*
Y022569D01*
X065756D01*
Y022565D01*
X065757D01*
Y022564D01*
X065759D01*
Y02256D01*
X065761D01*
Y022556D01*
X065763D01*
Y022555D01*
X065764D01*
Y022551D01*
X065766D01*
Y022549D01*
X065768D01*
Y022546D01*
X06577D01*
Y022544D01*
X065772D01*
Y02254D01*
X065773D01*
Y022537D01*
X065775D01*
Y022535D01*
X065777D01*
Y022531D01*
X065779D01*
Y022529D01*
X065781D01*
Y022526D01*
X065782D01*
Y022524D01*
X065784D01*
Y022521D01*
X065786D01*
Y022517D01*
X065788D01*
Y022515D01*
X06579D01*
Y022512D01*
X065791D01*
Y02251D01*
X065793D01*
Y022506D01*
X065795D01*
Y022503D01*
X065797D01*
Y022501D01*
X065799D01*
Y022497D01*
X0658D01*
Y022495D01*
X065802D01*
Y022492D01*
X065804D01*
Y02249D01*
X065806D01*
Y022486D01*
X065807D01*
Y022483D01*
X065809D01*
Y022481D01*
X065811D01*
Y022478D01*
X065813D01*
Y022476D01*
X065815D01*
Y022472D01*
X065816D01*
Y022469D01*
X065818D01*
Y022467D01*
X06582D01*
Y022463D01*
X065822D01*
Y022461D01*
X065824D01*
Y022458D01*
X065825D01*
Y022456D01*
X065827D01*
Y022452D01*
X065829D01*
Y022449D01*
X065831D01*
Y022447D01*
X065833D01*
Y022443D01*
X065834D01*
Y022442D01*
X065836D01*
Y022438D01*
X065838D01*
Y022436D01*
X06584D01*
Y022433D01*
X065842D01*
Y022429D01*
X065843D01*
Y022427D01*
X065845D01*
Y022424D01*
X065847D01*
Y022422D01*
X065849D01*
Y022418D01*
X06585D01*
Y022415D01*
X065852D01*
Y022413D01*
X065854D01*
Y022409D01*
X065856D01*
Y022408D01*
X065858D01*
Y022404D01*
X065859D01*
Y022402D01*
X065861D01*
Y022399D01*
X065863D01*
Y022395D01*
X065865D01*
Y022393D01*
X065867D01*
Y02239D01*
X065868D01*
Y022388D01*
X06587D01*
Y022384D01*
X065872D01*
Y022383D01*
X065874D01*
Y022379D01*
X065876D01*
Y022375D01*
X065877D01*
Y022374D01*
X065879D01*
Y02237D01*
X065881D01*
Y022368D01*
X065883D01*
Y022365D01*
X065885D01*
Y022361D01*
X065886D01*
Y022359D01*
X065888D01*
Y022356D01*
X06589D01*
Y022354D01*
X065892D01*
Y02235D01*
X065893D01*
Y022349D01*
X065895D01*
Y022345D01*
X065897D01*
Y022341D01*
X065899D01*
Y02234D01*
X065901D01*
Y022336D01*
X065902D01*
Y022334D01*
X065904D01*
Y022331D01*
X065906D01*
Y022329D01*
X065908D01*
Y022325D01*
X06591D01*
Y022322D01*
X065911D01*
Y02232D01*
X065913D01*
Y022316D01*
X065915D01*
Y022315D01*
X065917D01*
Y022311D01*
X065919D01*
Y022307D01*
X06592D01*
Y022306D01*
X065922D01*
Y022302D01*
X065924D01*
Y0223D01*
X065926D01*
Y022297D01*
X065928D01*
Y022295D01*
X065929D01*
Y022291D01*
X065931D01*
Y022288D01*
X065933D01*
Y022286D01*
X065935D01*
Y022282D01*
X065936D01*
Y02228D01*
X065938D01*
Y022277D01*
X06594D01*
Y022273D01*
X065942D01*
Y022271D01*
X065944D01*
Y022268D01*
X065945D01*
Y022266D01*
X065947D01*
Y022263D01*
X065949D01*
Y022261D01*
X065951D01*
Y022257D01*
X065953D01*
Y022254D01*
X065954D01*
Y022252D01*
X065956D01*
Y022248D01*
X065958D01*
Y022246D01*
X06596D01*
Y022245D01*
X065962D01*
Y022241D01*
X065963D01*
Y022237D01*
X065965D01*
Y022234D01*
X065967D01*
Y022232D01*
X065969D01*
Y02223D01*
X065971D01*
Y022227D01*
X065972D01*
Y022225D01*
X065974D01*
Y022221D01*
X065976D01*
Y022218D01*
X065978D01*
Y022214D01*
X065979D01*
Y022212D01*
X065981D01*
Y022211D01*
X065983D01*
Y022207D01*
X065985D01*
Y022205D01*
X065987D01*
Y0222D01*
X065988D01*
Y022198D01*
X06599D01*
Y022196D01*
X065992D01*
Y022193D01*
X065994D01*
Y022191D01*
X065996D01*
Y022187D01*
X065997D01*
Y022185D01*
X065999D01*
Y022182D01*
X066001D01*
Y022178D01*
X066003D01*
Y022177D01*
X066005D01*
Y022173D01*
X066006D01*
Y022171D01*
X066008D01*
Y022168D01*
X06601D01*
Y022164D01*
X066012D01*
Y022162D01*
X066014D01*
Y022159D01*
X066015D01*
Y022157D01*
X066017D01*
Y022153D01*
X066019D01*
Y022151D01*
X066021D01*
Y022148D01*
X066022D01*
Y022144D01*
X066024D01*
Y022143D01*
X066026D01*
Y022139D01*
X066028D01*
Y022137D01*
X06603D01*
Y022134D01*
X066031D01*
Y02213D01*
X066033D01*
Y022128D01*
X066035D01*
Y022125D01*
X066037D01*
Y022123D01*
X066039D01*
Y022119D01*
X06604D01*
Y022117D01*
X066042D01*
Y022114D01*
X066044D01*
Y02211D01*
X066046D01*
Y022108D01*
X066048D01*
Y022105D01*
X066049D01*
Y022103D01*
X066051D01*
Y0221D01*
X066053D01*
Y022098D01*
X066055D01*
Y022094D01*
X066057D01*
Y022091D01*
X066058D01*
Y022089D01*
X06606D01*
Y022085D01*
X066062D01*
Y022083D01*
X066064D01*
Y02208D01*
X066065D01*
Y022076D01*
X066067D01*
Y022074D01*
X066069D01*
Y022071D01*
X066071D01*
Y022069D01*
X066073D01*
Y022065D01*
X066074D01*
Y022064D01*
X066076D01*
Y02206D01*
X066078D01*
Y022057D01*
X06608D01*
Y022055D01*
X066082D01*
Y022051D01*
X066083D01*
Y022049D01*
X066085D01*
Y022046D01*
X066087D01*
Y022044D01*
X066089D01*
Y02204D01*
X066091D01*
Y022037D01*
X066092D01*
Y022035D01*
X066094D01*
Y022031D01*
X066096D01*
Y02203D01*
X066098D01*
Y022026D01*
X0661D01*
Y022022D01*
X066101D01*
Y022021D01*
X066103D01*
Y022017D01*
X066105D01*
Y022015D01*
X066107D01*
Y022012D01*
X066108D01*
Y02201D01*
X06611D01*
Y022006D01*
X066112D01*
Y022003D01*
X066114D01*
Y022001D01*
X066116D01*
Y021997D01*
X066117D01*
Y021996D01*
X066119D01*
Y021992D01*
X066121D01*
Y021988D01*
X066123D01*
Y021987D01*
X066125D01*
Y021983D01*
X066126D01*
Y021981D01*
X066128D01*
Y021978D01*
X06613D01*
Y021976D01*
X066132D01*
Y021972D01*
X066134D01*
Y021969D01*
X066135D01*
Y021967D01*
X066137D01*
Y021963D01*
X066139D01*
Y021962D01*
X066141D01*
Y021958D01*
X066143D01*
Y021956D01*
X066144D01*
Y021953D01*
X066146D01*
Y021949D01*
X066148D01*
Y021947D01*
X06615D01*
Y021944D01*
X066151D01*
Y021942D01*
X066153D01*
Y021938D01*
X066155D01*
Y021935D01*
X066157D01*
Y021933D01*
X066159D01*
Y021929D01*
X06616D01*
Y021928D01*
X066162D01*
Y021924D01*
X066164D01*
Y021922D01*
X066166D01*
Y021919D01*
X066168D01*
Y021915D01*
X066169D01*
Y021913D01*
X066171D01*
Y02191D01*
X066173D01*
Y021908D01*
X066175D01*
Y021904D01*
X066177D01*
Y021902D01*
X066178D01*
Y021899D01*
X06618D01*
Y021895D01*
X066182D01*
Y021893D01*
X066184D01*
Y02189D01*
X066185D01*
Y021888D01*
X066187D01*
Y021885D01*
X066189D01*
Y021881D01*
X066191D01*
Y021879D01*
X066193D01*
Y021876D01*
X066194D01*
Y021874D01*
X066196D01*
Y02187D01*
X066198D01*
Y021868D01*
X0662D01*
Y021867D01*
X066202D01*
Y021861D01*
X066203D01*
Y021859D01*
X066205D01*
Y021856D01*
X066207D01*
Y021854D01*
X066209D01*
Y021852D01*
X066211D01*
Y021849D01*
X066212D01*
Y021845D01*
X066214D01*
Y021842D01*
X066216D01*
Y02184D01*
X066218D01*
Y021838D01*
X06622D01*
Y021834D01*
X066221D01*
Y021833D01*
X066223D01*
Y021827D01*
X066225D01*
Y021825D01*
X066227D01*
Y021824D01*
X066228D01*
Y02182D01*
X06623D01*
Y021818D01*
X066232D01*
Y021815D01*
X066234D01*
Y021811D01*
X066236D01*
Y021807D01*
X066237D01*
Y021806D01*
X066239D01*
Y021804D01*
X066241D01*
Y0218D01*
X066243D01*
Y021799D01*
X066245D01*
Y021795D01*
X066246D01*
Y021791D01*
X066248D01*
Y02179D01*
X06625D01*
Y021786D01*
X066252D01*
Y021784D01*
X066254D01*
Y021781D01*
X066255D01*
Y021779D01*
X066257D01*
Y021775D01*
X066259D01*
Y021772D01*
X066261D01*
Y02177D01*
X066263D01*
Y021766D01*
X066264D01*
Y021765D01*
X066266D01*
Y021761D01*
X066268D01*
Y021759D01*
X06627D01*
Y021756D01*
X066272D01*
Y021752D01*
X066273D01*
Y02175D01*
X066275D01*
Y021747D01*
X066277D01*
Y021745D01*
X066279D01*
Y021741D01*
X06628D01*
Y021738D01*
X066282D01*
Y021736D01*
X066284D01*
Y021732D01*
X066286D01*
Y02173D01*
X066288D01*
Y021727D01*
X066289D01*
Y021725D01*
X066291D01*
Y021721D01*
X066293D01*
Y021718D01*
X066295D01*
Y021716D01*
X066297D01*
Y021713D01*
X066298D01*
Y021711D01*
X0663D01*
Y021707D01*
X066302D01*
Y021705D01*
X066304D01*
Y021702D01*
X066306D01*
Y021698D01*
X066307D01*
Y021696D01*
X066309D01*
Y021693D01*
X066311D01*
Y021691D01*
X066313D01*
Y021687D01*
X066314D01*
Y021684D01*
X066316D01*
Y021682D01*
X066318D01*
Y021679D01*
X06632D01*
Y021677D01*
X066322D01*
Y021673D01*
X066323D01*
Y021671D01*
X066325D01*
Y021668D01*
X066327D01*
Y021664D01*
X066329D01*
Y021662D01*
X066331D01*
Y021659D01*
X066332D01*
Y021657D01*
X066334D01*
Y021653D01*
X066336D01*
Y02165D01*
X066338D01*
Y021648D01*
X06634D01*
Y021644D01*
X066341D01*
Y021643D01*
X066343D01*
Y021639D01*
X066345D01*
Y021637D01*
X066347D01*
Y021634D01*
X066349D01*
Y02163D01*
X06635D01*
Y021628D01*
X066352D01*
Y021625D01*
X066354D01*
Y021623D01*
X066356D01*
Y021619D01*
X066357D01*
Y021618D01*
X066359D01*
Y021614D01*
X066361D01*
Y02161D01*
X066363D01*
Y021609D01*
X066365D01*
Y021605D01*
X066366D01*
Y021603D01*
X066368D01*
Y0216D01*
X06637D01*
Y021596D01*
X066372D01*
Y021594D01*
X066374D01*
Y021591D01*
X066375D01*
Y021589D01*
X066377D01*
Y021585D01*
X066379D01*
Y021584D01*
X066381D01*
Y02158D01*
X066383D01*
Y021576D01*
X066384D01*
Y021575D01*
X066386D01*
Y021571D01*
X066388D01*
Y021569D01*
X06639D01*
Y021566D01*
X066392D01*
Y021564D01*
X066393D01*
Y02156D01*
X066395D01*
Y021557D01*
X066397D01*
Y021555D01*
X066399D01*
Y021551D01*
X0664D01*
Y02155D01*
X066402D01*
Y021546D01*
X066404D01*
Y021542D01*
X066406D01*
Y021541D01*
X066408D01*
Y021537D01*
X066409D01*
Y021535D01*
X066411D01*
Y021532D01*
X066413D01*
Y02153D01*
X066415D01*
Y021526D01*
X066417D01*
Y021523D01*
X066418D01*
Y021521D01*
X06642D01*
Y021517D01*
X066422D01*
Y021515D01*
X066424D01*
Y021512D01*
X066426D01*
Y02151D01*
X066427D01*
Y021507D01*
X066429D01*
Y021503D01*
X066431D01*
Y021501D01*
X066433D01*
Y021498D01*
X066435D01*
Y021496D01*
X066436D01*
Y021492D01*
X066438D01*
Y021489D01*
X06644D01*
Y021487D01*
X066442D01*
Y021483D01*
X066443D01*
Y021481D01*
X066445D01*
Y02148D01*
X066447D01*
Y021476D01*
X066449D01*
Y021472D01*
X066451D01*
Y021469D01*
X066452D01*
Y021467D01*
X066454D01*
Y021464D01*
X066456D01*
Y021462D01*
X066458D01*
Y02146D01*
X06646D01*
Y021456D01*
X066461D01*
Y021453D01*
X066463D01*
Y021449D01*
X066465D01*
Y021447D01*
X066467D01*
Y021446D01*
X066469D01*
Y021442D01*
X06647D01*
Y02144D01*
X066472D01*
Y021437D01*
X066474D01*
Y021433D01*
X066476D01*
Y021431D01*
X066478D01*
Y021428D01*
X066479D01*
Y021426D01*
X066481D01*
Y021422D01*
X066483D01*
Y021421D01*
X066485D01*
Y021417D01*
X066486D01*
Y021413D01*
X066488D01*
Y021412D01*
X06649D01*
Y021408D01*
X066492D01*
Y021406D01*
X066494D01*
Y021403D01*
X066495D01*
Y021399D01*
X066497D01*
Y021397D01*
X066499D01*
Y021394D01*
X066501D01*
Y021392D01*
X066503D01*
Y021388D01*
X066504D01*
Y021386D01*
X066506D01*
Y021383D01*
X066508D01*
Y021379D01*
X06651D01*
Y021378D01*
X066512D01*
Y021374D01*
X066513D01*
Y021372D01*
X066515D01*
Y021369D01*
X066517D01*
Y021365D01*
X066519D01*
Y021363D01*
X066521D01*
Y02136D01*
X066522D01*
Y021358D01*
X066524D01*
Y021354D01*
X066526D01*
Y021352D01*
X066528D01*
Y021347D01*
X066529D01*
Y021345D01*
X066531D01*
Y021342D01*
X066533D01*
Y021338D01*
X066535D01*
Y021335D01*
X066537D01*
Y021329D01*
X066538D01*
Y021327D01*
X06654D01*
Y021322D01*
X066542D01*
Y021317D01*
X066544D01*
Y021313D01*
X066546D01*
Y021306D01*
X066547D01*
Y021302D01*
X066549D01*
Y021293D01*
X066551D01*
Y021286D01*
X066553D01*
Y021279D01*
X066555D01*
Y021259D01*
X066556D01*
Y021225D01*
X066555D01*
Y021207D01*
X066553D01*
Y021198D01*
X066551D01*
Y021193D01*
X066549D01*
Y021184D01*
X066547D01*
Y021179D01*
X066546D01*
Y021172D01*
X066544D01*
Y021168D01*
X066542D01*
Y021163D01*
X06654D01*
Y021159D01*
X066538D01*
Y021155D01*
X066537D01*
Y02115D01*
X066535D01*
Y021146D01*
X066533D01*
Y021143D01*
X066531D01*
Y021139D01*
X066529D01*
Y021137D01*
X066528D01*
Y021132D01*
X066526D01*
Y02113D01*
X066524D01*
Y021127D01*
X066522D01*
Y021125D01*
X066521D01*
Y021121D01*
X066519D01*
Y02112D01*
X066517D01*
Y021116D01*
X066515D01*
Y021114D01*
X066513D01*
Y021112D01*
X066512D01*
Y021109D01*
X06651D01*
Y021107D01*
X066508D01*
Y021105D01*
X066506D01*
Y021102D01*
X066504D01*
Y0211D01*
X066503D01*
Y021098D01*
X066501D01*
Y021096D01*
X066499D01*
Y021094D01*
X066497D01*
Y021093D01*
X066495D01*
Y021091D01*
X066494D01*
Y021089D01*
X066492D01*
Y021087D01*
X06649D01*
Y021086D01*
X066488D01*
Y021084D01*
X066486D01*
Y021082D01*
X066485D01*
Y02108D01*
X066483D01*
Y021078D01*
X066481D01*
Y021077D01*
X066479D01*
Y021075D01*
X066478D01*
Y021073D01*
X066474D01*
Y021071D01*
X066472D01*
Y021069D01*
X06647D01*
Y021068D01*
X066467D01*
Y021066D01*
X066465D01*
Y021064D01*
X066463D01*
Y021062D01*
X06646D01*
Y02106D01*
X066458D01*
Y021059D01*
X066454D01*
Y021057D01*
X066452D01*
Y021055D01*
X066449D01*
Y021053D01*
X066447D01*
Y021051D01*
X066442D01*
Y02105D01*
X06644D01*
Y021048D01*
X066436D01*
Y021046D01*
X066431D01*
Y021044D01*
X066429D01*
Y021043D01*
X066424D01*
Y021041D01*
X06642D01*
Y021039D01*
X066415D01*
Y021037D01*
X066409D01*
Y021035D01*
X066406D01*
Y021034D01*
X066397D01*
Y021032D01*
X066393D01*
Y02103D01*
X066383D01*
Y021028D01*
X066375D01*
Y021026D01*
X066363D01*
Y021025D01*
X064682D01*
Y021026D01*
X06467D01*
Y021028D01*
X064661D01*
Y02103D01*
X064652D01*
Y021032D01*
X064647D01*
Y021034D01*
X064639D01*
Y021035D01*
X064636D01*
Y021037D01*
X06463D01*
Y021039D01*
X064625D01*
Y021041D01*
X064622D01*
Y021043D01*
X064616D01*
Y021044D01*
X064614D01*
Y021046D01*
X064609D01*
Y021048D01*
X064605D01*
Y02105D01*
X064604D01*
Y021051D01*
X0646D01*
Y021053D01*
X064596D01*
Y021055D01*
X064593D01*
Y021057D01*
X064591D01*
Y021059D01*
X064587D01*
Y02106D01*
X064586D01*
Y021062D01*
X064584D01*
Y021064D01*
X064578D01*
Y021066D01*
X064577D01*
Y021068D01*
X064575D01*
Y021069D01*
X064573D01*
Y021071D01*
X064571D01*
Y021073D01*
X064568D01*
Y021075D01*
X064566D01*
Y021077D01*
X064564D01*
Y021078D01*
X064562D01*
Y02108D01*
X064561D01*
Y021082D01*
X064559D01*
Y021084D01*
X064557D01*
Y021086D01*
X064555D01*
Y021087D01*
X064553D01*
Y021089D01*
X064552D01*
Y021091D01*
X06455D01*
Y021093D01*
X064548D01*
Y021094D01*
X064546D01*
Y021096D01*
X064544D01*
Y021098D01*
X064543D01*
Y0211D01*
X064541D01*
Y021102D01*
X064539D01*
Y021105D01*
X064537D01*
Y021107D01*
X064535D01*
Y021109D01*
X064534D01*
Y021111D01*
X064532D01*
Y021114D01*
X06453D01*
Y021116D01*
X064528D01*
Y02112D01*
X064527D01*
Y021121D01*
X064525D01*
Y021125D01*
X064523D01*
Y021127D01*
X064521D01*
Y02113D01*
X064519D01*
Y021132D01*
X064518D01*
Y021137D01*
X064516D01*
Y021139D01*
X064514D01*
Y021143D01*
X064512D01*
Y021146D01*
X06451D01*
Y02115D01*
X064509D01*
Y021155D01*
X064507D01*
Y021157D01*
X064505D01*
Y021163D01*
X064503D01*
Y021168D01*
X064501D01*
Y021172D01*
X0645D01*
Y021179D01*
X064498D01*
Y021182D01*
X064496D01*
Y021193D01*
X064494D01*
Y021198D01*
X064493D01*
Y021207D01*
X064491D01*
Y021223D01*
X064489D01*
Y021261D01*
X064491D01*
Y021279D01*
X064493D01*
Y021288D01*
X064494D01*
Y021293D01*
X064496D01*
Y021302D01*
X064498D01*
Y021306D01*
X0645D01*
Y021313D01*
X064501D01*
Y021317D01*
X064503D01*
Y021322D01*
X064505D01*
Y021327D01*
X064507D01*
Y021329D01*
X064509D01*
Y021335D01*
X06451D01*
Y021338D01*
X064512D01*
Y021342D01*
X064514D01*
Y021345D01*
X064516D01*
Y021347D01*
X064518D01*
Y021352D01*
X064519D01*
Y021354D01*
X064521D01*
Y021358D01*
X064523D01*
Y02136D01*
X064525D01*
Y021363D01*
X064527D01*
Y021365D01*
X064528D01*
Y021369D01*
X06453D01*
Y021372D01*
X064532D01*
Y021374D01*
X064534D01*
Y021378D01*
X064535D01*
Y021379D01*
X064537D01*
Y021383D01*
X064539D01*
Y021385D01*
X064541D01*
Y021388D01*
X064543D01*
Y021392D01*
X064544D01*
Y021394D01*
X064546D01*
Y021397D01*
X064548D01*
Y021399D01*
X06455D01*
Y021403D01*
X064552D01*
Y021406D01*
X064553D01*
Y021408D01*
X064555D01*
Y021412D01*
X064557D01*
Y021413D01*
X064559D01*
Y021417D01*
X064561D01*
Y021419D01*
X064562D01*
Y021422D01*
X064564D01*
Y021426D01*
X064566D01*
Y021428D01*
X064568D01*
Y021431D01*
X06457D01*
Y021433D01*
X064571D01*
Y021435D01*
X064573D01*
Y02144D01*
X064575D01*
Y021442D01*
X064577D01*
Y021446D01*
X064578D01*
Y021447D01*
X06458D01*
Y021449D01*
X064582D01*
Y021453D01*
X064584D01*
Y021455D01*
X064586D01*
Y021458D01*
X064587D01*
Y021462D01*
X064589D01*
Y021464D01*
X064591D01*
Y021467D01*
X064593D01*
Y021469D01*
X064595D01*
Y021472D01*
X064596D01*
Y021476D01*
X064598D01*
Y021478D01*
X0646D01*
Y021481D01*
X064602D01*
Y021483D01*
X064604D01*
Y021487D01*
X064605D01*
Y021489D01*
X064607D01*
Y021492D01*
X064609D01*
Y021496D01*
X064611D01*
Y021498D01*
X064613D01*
Y021501D01*
X064614D01*
Y021503D01*
X064616D01*
Y021507D01*
X064618D01*
Y021508D01*
X06462D01*
Y021512D01*
X064622D01*
Y021515D01*
X064623D01*
Y021517D01*
X064625D01*
Y021521D01*
X064627D01*
Y021523D01*
X064629D01*
Y021526D01*
X06463D01*
Y021528D01*
X064632D01*
Y021532D01*
X064634D01*
Y021535D01*
X064636D01*
Y021537D01*
X064638D01*
Y021541D01*
X064639D01*
Y021542D01*
X064641D01*
Y021546D01*
X064643D01*
Y02155D01*
X064645D01*
Y021551D01*
X064647D01*
Y021555D01*
X064648D01*
Y021557D01*
X06465D01*
Y02156D01*
X064652D01*
Y021562D01*
X064654D01*
Y021566D01*
X064656D01*
Y021569D01*
X064657D01*
Y021571D01*
X064659D01*
Y021575D01*
X064661D01*
Y021576D01*
X064663D01*
Y02158D01*
X064664D01*
Y021584D01*
X064666D01*
Y021585D01*
X064668D01*
Y021589D01*
X06467D01*
Y021591D01*
X064672D01*
Y021594D01*
X064673D01*
Y021596D01*
X064675D01*
Y0216D01*
X064677D01*
Y021603D01*
X064679D01*
Y021605D01*
X064681D01*
Y021609D01*
X064682D01*
Y02161D01*
X064684D01*
Y021614D01*
X064686D01*
Y021618D01*
X064688D01*
Y021619D01*
X06469D01*
Y021623D01*
X064691D01*
Y021625D01*
X064693D01*
Y021628D01*
X064695D01*
Y02163D01*
X064697D01*
Y021634D01*
X064699D01*
Y021637D01*
X0647D01*
Y021639D01*
X064702D01*
Y021643D01*
X064704D01*
Y021644D01*
X064706D01*
Y021648D01*
X064707D01*
Y02165D01*
X064709D01*
Y021653D01*
X064711D01*
Y021657D01*
X064713D01*
Y021659D01*
X064715D01*
Y021662D01*
X064716D01*
Y021664D01*
X064718D01*
Y021668D01*
X06472D01*
Y02167D01*
X064722D01*
Y021673D01*
X064724D01*
Y021677D01*
X064725D01*
Y021679D01*
X064727D01*
Y021682D01*
X064729D01*
Y021684D01*
X064731D01*
Y021687D01*
X064733D01*
Y021691D01*
X064734D01*
Y021693D01*
X064736D01*
Y021696D01*
X064738D01*
Y021698D01*
X06474D01*
Y021702D01*
X064742D01*
Y021704D01*
X064743D01*
Y021707D01*
X064745D01*
Y021711D01*
X064747D01*
Y021713D01*
X064749D01*
Y021716D01*
X06475D01*
Y021718D01*
X064752D01*
Y021721D01*
X064754D01*
Y021725D01*
X064756D01*
Y021727D01*
X064758D01*
Y02173D01*
X064759D01*
Y021732D01*
X064761D01*
Y021736D01*
X064763D01*
Y021738D01*
X064765D01*
Y021739D01*
X064767D01*
Y021745D01*
X064768D01*
Y021747D01*
X06477D01*
Y02175D01*
X064772D01*
Y021752D01*
X064774D01*
Y021756D01*
X064776D01*
Y021757D01*
X064777D01*
Y021761D01*
X064779D01*
Y021765D01*
X064781D01*
Y021766D01*
X064783D01*
Y02177D01*
X064785D01*
Y021772D01*
X064786D01*
Y021773D01*
X064788D01*
Y021779D01*
X06479D01*
Y021781D01*
X064792D01*
Y021784D01*
X064793D01*
Y021786D01*
X064795D01*
Y021788D01*
X064797D01*
Y021791D01*
X064799D01*
Y021793D01*
X064801D01*
Y021799D01*
X064802D01*
Y0218D01*
X064804D01*
Y021802D01*
X064806D01*
Y021806D01*
X064808D01*
Y021807D01*
X06481D01*
Y021811D01*
X064811D01*
Y021815D01*
X064813D01*
Y021816D01*
X064815D01*
Y02182D01*
X064817D01*
Y021822D01*
X064819D01*
Y021825D01*
X06482D01*
Y021827D01*
X064822D01*
Y021831D01*
X064824D01*
Y021834D01*
X064826D01*
Y021836D01*
X064828D01*
Y02184D01*
X064829D01*
Y021842D01*
X064831D01*
Y021845D01*
X064833D01*
Y021847D01*
X064835D01*
Y021849D01*
D02*
G37*
G36*
X06772Y028393D02*
X067207D01*
Y029507D01*
X06772D01*
Y028393D01*
D02*
G37*
G36*
X044664Y0226D02*
X042536D01*
Y023452D01*
X044664D01*
Y0226D01*
D02*
G37*
G36*
X0667Y028385D02*
X066188D01*
Y029515D01*
X0667D01*
Y028385D01*
D02*
G37*
G36*
X065362Y025119D02*
Y0245D01*
X063938D01*
Y025119D01*
X065362D01*
D02*
G37*
G36*
X055332Y02955D02*
X044868D01*
Y03065D01*
X055332D01*
Y02955D01*
D02*
G37*
G36*
X06535Y0235D02*
X06395D01*
Y024112D01*
X06535D01*
Y0235D01*
D02*
G37*
G36*
X0569Y028964D02*
X056D01*
Y030736D01*
X0569D01*
Y028964D01*
D02*
G37*
G36*
X0687Y0284D02*
X068193D01*
Y0295D01*
X0687D01*
Y0284D01*
D02*
G37*
G36*
X044664Y02835D02*
X042536D01*
Y029202D01*
X044664D01*
Y02835D01*
D02*
G37*
G36*
X065363Y0255D02*
X063937D01*
Y026118D01*
X065363D01*
Y0255D01*
D02*
G37*
G36*
X05654Y028764D02*
X056545Y028763D01*
X056551Y02876D01*
X056557Y028757D01*
X056565Y028755D01*
X056574Y028751D01*
X056583Y028747D01*
X056603Y028736D01*
X056623Y028723D01*
X056643Y028707D01*
X056652Y028698D01*
X05666Y028689D01*
X056661Y028688D01*
X056661Y028687D01*
X056664Y028684D01*
X056666Y028679D01*
X056669Y028674D01*
X056672Y028668D01*
X056676Y02866D01*
X05668Y028652D01*
X056684Y028643D01*
X056688Y028633D01*
X056691Y028622D01*
X056693Y02861D01*
X056696Y028598D01*
X056699Y028584D01*
X056699Y02857D01*
X0567Y028555D01*
Y02855D01*
X056699Y028545D01*
X056699Y028538D01*
X056698Y02853D01*
X056696Y02852D01*
X056694Y028509D01*
X056691Y028496D01*
X056688Y028484D01*
X056683Y028471D01*
X056677Y028457D01*
X056671Y028443D01*
X056664Y028429D01*
X056654Y028416D01*
X056644Y028402D01*
X056631Y02839D01*
X056631Y028389D01*
X056629Y028387D01*
X056624Y028384D01*
X056619Y02838D01*
X056612Y028375D01*
X056604Y02837D01*
X056594Y028364D01*
X056582Y028358D01*
X05657Y028352D01*
X056556Y028346D01*
X05654Y02834D01*
X056523Y028336D01*
X056505Y028332D01*
X056486Y028329D01*
X056465Y028327D01*
X056443Y028326D01*
X056443D01*
X056442D01*
X056438D01*
X056431Y028327D01*
X056422D01*
X056412Y028328D01*
X0564Y02833D01*
X056387Y028331D01*
X056371Y028334D01*
X056356Y028338D01*
X05634Y028342D01*
X056324Y028347D01*
X056307Y028354D01*
X056291Y028361D01*
X056276Y02837D01*
X056261Y028379D01*
X056247Y028391D01*
X056247Y028391D01*
X056244Y028394D01*
X056241Y028397D01*
X056236Y028402D01*
X056231Y028409D01*
X056225Y028417D01*
X056219Y028426D01*
X056212Y028437D01*
X056206Y028448D01*
X056199Y028461D01*
X056193Y028475D01*
X056188Y02849D01*
X056184Y028507D01*
X05618Y028523D01*
X056178Y028542D01*
X056177Y028561D01*
Y02857D01*
X056178Y028577D01*
X056179Y028585D01*
X05618Y028593D01*
X056182Y028604D01*
X056184Y028615D01*
X056187Y028626D01*
X05619Y028639D01*
X056195Y028651D01*
X056201Y028664D01*
X056206Y028677D01*
X056214Y028688D01*
X056223Y028701D01*
X056232Y028712D01*
Y028712D01*
X056233Y028713D01*
X056236Y028715D01*
X056238Y028717D01*
X056241Y02872D01*
X056246Y028723D01*
X056256Y028731D01*
X056269Y028739D01*
X056285Y028748D01*
X056303Y028756D01*
X056325Y028763D01*
X056349Y028663D01*
X056348D01*
X056347Y028662D01*
X056345D01*
X056342Y02866D01*
X056336Y028658D01*
X056327Y028655D01*
X056317Y02865D01*
X056306Y028643D01*
X056296Y028634D01*
X056287Y028625D01*
X056287Y028623D01*
X056284Y02862D01*
X05628Y028614D01*
X056276Y028606D01*
X056271Y028596D01*
X056268Y028584D01*
X056265Y028571D01*
X056264Y028556D01*
Y028551D01*
X056265Y028547D01*
X056266Y028542D01*
X056266Y028537D01*
X056269Y028524D01*
X056274Y02851D01*
X056282Y028494D01*
X056286Y028486D01*
X056291Y028479D01*
X056298Y028472D01*
X056305Y028465D01*
X056306D01*
X056307Y028464D01*
X056309Y028462D01*
X056313Y02846D01*
X056317Y028457D01*
X056322Y028454D01*
X056329Y028451D01*
X056336Y028448D01*
X056345Y028445D01*
X056354Y028442D01*
X056365Y028439D01*
X056377Y028436D01*
X05639Y028434D01*
X056404Y028432D01*
X056419Y028432D01*
X056436Y028431D01*
X056437D01*
X05644D01*
X056446D01*
X056451Y028432D01*
X056459D01*
X056469Y028433D01*
X056478Y028434D01*
X056489Y028435D01*
X056512Y02844D01*
X056535Y028445D01*
X056545Y028449D01*
X056556Y028454D01*
X056565Y028459D01*
X056573Y028465D01*
X056574Y028466D01*
X056575Y028467D01*
X056577Y028469D01*
X05658Y028472D01*
X056586Y028479D01*
X056593Y028489D01*
X056601Y028502D01*
X056607Y028517D01*
X056612Y028534D01*
X056613Y028544D01*
X056613Y028554D01*
Y028558D01*
X056613Y028561D01*
X056612Y028569D01*
X05661Y028578D01*
X056607Y028588D01*
X056602Y0286D01*
X056596Y028612D01*
X056588Y028623D01*
X056586Y028625D01*
X056583Y028628D01*
X056577Y028634D01*
X056568Y028639D01*
X056556Y028647D01*
X056543Y028653D01*
X056526Y02866D01*
X056506Y028666D01*
X056537Y028765D01*
X056537D01*
X05654Y028764D01*
D02*
G37*
G36*
X05646Y028257D02*
X056466D01*
X056473Y028256D01*
X056481Y028255D01*
X056498Y028254D01*
X056516Y028251D01*
X056534Y028246D01*
X056551Y028241D01*
X056552D01*
X056553Y028241D01*
X056556Y028239D01*
X056561Y028238D01*
X056565Y028236D01*
X05657Y028233D01*
X056583Y028227D01*
X056597Y02822D01*
X056613Y028211D01*
X056627Y0282D01*
X056641Y028187D01*
X056642Y028186D01*
X056645Y028182D01*
X05665Y028176D01*
X056656Y028168D01*
X056662Y028158D01*
X056669Y028147D01*
X056675Y028132D01*
X056681Y028116D01*
Y028115D01*
X056682Y028114D01*
Y028112D01*
X056683Y02811D01*
X056684Y028102D01*
X056686Y028092D01*
X056688Y028079D01*
X05669Y028064D01*
X056691Y028046D01*
X056691Y028026D01*
Y027835D01*
X056187D01*
Y028036D01*
X056188Y028042D01*
X056188Y028056D01*
X056189Y028071D01*
X056191Y028087D01*
X056193Y028103D01*
X056197Y028117D01*
Y028117D01*
X056198Y028119D01*
X056198Y028121D01*
X056199Y028124D01*
X056203Y028133D01*
X056208Y028143D01*
X056214Y028155D01*
X056223Y028168D01*
X056232Y02818D01*
X056244Y028192D01*
Y028193D01*
X056245Y028194D01*
X056249Y028198D01*
X056257Y028203D01*
X056266Y02821D01*
X056278Y028218D01*
X056292Y028226D01*
X056308Y028234D01*
X056325Y028241D01*
X056326D01*
X056327Y028241D01*
X05633Y028242D01*
X056334Y028244D01*
X056338Y028244D01*
X056344Y028246D01*
X056351Y028247D01*
X056358Y028249D01*
X056366Y028251D01*
X056376Y028252D01*
X056385Y028254D01*
X056396Y028254D01*
X056419Y028257D01*
X056444Y028257D01*
X056445D01*
X056447D01*
X05645D01*
X056454D01*
X05646Y028257D01*
D02*
G37*
%LPC*%
G36*
X065618Y021591D02*
X065619D01*
Y021593D01*
X065621D01*
Y021596D01*
X065623D01*
Y021598D01*
X065625D01*
Y0216D01*
X065627D01*
Y021603D01*
X065628D01*
Y021605D01*
X06563D01*
Y021609D01*
X065632D01*
Y02161D01*
X065634D01*
Y021612D01*
X065635D01*
Y021616D01*
X065637D01*
Y021618D01*
X065639D01*
Y021621D01*
X065641D01*
Y021623D01*
X065643D01*
Y021625D01*
X065644D01*
Y021627D01*
X065646D01*
Y02163D01*
X065648D01*
Y021632D01*
X06565D01*
Y021634D01*
X065652D01*
Y021637D01*
X065653D01*
Y021639D01*
X065655D01*
Y021643D01*
X065657D01*
Y021644D01*
X065659D01*
Y021646D01*
X065661D01*
Y02165D01*
X065662D01*
Y021652D01*
X065664D01*
Y021655D01*
X065666D01*
Y021657D01*
X065668D01*
Y021659D01*
X06567D01*
Y021661D01*
X065671D01*
Y021664D01*
X065673D01*
Y021666D01*
X065675D01*
Y021668D01*
X065677D01*
Y021671D01*
X065679D01*
Y021673D01*
X06568D01*
Y021675D01*
X065682D01*
Y021679D01*
X065684D01*
Y02168D01*
X065686D01*
Y021684D01*
X065687D01*
Y021686D01*
X065689D01*
Y021687D01*
X065691D01*
Y021691D01*
X065693D01*
Y021693D01*
X065695D01*
Y021696D01*
X065696D01*
Y021698D01*
X065698D01*
Y0217D01*
X0657D01*
Y021704D01*
X065702D01*
Y021705D01*
X065704D01*
Y021707D01*
X065705D01*
Y021709D01*
X065707D01*
Y021713D01*
X065709D01*
Y021714D01*
X065711D01*
Y021718D01*
X065713D01*
Y02172D01*
X065714D01*
Y021721D01*
X065716D01*
Y021725D01*
X065718D01*
Y021727D01*
X06572D01*
Y021729D01*
X065722D01*
Y021732D01*
X065723D01*
Y021734D01*
X065725D01*
Y021738D01*
X065727D01*
Y021739D01*
X065729D01*
Y021741D01*
X06573D01*
Y021743D01*
X065732D01*
Y021747D01*
X065734D01*
Y021748D01*
X065736D01*
Y021752D01*
X065738D01*
Y021754D01*
X065739D01*
Y021756D01*
X065741D01*
Y021759D01*
X065743D01*
Y021761D01*
X065745D01*
Y021763D01*
X065747D01*
Y021766D01*
X065748D01*
Y021768D01*
X06575D01*
Y021772D01*
X065752D01*
Y021773D01*
X065754D01*
Y021775D01*
X065756D01*
Y021779D01*
X065757D01*
Y021781D01*
X065759D01*
Y021784D01*
X065761D01*
Y021786D01*
X065763D01*
Y021788D01*
X065764D01*
Y02179D01*
X065766D01*
Y021793D01*
X065768D01*
Y021795D01*
X06577D01*
Y021797D01*
X065772D01*
Y0218D01*
X065773D01*
Y021802D01*
X065775D01*
Y021806D01*
X065777D01*
Y021807D01*
X065779D01*
Y021809D01*
X065781D01*
Y021813D01*
X065782D01*
Y021815D01*
X065784D01*
Y021818D01*
X065786D01*
Y02182D01*
X065788D01*
Y021822D01*
X06579D01*
Y021824D01*
X065791D01*
Y021825D01*
X065793D01*
Y021827D01*
X065791D01*
Y021829D01*
X065618D01*
Y021834D01*
X065619D01*
Y021838D01*
X065621D01*
Y021843D01*
X065623D01*
Y021845D01*
X065625D01*
Y02185D01*
X065627D01*
Y021854D01*
X065628D01*
Y021858D01*
X06563D01*
Y021863D01*
X065632D01*
Y021865D01*
X065634D01*
Y02187D01*
X065635D01*
Y021874D01*
X065637D01*
Y021877D01*
X065639D01*
Y021883D01*
X065641D01*
Y021885D01*
X065643D01*
Y02189D01*
X065644D01*
Y021893D01*
X065646D01*
Y021897D01*
X065648D01*
Y021902D01*
X06565D01*
Y021904D01*
X065652D01*
Y02191D01*
X065653D01*
Y021913D01*
X065655D01*
Y021917D01*
X065657D01*
Y02192D01*
X065659D01*
Y021924D01*
X065661D01*
Y021929D01*
X065662D01*
Y021933D01*
X065664D01*
Y021938D01*
X065666D01*
Y02194D01*
X065668D01*
Y021945D01*
X06567D01*
Y021949D01*
X065671D01*
Y021953D01*
X065673D01*
Y021958D01*
X065675D01*
Y02196D01*
X065677D01*
Y021965D01*
X065679D01*
Y021969D01*
X06568D01*
Y021972D01*
X065682D01*
Y021978D01*
X065684D01*
Y021979D01*
X065686D01*
Y021985D01*
X065687D01*
Y021988D01*
X065689D01*
Y021992D01*
X065691D01*
Y021997D01*
X065693D01*
Y021999D01*
X065695D01*
Y022005D01*
X065696D01*
Y022008D01*
X065698D01*
Y022012D01*
X0657D01*
Y022015D01*
X065702D01*
Y022019D01*
X065704D01*
Y022024D01*
X065705D01*
Y022028D01*
X065707D01*
Y022033D01*
X065709D01*
Y022035D01*
X065711D01*
Y02204D01*
X065713D01*
Y022044D01*
X065714D01*
Y022048D01*
X065716D01*
Y022053D01*
X065718D01*
Y022055D01*
X06572D01*
Y02206D01*
X065722D01*
Y022064D01*
X065723D01*
Y022067D01*
X065725D01*
Y022073D01*
X065727D01*
Y022074D01*
X065729D01*
Y02208D01*
X06573D01*
Y022083D01*
X065732D01*
Y022087D01*
X065734D01*
Y022092D01*
X065736D01*
Y022094D01*
X065738D01*
Y0221D01*
X065739D01*
Y022103D01*
X065741D01*
Y022107D01*
X065743D01*
Y02211D01*
X065745D01*
Y022114D01*
X065747D01*
Y022119D01*
X065748D01*
Y022123D01*
X06575D01*
Y022128D01*
X065752D01*
Y02213D01*
X065754D01*
Y022135D01*
X065756D01*
Y022139D01*
X065757D01*
Y022143D01*
X065756D01*
Y022144D01*
X065476D01*
Y022143D01*
X065474D01*
Y022141D01*
X065472D01*
Y022137D01*
X065471D01*
Y022132D01*
X065469D01*
Y02213D01*
X065467D01*
Y022125D01*
X065465D01*
Y022123D01*
X065464D01*
Y022117D01*
X065462D01*
Y022114D01*
X06546D01*
Y022112D01*
X065458D01*
Y022107D01*
X065456D01*
Y022103D01*
X065455D01*
Y0221D01*
X065453D01*
Y022096D01*
X065451D01*
Y022092D01*
X065449D01*
Y022087D01*
X065447D01*
Y022085D01*
X065446D01*
Y02208D01*
X065444D01*
Y022076D01*
X065442D01*
Y022073D01*
X06544D01*
Y022069D01*
X065438D01*
Y022065D01*
X065437D01*
Y02206D01*
X065435D01*
Y022058D01*
X065433D01*
Y022053D01*
X065431D01*
Y022049D01*
X065429D01*
Y022048D01*
X065428D01*
Y022042D01*
X065426D01*
Y02204D01*
X065424D01*
Y022035D01*
X065422D01*
Y022031D01*
X065421D01*
Y022028D01*
X065419D01*
Y022024D01*
X065417D01*
Y022021D01*
X065415D01*
Y022015D01*
X065413D01*
Y022014D01*
X065412D01*
Y022008D01*
X06541D01*
Y022005D01*
X065408D01*
Y022001D01*
X065406D01*
Y021997D01*
X065404D01*
Y021994D01*
X065403D01*
Y021988D01*
X065401D01*
Y021987D01*
X065399D01*
Y021983D01*
X065397D01*
Y021978D01*
X065395D01*
Y021976D01*
X065394D01*
Y021971D01*
X065392D01*
Y021967D01*
X06539D01*
Y021963D01*
X065388D01*
Y02196D01*
X065386D01*
Y021956D01*
X065385D01*
Y021951D01*
X065383D01*
Y021949D01*
X065381D01*
Y021944D01*
X065379D01*
Y021942D01*
X065378D01*
Y021936D01*
X065376D01*
Y021933D01*
X065374D01*
Y021929D01*
X065372D01*
Y021926D01*
X06537D01*
Y021922D01*
X065369D01*
Y021917D01*
X065367D01*
Y021915D01*
X065365D01*
Y021911D01*
X065363D01*
Y021906D01*
X065361D01*
Y021904D01*
X06536D01*
Y021899D01*
X065358D01*
Y021895D01*
X065356D01*
Y021892D01*
X065354D01*
Y021888D01*
X065352D01*
Y021885D01*
X065351D01*
Y021879D01*
X065349D01*
Y021877D01*
X065347D01*
Y021872D01*
X065345D01*
Y021868D01*
X065343D01*
Y021865D01*
X065342D01*
Y021861D01*
X06534D01*
Y021858D01*
X065338D01*
Y021854D01*
X065336D01*
Y02185D01*
X065335D01*
Y021847D01*
X065333D01*
Y021842D01*
X065331D01*
Y02184D01*
X065329D01*
Y021834D01*
X065327D01*
Y021833D01*
X065326D01*
Y021827D01*
X065324D01*
Y021824D01*
X065322D01*
Y02182D01*
X06532D01*
Y021815D01*
X065318D01*
Y021813D01*
X065317D01*
Y021807D01*
X065315D01*
Y021806D01*
X065313D01*
Y0218D01*
X065311D01*
Y021797D01*
X065309D01*
Y021795D01*
X065308D01*
Y02179D01*
X065306D01*
Y021786D01*
X065304D01*
Y021782D01*
X065302D01*
Y021779D01*
X0653D01*
Y021775D01*
X065299D01*
Y02177D01*
X065297D01*
Y021768D01*
X065295D01*
Y021763D01*
X065293D01*
Y021759D01*
X065292D01*
Y021756D01*
X06529D01*
Y021752D01*
X065288D01*
Y021748D01*
X065286D01*
Y021743D01*
X065284D01*
Y021741D01*
X065283D01*
Y021736D01*
X065281D01*
Y021732D01*
X065279D01*
Y02173D01*
X065277D01*
Y021725D01*
X065275D01*
Y021723D01*
X065274D01*
Y021718D01*
X065272D01*
Y021714D01*
X06527D01*
Y021711D01*
X065268D01*
Y021707D01*
X065266D01*
Y021704D01*
X065265D01*
Y021698D01*
X065263D01*
Y021696D01*
X065261D01*
Y021691D01*
X065259D01*
Y021687D01*
X065257D01*
Y021684D01*
X065256D01*
Y02168D01*
X065254D01*
Y021679D01*
X065252D01*
Y021675D01*
X065254D01*
Y021673D01*
X065449D01*
Y021657D01*
X065447D01*
Y02165D01*
X065446D01*
Y021635D01*
X065444D01*
Y021628D01*
X065442D01*
Y021618D01*
X06544D01*
Y021605D01*
X065438D01*
Y021598D01*
X065437D01*
Y021584D01*
X065435D01*
Y021576D01*
X065433D01*
Y021564D01*
X065431D01*
Y021553D01*
X065429D01*
Y021546D01*
X065428D01*
Y021532D01*
X065426D01*
Y021524D01*
X065424D01*
Y02151D01*
X065422D01*
Y021503D01*
X065421D01*
Y021492D01*
X065419D01*
Y02148D01*
X065417D01*
Y021472D01*
X065415D01*
Y021458D01*
X065413D01*
Y021451D01*
X065412D01*
Y021438D01*
X06541D01*
Y021428D01*
X065408D01*
Y021419D01*
X065406D01*
Y021406D01*
X065404D01*
Y021399D01*
X065403D01*
Y021385D01*
X065401D01*
Y021376D01*
X065399D01*
Y021365D01*
X065397D01*
Y021354D01*
X065395D01*
Y021347D01*
X065394D01*
Y021333D01*
X065392D01*
Y021326D01*
X06539D01*
Y021311D01*
X065388D01*
Y021302D01*
X065386D01*
Y021293D01*
X065385D01*
Y021281D01*
X065383D01*
Y021274D01*
X065385D01*
Y021275D01*
X065386D01*
Y021277D01*
X065388D01*
Y021279D01*
X06539D01*
Y021283D01*
X065392D01*
Y021284D01*
X065394D01*
Y021286D01*
X065395D01*
Y021288D01*
X065397D01*
Y021292D01*
X065399D01*
Y021293D01*
X065401D01*
Y021295D01*
X065403D01*
Y021299D01*
X065404D01*
Y0213D01*
X065406D01*
Y021304D01*
X065408D01*
Y021306D01*
X06541D01*
Y021308D01*
X065412D01*
Y021311D01*
X065413D01*
Y021313D01*
X065415D01*
Y021317D01*
X065417D01*
Y021318D01*
X065419D01*
Y02132D01*
X065421D01*
Y021324D01*
X065422D01*
Y021326D01*
X065424D01*
Y021327D01*
X065426D01*
Y021329D01*
X065428D01*
Y021333D01*
X065429D01*
Y021335D01*
X065431D01*
Y021338D01*
X065433D01*
Y02134D01*
X065435D01*
Y021342D01*
X065437D01*
Y021345D01*
X065438D01*
Y021347D01*
X06544D01*
Y021349D01*
X065442D01*
Y021352D01*
X065444D01*
Y021354D01*
X065446D01*
Y021358D01*
X065447D01*
Y02136D01*
X065449D01*
Y021361D01*
X065451D01*
Y021365D01*
X065453D01*
Y021367D01*
X065455D01*
Y021369D01*
X065456D01*
Y02137D01*
X065458D01*
Y021374D01*
X06546D01*
Y021376D01*
X065462D01*
Y021379D01*
X065464D01*
Y021381D01*
X065465D01*
Y021383D01*
X065467D01*
Y021386D01*
X065469D01*
Y021388D01*
X065471D01*
Y021392D01*
X065472D01*
Y021394D01*
X065474D01*
Y021395D01*
X065476D01*
Y021399D01*
X065478D01*
Y021401D01*
X06548D01*
Y021403D01*
X065481D01*
Y021406D01*
X065483D01*
Y021408D01*
X065485D01*
Y021412D01*
X065487D01*
Y021413D01*
X065489D01*
Y021415D01*
X06549D01*
Y021417D01*
X065492D01*
Y021421D01*
X065494D01*
Y021422D01*
X065496D01*
Y021426D01*
X065498D01*
Y021428D01*
X065499D01*
Y021429D01*
X065501D01*
Y021433D01*
X065503D01*
Y021435D01*
X065505D01*
Y021437D01*
X065507D01*
Y02144D01*
X065508D01*
Y021442D01*
X06551D01*
Y021446D01*
X065512D01*
Y021447D01*
X065514D01*
Y021449D01*
X065515D01*
Y021451D01*
X065517D01*
Y021455D01*
X065519D01*
Y021456D01*
X065521D01*
Y021458D01*
X065523D01*
Y021462D01*
X065524D01*
Y021464D01*
X065526D01*
Y021467D01*
X065528D01*
Y021469D01*
X06553D01*
Y021471D01*
X065532D01*
Y021474D01*
X065533D01*
Y021476D01*
X065535D01*
Y02148D01*
X065537D01*
Y021481D01*
X065539D01*
Y021483D01*
X065541D01*
Y021487D01*
X065542D01*
Y021489D01*
X065544D01*
Y02149D01*
X065546D01*
Y021494D01*
X065548D01*
Y021496D01*
X06555D01*
Y021498D01*
X065551D01*
Y021501D01*
X065553D01*
Y021503D01*
X065555D01*
Y021505D01*
X065557D01*
Y021508D01*
X065558D01*
Y02151D01*
X06556D01*
Y021512D01*
X065562D01*
Y021515D01*
X065564D01*
Y021517D01*
X065566D01*
Y021521D01*
X065567D01*
Y021523D01*
X065569D01*
Y021524D01*
X065571D01*
Y021528D01*
X065573D01*
Y02153D01*
X065575D01*
Y021532D01*
X065576D01*
Y021533D01*
X065578D01*
Y021537D01*
X06558D01*
Y021541D01*
X065582D01*
Y021542D01*
X065584D01*
Y021544D01*
X065585D01*
Y021546D01*
X065587D01*
Y02155D01*
X065589D01*
Y021551D01*
X065591D01*
Y021555D01*
X065593D01*
Y021557D01*
X065594D01*
Y021558D01*
X065596D01*
Y021562D01*
X065598D01*
Y021564D01*
X0656D01*
Y021566D01*
X065601D01*
Y021569D01*
X065603D01*
Y021571D01*
X065605D01*
Y021575D01*
X065607D01*
Y021576D01*
X065609D01*
Y021578D01*
X06561D01*
Y02158D01*
X065612D01*
Y021584D01*
X065614D01*
Y021585D01*
X065616D01*
Y021589D01*
X065618D01*
Y021591D01*
D02*
G37*
G36*
X067468Y029407D02*
X067464D01*
X067448Y029406D01*
X067433Y029404D01*
X06742Y029401D01*
X067415Y0294D01*
X067409Y029398D01*
X067405Y029396D01*
X067401Y029395D01*
X067397Y029393D01*
X067394Y029392D01*
X067391Y029391D01*
X067389Y02939D01*
X067389Y029389D01*
X067388D01*
X067377Y029382D01*
X067366Y029375D01*
X067358Y029367D01*
X06735Y02936D01*
X067345Y029353D01*
X06734Y029348D01*
X067339Y029345D01*
X067338Y029344D01*
X067337Y029343D01*
Y029342D01*
X067331Y029333D01*
X067327Y029324D01*
X067323Y029315D01*
X067321Y029307D01*
X067319Y0293D01*
X067318Y029298D01*
X067318Y029295D01*
X067317Y029293D01*
X067317Y029292D01*
Y02929D01*
X067316Y02928D01*
X067315Y029269D01*
X067314Y029259D01*
X067313Y029251D01*
X067313Y029243D01*
Y029243D01*
Y029138D01*
X067614D01*
Y029243D01*
X067613Y029254D01*
X067612Y029264D01*
X067611Y029273D01*
X067611Y02928D01*
X06761Y029283D01*
X06761Y029286D01*
Y029287D01*
X067609Y029289D01*
Y02929D01*
X067608Y0293D01*
X067605Y02931D01*
X067602Y029319D01*
X067598Y029326D01*
X067595Y029333D01*
X067592Y029337D01*
X067591Y029339D01*
X06759Y029341D01*
X06759Y029341D01*
Y029342D01*
X067583Y029352D01*
X067574Y029361D01*
X067566Y029369D01*
X067558Y029375D01*
X06755Y029381D01*
X067547Y029383D01*
X067545Y029385D01*
X067542Y029386D01*
X067541Y029387D01*
X06754Y029388D01*
X067539D01*
X067526Y029394D01*
X067513Y029399D01*
X067501Y029402D01*
X067489Y029404D01*
X067484Y029405D01*
X067479Y029406D01*
X067474Y029406D01*
X067471D01*
X067468Y029407D01*
D02*
G37*
G36*
X067614Y029077D02*
X067313D01*
Y029008D01*
X067485D01*
X067313Y028911D01*
Y028819D01*
X067614D01*
Y029077D01*
D02*
G37*
G36*
X067597Y028762D02*
X067449D01*
Y028631D01*
X067505D01*
Y028689D01*
X067565D01*
X067565Y028686D01*
Y02867D01*
X067565Y028661D01*
X067564Y028654D01*
X067563Y028646D01*
X067561Y028639D01*
X067559Y028633D01*
X067557Y028627D01*
X067555Y028621D01*
X067553Y028617D01*
X06755Y028613D01*
X067548Y028608D01*
X067546Y028605D01*
X067544Y028602D01*
X067542Y0286D01*
X067541Y028599D01*
X067541Y028598D01*
X06754Y028598D01*
X067535Y028593D01*
X067529Y028589D01*
X067523Y028586D01*
X067517Y028582D01*
X067511Y02858D01*
X067505Y028578D01*
X067492Y028575D01*
X067486Y028574D01*
X06748Y028573D01*
X067475Y028572D01*
X067471Y028572D01*
X067468Y028571D01*
X067465D01*
X067463D01*
X067462D01*
X067454Y028572D01*
X067445Y028572D01*
X067438Y028574D01*
X067432Y028575D01*
X067426Y028576D01*
X067423Y028577D01*
X06742Y028578D01*
X067419Y028578D01*
X067413Y028581D01*
X067407Y028584D01*
X067401Y028587D01*
X067397Y02859D01*
X067393Y028593D01*
X067391Y028595D01*
X067389Y028596D01*
X067389Y028597D01*
X067384Y028601D01*
X06738Y028607D01*
X067377Y028611D01*
X067375Y028616D01*
X067373Y028619D01*
X067371Y028622D01*
X067371Y028625D01*
X06737Y028625D01*
X067368Y028631D01*
X067366Y028637D01*
X067365Y028643D01*
X067365Y028649D01*
X067364Y028654D01*
X067364Y028657D01*
Y028667D01*
X067365Y028673D01*
X067365Y028678D01*
X067366Y028683D01*
X067367Y028686D01*
X067367Y028689D01*
X067368Y028692D01*
Y028692D01*
X06737Y028698D01*
X067372Y028702D01*
X067374Y028707D01*
X067376Y028711D01*
X067377Y028714D01*
X067378Y028716D01*
X067379Y028718D01*
X067379Y028718D01*
X067384Y028726D01*
X067388Y028732D01*
X06739Y028734D01*
X067391Y028736D01*
X067392Y028738D01*
X067393Y028738D01*
X067398Y028745D01*
X0674Y028747D01*
X067401Y02875D01*
X067402Y028752D01*
X067403Y028753D01*
X067404Y028753D01*
Y028761D01*
X067334D01*
X067329Y028752D01*
X067326Y028742D01*
X067322Y028734D01*
X06732Y028727D01*
X067317Y028721D01*
X067316Y028716D01*
X067316Y028714D01*
X067315Y028713D01*
X067315Y028712D01*
Y028712D01*
X067312Y028703D01*
X06731Y028692D01*
X067309Y028682D01*
X067308Y028672D01*
X067308Y028664D01*
X067307Y02866D01*
Y02867D01*
Y02865D01*
X067308Y028637D01*
X067309Y028625D01*
X067311Y028613D01*
X067314Y028601D01*
X067317Y028591D01*
X067321Y028582D01*
X067325Y028573D01*
X067328Y028565D01*
X067333Y028558D01*
X067337Y028552D01*
X06734Y028547D01*
X067343Y028543D01*
X067346Y02854D01*
X067348Y028537D01*
X06735Y028536D01*
X06735Y028535D01*
X067359Y028528D01*
X067367Y028521D01*
X067377Y028516D01*
X067386Y028511D01*
X067395Y028507D01*
X067405Y028503D01*
X067414Y028501D01*
X067423Y028498D01*
X067431Y028497D01*
X067439Y028496D01*
X067446Y028495D01*
X067452Y028494D01*
X067456D01*
X06746Y028493D01*
X067307D01*
X06762D01*
Y028558D01*
Y028493D01*
X067463D01*
X067477Y028494D01*
X06749Y028495D01*
X067502Y028497D01*
X067513Y0285D01*
X067523Y028503D01*
X067533Y028507D01*
X067541Y02851D01*
X067549Y028515D01*
X067556Y028518D01*
X067562Y028522D01*
X067567Y028526D01*
X067572Y028529D01*
X067575Y028532D01*
X067578Y028534D01*
X067579Y028535D01*
X067579Y028535D01*
X067586Y028544D01*
X067593Y028552D01*
X067598Y028561D01*
X067603Y028571D01*
X067607Y02858D01*
X06761Y028589D01*
X067613Y028599D01*
X067615Y028607D01*
X067617Y028616D01*
X067618Y028624D01*
X067619Y028631D01*
X06762Y028637D01*
Y028641D01*
X06762Y028645D01*
Y028558D01*
Y028645D01*
Y028648D01*
X06762Y02866D01*
X067619Y028671D01*
X067618Y028681D01*
X067616Y028691D01*
X067615Y028699D01*
X067614Y028702D01*
X067614Y028705D01*
X067613Y028707D01*
Y028709D01*
X067613Y02871D01*
Y02871D01*
X06761Y028722D01*
X067607Y028732D01*
X067604Y028741D01*
X067602Y028748D01*
X0676Y028754D01*
X067598Y028758D01*
X067597Y028761D01*
X067597Y028762D01*
D02*
G37*
%LPD*%
G36*
X067474Y029328D02*
X067483Y029327D01*
X067492Y029325D01*
X067499Y029324D01*
X067505Y029322D01*
X06751Y02932D01*
X067512Y029319D01*
X067513Y029319D01*
X067513D01*
X067521Y029315D01*
X067527Y02931D01*
X067532Y029306D01*
X067537Y029301D01*
X067541Y029297D01*
X067543Y029293D01*
X067545Y029291D01*
X067545Y02929D01*
X067548Y029284D01*
X067551Y029278D01*
X067553Y029273D01*
X067554Y029268D01*
X067555Y029263D01*
X067556Y02926D01*
X067556Y029258D01*
Y02925D01*
X067557Y029243D01*
Y029213D01*
X067369D01*
Y029231D01*
X067369Y029237D01*
Y029248D01*
X06737Y029251D01*
Y029254D01*
X06737Y029261D01*
X067371Y029267D01*
X067373Y029272D01*
X067375Y029277D01*
X067376Y029281D01*
X067377Y029284D01*
X067378Y029286D01*
X067379Y029287D01*
X067384Y029294D01*
X067389Y0293D01*
X067395Y029306D01*
X0674Y02931D01*
X067405Y029314D01*
X067408Y029316D01*
X067411Y029318D01*
X067412Y029318D01*
X067412D01*
X06742Y029322D01*
X067429Y029324D01*
X067438Y029326D01*
X067445Y029327D01*
X067452Y029328D01*
X067456D01*
X067458Y029329D01*
X06746D01*
X067462D01*
X067462D01*
X067463D01*
X067474Y029328D01*
D02*
G37*
G36*
X067614Y028888D02*
X067404D01*
X067614Y029004D01*
Y028888D01*
D02*
G37*
%LPC*%
G36*
X043884Y023302D02*
X043746D01*
Y022957D01*
X043553Y023302D01*
X043368D01*
Y0227D01*
X043506D01*
Y023119D01*
X043739Y0227D01*
X043884D01*
Y023302D01*
D02*
G37*
G36*
X044257Y023022D02*
X043988D01*
Y02291D01*
X044257D01*
Y023022D01*
D02*
G37*
G36*
X043268Y023302D02*
X042943D01*
Y023197D01*
X04303D01*
Y022805D01*
X042943D01*
Y0227D01*
X043268D01*
Y022805D01*
X043181D01*
Y023197D01*
X043268D01*
Y023302D01*
D02*
G37*
G36*
X0666Y02938D02*
X066288D01*
D01*
X066313D01*
X06631Y029374D01*
X066307Y029367D01*
X066306Y029364D01*
X066305Y029362D01*
X066304Y029361D01*
Y02936D01*
X066301Y029352D01*
X066299Y029348D01*
X066298Y029345D01*
X066297Y029342D01*
X066296Y02934D01*
X066296Y029339D01*
Y029338D01*
X066293Y029328D01*
X066292Y029323D01*
X066291Y029319D01*
X066291Y029315D01*
X06629Y029313D01*
X06629Y029311D01*
Y02931D01*
X066289Y029299D01*
X066288Y029294D01*
Y029289D01*
X066288Y029284D01*
Y029131D01*
Y029278D01*
X066288Y029266D01*
X06629Y029254D01*
X066291Y029243D01*
X066294Y029233D01*
X066297Y029223D01*
X066301Y029214D01*
X066305Y029206D01*
X066309Y029199D01*
X066313Y029193D01*
X066317Y029187D01*
X06632Y029182D01*
X066324Y029178D01*
X066326Y029175D01*
X066328Y029173D01*
X06633Y029171D01*
X06633Y029171D01*
X066339Y029164D01*
X066347Y029158D01*
X066357Y029152D01*
X066366Y029148D01*
X066375Y029144D01*
X066385Y029141D01*
X066394Y029138D01*
X066403Y029136D01*
X066411Y029134D01*
X066419Y029133D01*
X066426Y029132D01*
X066432Y029132D01*
X066437D01*
X066441Y029131D01*
X066444D01*
X066458Y029132D01*
X066471Y029133D01*
X066483Y029135D01*
X066494Y029137D01*
X066504Y02914D01*
X066514Y029144D01*
X066522Y029147D01*
X06653Y029151D01*
X066537Y029155D01*
X066543Y029158D01*
X066548Y029162D01*
X066552Y029165D01*
X066555Y029167D01*
X066557Y029169D01*
X066559Y02917D01*
X066559Y029171D01*
X066566Y029179D01*
X066573Y029187D01*
X066578Y029195D01*
X066583Y029205D01*
X066587Y029213D01*
X06659Y029222D01*
X066593Y029231D01*
X066595Y029239D01*
X066597Y029247D01*
X066598Y029254D01*
X066599Y029261D01*
X0666Y029267D01*
Y029272D01*
X0666Y029275D01*
Y029286D01*
X0666Y029292D01*
X066599Y029298D01*
X066599Y029303D01*
Y029307D01*
X066598Y029309D01*
X066598Y029311D01*
Y029312D01*
X066596Y029321D01*
X066595Y029326D01*
X066594Y02933D01*
X066593Y029333D01*
X066592Y029336D01*
X066592Y029338D01*
Y029339D01*
X066589Y029347D01*
X066588Y029351D01*
X066586Y029354D01*
X066585Y029357D01*
X066584Y029359D01*
X066583Y02936D01*
Y029361D01*
X06658Y029369D01*
X066578Y029372D01*
X066577Y029375D01*
X066576Y029377D01*
X066575Y029379D01*
X066575Y02938D01*
Y02938D01*
X0666D01*
D01*
D02*
G37*
G36*
X066594Y029104D02*
X066293D01*
D01*
X066444D01*
X066429Y029103D01*
X066414Y029102D01*
X066401Y029099D01*
X066395Y029097D01*
X06639Y029096D01*
X066385Y029094D01*
X066381Y029092D01*
X066377Y029091D01*
X066374Y02909D01*
X066372Y029089D01*
X06637Y029088D01*
X066369Y029087D01*
X066369D01*
X066357Y02908D01*
X066347Y029072D01*
X066338Y029065D01*
X066331Y029057D01*
X066325Y02905D01*
X06632Y029045D01*
X066319Y029043D01*
X066318Y029041D01*
X066317Y029041D01*
Y02904D01*
X066312Y029031D01*
X066308Y029022D01*
X066304Y029013D01*
X066302Y029005D01*
X0663Y028998D01*
X066299Y028995D01*
X066298Y028993D01*
X066298Y028991D01*
X066297Y028989D01*
Y028988D01*
X066296Y028977D01*
X066295Y028967D01*
X066294Y028957D01*
X066294Y028948D01*
X066293Y02894D01*
Y028835D01*
X066594D01*
Y028941D01*
X066594Y028952D01*
X066593Y028962D01*
X066592Y02897D01*
X066591Y028978D01*
X066591Y02898D01*
X06659Y028983D01*
Y028985D01*
X06659Y028986D01*
Y028988D01*
X066588Y028998D01*
X066585Y029008D01*
X066582Y029017D01*
X066579Y029024D01*
X066576Y02903D01*
X066573Y029035D01*
X066572Y029037D01*
X066571Y029038D01*
X06657Y029039D01*
Y029039D01*
X066563Y029049D01*
X066555Y029059D01*
X066546Y029066D01*
X066538Y029073D01*
X066531Y029078D01*
X066528Y029081D01*
X066525Y029083D01*
X066523Y029084D01*
X066521Y029085D01*
X06652Y029086D01*
X06652D01*
X066507Y029092D01*
X066494Y029096D01*
X066481Y0291D01*
X066469Y029102D01*
X066464Y029103D01*
X06646Y029103D01*
X066455Y029104D01*
X066451D01*
X066448Y029104D01*
X066594D01*
D01*
D02*
G37*
G36*
Y028806D02*
D01*
X066293Y028704D01*
Y028806D01*
Y02852D01*
X066594D01*
Y028595D01*
X066533Y028614D01*
Y02871D01*
X066594Y028729D01*
Y028806D01*
D02*
G37*
%LPD*%
G36*
X066503Y029373D02*
X066508Y029369D01*
X066511Y029364D01*
X066513Y029362D01*
X066514Y029361D01*
X066515Y02936D01*
X066515Y029359D01*
X06652Y029353D01*
X066524Y029348D01*
X066525Y029345D01*
X066527Y029344D01*
X066527Y029342D01*
X066527Y029342D01*
X066532Y029334D01*
X066535Y029327D01*
X066537Y029324D01*
X066538Y029321D01*
X066538Y02932D01*
X066539Y029319D01*
X066541Y029309D01*
X066542Y029304D01*
X066543Y0293D01*
Y029297D01*
X066543Y029293D01*
Y029291D01*
X066542Y02928D01*
X066542Y029275D01*
X066541Y029271D01*
X06654Y029267D01*
X066539Y029265D01*
X066539Y029262D01*
Y029262D01*
X066536Y029257D01*
X066534Y029252D01*
X066531Y029248D01*
X066528Y029243D01*
X066526Y029241D01*
X066524Y029238D01*
X066522Y029236D01*
X066522Y029236D01*
X066517Y029232D01*
X066512Y029228D01*
X066507Y029224D01*
X066503Y029222D01*
X066498Y029219D01*
X066495Y029218D01*
X066492Y029217D01*
X066491Y029217D01*
X066484Y029214D01*
X066476Y029212D01*
X066468Y029211D01*
X066461Y02921D01*
X066454Y02921D01*
X066449Y029209D01*
X066448D01*
X066446D01*
X066445D01*
X066445D01*
X066435Y02921D01*
X066426Y02921D01*
X066418Y029211D01*
X066411Y029213D01*
X066406Y029214D01*
X066402Y029215D01*
X066399Y029216D01*
X066399Y029216D01*
X066392Y029219D01*
X066386Y029222D01*
X06638Y029225D01*
X066376Y029228D01*
X066372Y02923D01*
X06637Y029233D01*
X066368Y029234D01*
X066368Y029235D01*
X066363Y029239D01*
X06636Y029244D01*
X066357Y029248D01*
X066354Y029252D01*
X066352Y029255D01*
X066351Y029258D01*
X06635Y02926D01*
Y02926D01*
X066348Y029266D01*
X066347Y029271D01*
X066346Y029276D01*
X066345Y02928D01*
Y029284D01*
X066345Y029288D01*
Y02929D01*
X066345Y0293D01*
X066346Y029304D01*
X066347Y029309D01*
X066348Y029312D01*
X066348Y029314D01*
X066349Y029316D01*
Y029316D01*
X066353Y029326D01*
X066355Y029329D01*
X066357Y029333D01*
X066358Y029336D01*
X066359Y029338D01*
X06636Y029339D01*
X06636Y02934D01*
X066365Y029347D01*
X066367Y02935D01*
X066369Y029353D01*
X066371Y029355D01*
X066372Y029357D01*
X066373Y029358D01*
X066373Y029358D01*
X066378Y029364D01*
X066381Y029369D01*
X066383Y029371D01*
X066384Y029372D01*
Y02938D01*
X066503D01*
Y029373D01*
D02*
G37*
G36*
X066454Y029026D02*
X066464Y029025D01*
X066472Y029023D01*
X066479Y029022D01*
X066485Y02902D01*
X06649Y029018D01*
X066493Y029017D01*
X066493Y029017D01*
X066494D01*
X066501Y029012D01*
X066507Y029008D01*
X066513Y029003D01*
X066517Y028999D01*
X066521Y028994D01*
X066523Y028991D01*
X066525Y028989D01*
X066526Y028988D01*
X066529Y028982D01*
X066532Y028976D01*
X066533Y02897D01*
X066535Y028965D01*
X066536Y028961D01*
X066536Y028958D01*
X066537Y028956D01*
Y028948D01*
X066537Y028941D01*
Y028911D01*
X066349D01*
Y028928D01*
X06635Y028935D01*
Y028945D01*
X06635Y028949D01*
Y028952D01*
X066351Y028958D01*
X066352Y028964D01*
X066353Y028969D01*
X066355Y028974D01*
X066357Y028979D01*
X066358Y028981D01*
X066359Y028984D01*
X066359Y028984D01*
X066364Y028992D01*
X066369Y028998D01*
X066375Y029004D01*
X066381Y029008D01*
X066385Y029011D01*
X066389Y029014D01*
X066392Y029015D01*
X066392Y029016D01*
X066393D01*
X066401Y029019D01*
X066409Y029022D01*
X066418Y029023D01*
X066426Y029025D01*
X066433Y029026D01*
X066436D01*
X066438Y029026D01*
X066441D01*
X066442D01*
X066443D01*
X066443D01*
X066454Y029026D01*
D02*
G37*
G36*
X066478Y028631D02*
X066378Y028662D01*
X066478Y028693D01*
Y028631D01*
D02*
G37*
G36*
X066594Y02852D02*
X066293D01*
Y028622D01*
X066594Y02852D01*
D02*
G37*
%LPC*%
G36*
X064262Y025019D02*
X064038D01*
Y0246D01*
Y02481D01*
X064039Y024792D01*
X064041Y024775D01*
X064043Y024758D01*
X064047Y024743D01*
X064051Y024729D01*
X064056Y024716D01*
X064061Y024705D01*
X064067Y024695D01*
X064072Y024685D01*
X064076Y024677D01*
X064081Y024671D01*
X064086Y024664D01*
X064089Y02466D01*
X064092Y024657D01*
X064094Y024655D01*
X064094Y024654D01*
X064106Y024645D01*
X064117Y024637D01*
X064129Y024629D01*
X064142Y024623D01*
X064154Y024618D01*
X064167Y024614D01*
X064179Y02461D01*
X064191Y024607D01*
X064202Y024604D01*
X064213Y024603D01*
X064222Y024602D01*
X06423Y024601D01*
X064236D01*
X064241Y0246D01*
X064038D01*
X064245D01*
X064261Y024601D01*
X064276Y024602D01*
X06429Y024603D01*
X064303Y024605D01*
X064314Y024607D01*
X064318Y024607D01*
X064322Y024609D01*
X064325Y024609D01*
X064327D01*
X064328Y02461D01*
X064329D01*
X064345Y024614D01*
X064358Y024618D01*
X06437Y024621D01*
X06438Y024624D01*
X064388Y024627D01*
X064393Y024629D01*
X064397Y02463D01*
X064398Y024631D01*
Y02483D01*
X064222D01*
Y024754D01*
X064301D01*
Y024674D01*
X064296Y024674D01*
X064275D01*
X064263Y024674D01*
X064253Y024675D01*
X064243Y024677D01*
X064234Y024679D01*
X064225Y024682D01*
X064217Y024684D01*
X06421Y024687D01*
X064203Y02469D01*
X064198Y024693D01*
X064192Y024697D01*
X064188Y0247D01*
X064184Y024702D01*
X064182Y024704D01*
X06418Y024706D01*
X064179Y024706D01*
X064178Y024707D01*
X064172Y024714D01*
X064166Y024721D01*
X064162Y024729D01*
X064158Y024737D01*
X064154Y024746D01*
X064151Y024755D01*
X064147Y024771D01*
X064146Y02478D01*
X064145Y024787D01*
X064144Y024794D01*
X064143Y024799D01*
X064143Y024804D01*
Y024808D01*
Y02481D01*
Y024811D01*
X064143Y024823D01*
X064144Y024834D01*
X064146Y024844D01*
X064148Y024852D01*
X064149Y024859D01*
X064151Y024864D01*
X064151Y024867D01*
X064152Y024869D01*
X064156Y024878D01*
X06416Y024886D01*
X064164Y024893D01*
X064168Y024899D01*
X064171Y024904D01*
X064174Y024907D01*
X064176Y02491D01*
X064177Y02491D01*
X064183Y024916D01*
X06419Y024921D01*
X064196Y024926D01*
X064202Y024929D01*
X064207Y024931D01*
X064211Y024934D01*
X064214Y024934D01*
X064215Y024935D01*
X064223Y024938D01*
X064231Y02494D01*
X064239Y024942D01*
X064247Y024942D01*
X064253Y024943D01*
X064258Y024944D01*
X06427D01*
X064278Y024942D01*
X064285Y024942D01*
X064292Y02494D01*
X064297Y024939D01*
X064301Y024939D01*
X064304Y024937D01*
X064304D01*
X064312Y024935D01*
X064318Y024932D01*
X064324Y02493D01*
X06433Y024927D01*
X064333Y024926D01*
X064337Y024924D01*
X064339Y024923D01*
X06434Y024922D01*
X064349Y024916D01*
X064358Y024911D01*
X064361Y024908D01*
X064364Y024906D01*
X064366Y024905D01*
X064366Y024905D01*
X064375Y024898D01*
X064379Y024895D01*
X064382Y024893D01*
X064384Y024892D01*
X064386Y02489D01*
X064387Y024889D01*
X064397D01*
Y024983D01*
X064384Y024989D01*
X064372Y024994D01*
X064361Y024999D01*
X064351Y025002D01*
X064343Y025005D01*
X064336Y025007D01*
X064334Y025008D01*
X064332Y025009D01*
X064332Y025009D01*
X064331D01*
X064319Y025012D01*
X064305Y025015D01*
X064291Y025017D01*
X064278Y025018D01*
X064267Y025018D01*
X064262Y025019D01*
D02*
G37*
G36*
X06482Y025012D02*
X064728D01*
Y024781D01*
X064598Y025012D01*
X064475D01*
Y024609D01*
X06482D01*
Y025012D01*
D02*
G37*
G36*
X065042D02*
X064902D01*
Y024609D01*
X065262D01*
X065043D01*
X065058Y024609D01*
X065071Y024611D01*
X065082Y024612D01*
X065092Y024612D01*
X065096Y024613D01*
X0651Y024614D01*
X065102D01*
X065104Y024614D01*
X065106D01*
X06512Y024617D01*
X065133Y02462D01*
X065144Y024625D01*
X065154Y024629D01*
X065163Y024633D01*
X065169Y024637D01*
X065172Y024638D01*
X065173Y02464D01*
X065174Y02464D01*
X065175D01*
X065188Y02465D01*
X065201Y024661D01*
X065211Y024672D01*
X06522Y024684D01*
X065227Y024693D01*
X06523Y024697D01*
X065233Y024701D01*
X065235Y024704D01*
X065236Y024706D01*
X065237Y024708D01*
Y024708D01*
X065245Y024726D01*
X065251Y024743D01*
X065256Y02476D01*
X065259Y024776D01*
X06526Y024783D01*
X065261Y024789D01*
X065261Y024795D01*
Y0248D01*
X065262Y024804D01*
Y024809D01*
X065261Y02483D01*
X065258Y02485D01*
X065254Y024867D01*
X065253Y024875D01*
X06525Y024882D01*
X065248Y024888D01*
X065246Y024894D01*
X065244Y024899D01*
X065242Y024903D01*
X065241Y024906D01*
X06524Y024909D01*
X065238Y02491D01*
Y024911D01*
X065229Y024926D01*
X065219Y02494D01*
X065209Y024952D01*
X065199Y024962D01*
X065189Y024969D01*
X065183Y024975D01*
X06518Y024977D01*
X065178Y024978D01*
X065176Y024979D01*
X065176D01*
X065163Y024987D01*
X065151Y024992D01*
X065139Y024997D01*
X065129Y025D01*
X06512Y025003D01*
X065116Y025004D01*
X065112Y025005D01*
X06511Y025005D01*
X065108Y025006D01*
X065106D01*
X065092Y025008D01*
X065078Y025009D01*
X065064Y02501D01*
X065053Y025011D01*
X065042Y025012D01*
D02*
G37*
%LPD*%
G36*
X064231Y025018D02*
X064214Y025017D01*
X064198Y025013D01*
X064183Y02501D01*
X064169Y025005D01*
X064157Y025001D01*
X064145Y024996D01*
X064135Y024991D01*
X064125Y024985D01*
X064117Y024979D01*
X064111Y024975D01*
X064105Y024971D01*
X0641Y024967D01*
X064097Y024964D01*
X064095Y024962D01*
X064094Y024962D01*
X064085Y02495D01*
X064076Y024939D01*
X064068Y024926D01*
X064062Y024914D01*
X064057Y024901D01*
X064052Y024888D01*
X064048Y024876D01*
X064045Y024864D01*
X064043Y024853D01*
X064041Y024843D01*
X06404Y024833D01*
X064039Y024825D01*
Y024819D01*
X064038Y024814D01*
Y025019D01*
X064249D01*
X064231Y025018D01*
D02*
G37*
G36*
X064723Y024609D02*
X064567D01*
Y024889D01*
X064723Y024609D01*
D02*
G37*
G36*
X065035Y024936D02*
X065049D01*
X065054Y024936D01*
X065058D01*
X065066Y024935D01*
X065074Y024933D01*
X065081Y024931D01*
X065088Y024929D01*
X065094Y024927D01*
X065097Y024925D01*
X0651Y024924D01*
X065101Y024923D01*
X065111Y024916D01*
X06512Y02491D01*
X065127Y024902D01*
X065133Y024895D01*
X065137Y024888D01*
X065141Y024883D01*
X065142Y02488D01*
X065143Y024879D01*
Y024879D01*
X065148Y024867D01*
X065151Y024856D01*
X065154Y024845D01*
X065155Y024834D01*
X065157Y024825D01*
Y02482D01*
X065157Y024817D01*
Y024814D01*
Y024812D01*
Y024811D01*
Y02481D01*
X065157Y024796D01*
X065155Y024783D01*
X065153Y024771D01*
X065151Y024762D01*
X065149Y024754D01*
X065146Y024748D01*
X065145Y024744D01*
X065144Y024744D01*
Y024743D01*
X065139Y024733D01*
X065133Y024725D01*
X065126Y024718D01*
X06512Y024711D01*
X065115Y024706D01*
X06511Y024703D01*
X065107Y024701D01*
X065106Y0247D01*
X065098Y024696D01*
X06509Y024692D01*
X065082Y02469D01*
X065076Y024688D01*
X06507Y024687D01*
X065066Y024686D01*
X065063Y024685D01*
X065052D01*
X065043Y024685D01*
X065003D01*
Y024937D01*
X065026D01*
X065035Y024936D01*
D02*
G37*
%LPC*%
G36*
X055049Y030277D02*
D01*
Y030275D01*
X055044Y030276D01*
X055033D01*
X055028Y030277D01*
X055018D01*
X055005Y030276D01*
X054992Y030273D01*
X054987Y030273D01*
X054984Y030271D01*
X054981Y03027D01*
X05498D01*
X054966Y030264D01*
X054959Y030262D01*
X054954Y03026D01*
X05495Y030258D01*
X054947Y030256D01*
X054945Y030254D01*
X054944D01*
X054933Y030247D01*
X054922Y03024D01*
X054919Y030236D01*
X054915Y030235D01*
X054913Y030233D01*
X054912Y030232D01*
X054901Y030223D01*
X054893Y030216D01*
X054888Y030211D01*
X054886Y03021D01*
Y030275D01*
X054745D01*
Y029821D01*
X055049D01*
Y030277D01*
D02*
G37*
G36*
X050454Y030405D02*
D01*
Y030275D01*
X050318D01*
Y030405D01*
X050176D01*
Y030275D01*
X050122D01*
Y030176D01*
X050176D01*
Y029964D01*
X050177Y029949D01*
X050178Y029935D01*
X05018Y029923D01*
X050183Y029911D01*
X050186Y029901D01*
X050188Y02989D01*
X050192Y029882D01*
X050196Y029875D01*
X050199Y029868D01*
X050203Y029863D01*
X050209Y029853D01*
X050213Y029849D01*
X050215Y029847D01*
X050223Y029841D01*
X050232Y029835D01*
X050251Y029827D01*
X050273Y02982D01*
X050293Y029817D01*
X050311Y029814D01*
X05032Y029813D01*
X050327D01*
X050333Y029812D01*
X050122D01*
D01*
X050454D01*
Y030405D01*
D02*
G37*
G36*
X047536Y030405D02*
D01*
Y030275D01*
X0474D01*
Y030405D01*
X047259D01*
Y030275D01*
X047204D01*
Y030176D01*
X047259D01*
Y029964D01*
X04726Y029949D01*
X047261Y029935D01*
X047263Y029923D01*
X047265Y029911D01*
X047268Y029901D01*
X047271Y02989D01*
X047275Y029882D01*
X047278Y029875D01*
X047282Y029868D01*
X047286Y029863D01*
X047291Y029853D01*
X047296Y029849D01*
X047298Y029847D01*
X047306Y029841D01*
X047314Y029835D01*
X047334Y029827D01*
X047355Y02982D01*
X047375Y029817D01*
X047394Y029814D01*
X047402Y029813D01*
X04741D01*
X047415Y029812D01*
X047204D01*
D01*
X047536D01*
Y030405D01*
D02*
G37*
G36*
X052717Y030434D02*
D01*
Y030009D01*
X052716Y030031D01*
X052713Y030051D01*
X052707Y030068D01*
X052702Y030083D01*
X052696Y030094D01*
X05269Y030103D01*
X052687Y030108D01*
X052686Y03011D01*
X052673Y030124D01*
X052658Y030136D01*
X052643Y030146D01*
X052628Y030154D01*
X052615Y030162D01*
X052604Y030166D01*
X052599Y030168D01*
X052596Y03017D01*
X052594Y030171D01*
X052593D01*
X052581Y030174D01*
X05257Y030178D01*
X05256Y030181D01*
X052551Y030184D01*
X052543Y030186D01*
X052537Y030187D01*
X052533Y030188D01*
X052532D01*
X052512Y030193D01*
X052502Y030196D01*
X052493Y030198D01*
X052486Y030199D01*
X05248Y0302D01*
X052476Y030201D01*
X052475D01*
X052458Y030206D01*
X052445Y03021D01*
X052434Y030214D01*
X052425Y030218D01*
X052419Y030222D01*
X052415Y030224D01*
X052412Y030225D01*
X052411Y030226D01*
X052406Y030232D01*
X052402Y030237D01*
X052399Y030244D01*
X052397Y030249D01*
X052396Y030255D01*
X052395Y030259D01*
Y030261D01*
Y030262D01*
X052396Y030268D01*
X052397Y030273D01*
X052401Y030283D01*
X052403Y030286D01*
X052404Y030289D01*
X052406Y03029D01*
Y030291D01*
X052414Y030299D01*
X052421Y030306D01*
X052428Y03031D01*
X052429Y03031D01*
X05243D01*
X052443Y030315D01*
X052453Y030319D01*
X052457Y03032D01*
X05246D01*
X052462Y030321D01*
X052463D01*
X052475Y030322D01*
X052486Y030324D01*
X052498D01*
X052517Y030323D01*
X052535Y030322D01*
X052552Y030318D01*
X052567Y030314D01*
X052579Y03031D01*
X052589Y030307D01*
X052592Y030306D01*
X052595Y030305D01*
X052596Y030304D01*
X052597D01*
X052615Y030297D01*
X05263Y030288D01*
X052644Y030281D01*
X052656Y030273D01*
X052666Y030267D01*
X052674Y030261D01*
X052678Y030258D01*
X052679Y030257D01*
X052693D01*
Y030394D01*
X052677Y0304D01*
X05266Y030406D01*
X052644Y030411D01*
X052629Y030416D01*
X052616Y030419D01*
X052606Y030421D01*
X052603Y030422D01*
X0526D01*
X052598Y030423D01*
X052597D01*
X052578Y030427D01*
X052558Y03043D01*
X052541Y030432D01*
X052524Y030433D01*
X05251D01*
X052505Y030434D01*
X052491D01*
X052471Y030433D01*
X052452Y030433D01*
X052434Y03043D01*
X052418Y030426D01*
X052402Y030422D01*
X052387Y030418D01*
X052373Y030413D01*
X052361Y030408D01*
X05235Y030403D01*
X052341Y030398D01*
X052332Y030394D01*
X052325Y03039D01*
X05232Y030386D01*
X052316Y030384D01*
X052313Y030383D01*
X052312Y030382D01*
X052299Y030371D01*
X052289Y03036D01*
X052279Y030349D01*
X052271Y030338D01*
X052264Y030326D01*
X052258Y030315D01*
X052254Y030304D01*
X05225Y030294D01*
X052246Y030284D01*
X052245Y030274D01*
X052243Y030266D01*
X052242Y030259D01*
Y030253D01*
X052241Y030248D01*
Y030246D01*
Y030245D01*
X052242Y030223D01*
X052246Y030202D01*
X05225Y030184D01*
X052256Y030169D01*
X052261Y030157D01*
X052266Y030148D01*
X05227Y030142D01*
X052271Y030141D01*
Y03014D01*
X052277Y030133D01*
X052283Y030125D01*
X052299Y030113D01*
X052316Y0301D01*
X052332Y030091D01*
X052347Y030084D01*
X052354Y030081D01*
X05236Y030078D01*
X052365Y030076D01*
X052369Y030075D01*
X05237Y030074D01*
X052371D01*
X052394Y030066D01*
X052406Y030063D01*
X052415Y030061D01*
X052424Y030059D01*
X052431Y030057D01*
X052434Y030056D01*
X052436D01*
X052449Y030053D01*
X052461Y030051D01*
X052472Y030048D01*
X052482Y030046D01*
X052491Y030043D01*
X052496Y030042D01*
X052501Y03004D01*
X052502D01*
X052511Y030038D01*
X052519Y030035D01*
X052526Y030031D01*
X052532Y030027D01*
X052538Y030025D01*
X052542Y030022D01*
X052543Y030021D01*
X052544Y03002D01*
X052551Y030014D01*
X052555Y030008D01*
X052558Y030002D01*
X052561Y029996D01*
X052562Y029991D01*
X052563Y029987D01*
Y029984D01*
Y029983D01*
Y029976D01*
X052561Y029969D01*
X052559Y029964D01*
X052557Y029959D01*
X052555Y029955D01*
X052554Y029952D01*
X052553Y029952D01*
X052552Y029951D01*
X052542Y029942D01*
X052534Y029937D01*
X05253Y029934D01*
X052528Y029932D01*
X052526Y029931D01*
X052525D01*
X052514Y029927D01*
X052503Y029925D01*
X052498Y029924D01*
X052494D01*
X052492Y029923D01*
X052491D01*
X052477Y029921D01*
X05247D01*
X052466Y02992D01*
X052456D01*
X052437Y029921D01*
X052418Y029923D01*
X0524Y029927D01*
X052384Y02993D01*
X05237Y029934D01*
X052364Y029936D01*
X052359Y029938D01*
X052356Y029939D01*
X052353Y02994D01*
X052351Y02994D01*
X05235D01*
X05233Y029949D01*
X052311Y029958D01*
X052295Y029968D01*
X05228Y029977D01*
X052268Y029987D01*
X052258Y029993D01*
X052255Y029996D01*
X052252Y029998D01*
X052251Y03D01*
X052237D01*
Y029856D01*
X052271Y029842D01*
X052287Y029837D01*
X052302Y029832D01*
X052315Y029829D01*
X052325Y029826D01*
X052329Y029824D01*
X052332D01*
X052332Y029823D01*
X052333D01*
X052354Y029818D01*
X052375Y029816D01*
X052395Y029813D01*
X052414Y029812D01*
X052431Y029811D01*
X052438Y02981D01*
X052237D01*
X052717D01*
Y030434D01*
D02*
G37*
G36*
X048497Y03045D02*
X048356D01*
Y030256D01*
X048345Y030261D01*
X048335Y030266D01*
X048325Y03027D01*
X048318Y030273D01*
X048312Y030276D01*
X048306Y030278D01*
X048303Y030279D01*
X048302D01*
X048293Y030282D01*
X048284Y030284D01*
X048274Y030285D01*
X048264Y030286D01*
X048256Y030287D01*
X048244D01*
X04823Y030286D01*
X048216Y030285D01*
X048203Y030282D01*
X048192Y030279D01*
X048183Y030275D01*
X048176Y030273D01*
X048172Y030271D01*
X04817Y03027D01*
X048157Y030262D01*
X048146Y030255D01*
X048136Y030248D01*
X048127Y030239D01*
X04812Y030233D01*
X048114Y030227D01*
X048111Y030224D01*
X04811Y030223D01*
X048101Y03021D01*
X048092Y030197D01*
X048085Y030185D01*
X048078Y030173D01*
X048074Y030162D01*
X04807Y030154D01*
X048068Y030149D01*
X048067Y030148D01*
Y030147D01*
X048063Y03013D01*
X048059Y030113D01*
X048056Y030095D01*
X048054Y030079D01*
X048053Y030065D01*
Y030059D01*
X048053Y030054D01*
Y030044D01*
X048053Y030025D01*
X048054Y030006D01*
X048056Y029989D01*
X04806Y029972D01*
X048063Y029956D01*
X048066Y029942D01*
X048071Y029929D01*
X048075Y029918D01*
X048079Y029907D01*
X048083Y029898D01*
X048087Y02989D01*
X04809Y029884D01*
X048093Y029878D01*
X048095Y029875D01*
X048096Y029873D01*
X048097Y029872D01*
X048106Y029861D01*
X048115Y029851D01*
X048126Y029842D01*
X048135Y029835D01*
X048146Y029829D01*
X048156Y029824D01*
X048165Y029819D01*
X048176Y029817D01*
X048193Y029812D01*
X048201Y02981D01*
X048207Y029809D01*
X048213Y029808D01*
X048497D01*
Y03045D01*
D02*
G37*
G36*
X05142Y030287D02*
D01*
Y030275D01*
X051282D01*
X051277Y030255D01*
X051259Y030265D01*
X051251Y030269D01*
X051243Y030273D01*
X051236Y030274D01*
X051231Y030276D01*
X051227Y030278D01*
X051226D01*
X051205Y030284D01*
X051195Y030285D01*
X051185Y030286D01*
X051177Y030287D01*
X051164D01*
X05115Y030286D01*
X051136Y030285D01*
X051124Y030283D01*
X051113Y03028D01*
X051104Y030276D01*
X051097Y030274D01*
X051092Y030273D01*
X05109Y030272D01*
X051077Y030265D01*
X051066Y030258D01*
X051056Y03025D01*
X051047Y030244D01*
X05104Y030237D01*
X051035Y030232D01*
X051031Y030228D01*
X05103Y030227D01*
X051021Y030215D01*
X051013Y030203D01*
X051005Y030191D01*
X051Y03018D01*
X050995Y03017D01*
X050991Y030162D01*
X050989Y030157D01*
X050988Y030156D01*
Y030155D01*
X050984Y030138D01*
X05098Y030122D01*
X050978Y030106D01*
X050976Y030091D01*
X050976Y030078D01*
X050975Y030068D01*
Y030059D01*
X050976Y030038D01*
X050976Y030018D01*
X050979Y03D01*
X050982Y029983D01*
X050986Y029967D01*
X050989Y029952D01*
X050994Y02994D01*
X050999Y029928D01*
X051002Y029918D01*
X051007Y029909D01*
X051011Y029902D01*
X051014Y029896D01*
X051017Y029891D01*
X05102Y029888D01*
X051021Y029886D01*
X051022Y029885D01*
X051031Y029875D01*
X051041Y029866D01*
X051052Y029858D01*
X051063Y029852D01*
X051074Y029846D01*
X051086Y029841D01*
X051108Y029835D01*
X051118Y029832D01*
X051127Y02983D01*
X051136Y029829D01*
X051143Y029829D01*
X051149Y029828D01*
X051158D01*
X05117Y029829D01*
X051182Y029829D01*
X051193Y029831D01*
X051203Y029834D01*
X05121Y029836D01*
X051217Y029838D01*
X051222Y029839D01*
X051222Y02984D01*
X051234Y029845D01*
X051245Y029851D01*
X051254Y029856D01*
X051262Y029862D01*
X051269Y029866D01*
X051273Y02987D01*
X051277Y029873D01*
X051278Y029874D01*
Y029866D01*
Y029855D01*
X051277Y029845D01*
X051276Y029838D01*
X051275Y02983D01*
X051274Y029825D01*
X051273Y029821D01*
X051272Y029818D01*
Y029817D01*
X051268Y029804D01*
X051262Y029794D01*
X051259Y02979D01*
X051258Y029787D01*
X051257Y029785D01*
X051256Y029784D01*
X051251Y02978D01*
X051245Y029776D01*
X051234Y029769D01*
X051228Y029767D01*
X051223Y029766D01*
X051221Y029764D01*
X05122D01*
X05121Y029761D01*
X0512Y029759D01*
X05119Y029757D01*
X051181Y029756D01*
X051173D01*
X051166Y029755D01*
X05116D01*
X051147Y029756D01*
X051136Y029757D01*
X051132Y029758D01*
X051128D01*
X051126Y029759D01*
X051125D01*
X051113Y029761D01*
X051102Y029764D01*
X051099Y029765D01*
X051095D01*
X051093Y029766D01*
X051092D01*
X051081Y029769D01*
X051072Y029772D01*
X051068Y029773D01*
X051065Y029774D01*
X051063Y029775D01*
X051062D01*
X051052Y029779D01*
X051045Y02978D01*
X051039Y029782D01*
X051038Y029783D01*
X051022D01*
Y02967D01*
X051033Y029668D01*
X051045Y029665D01*
X051057Y029662D01*
X051068Y02966D01*
X051077Y029658D01*
X051086Y029657D01*
X05109Y029656D01*
X051092D01*
X051123Y029653D01*
X051137Y029652D01*
X05115Y029651D01*
X051161Y02965D01*
X050975D01*
D01*
X05142D01*
Y030287D01*
D02*
G37*
G36*
X054167Y030287D02*
D01*
Y029963D01*
X054166Y029981D01*
X054163Y029997D01*
X054158Y030011D01*
X054154Y030023D01*
X054149Y030032D01*
X054145Y030038D01*
X054142Y030043D01*
X054141Y030044D01*
X054131Y030055D01*
X054119Y030064D01*
X054107Y030072D01*
X054095Y030078D01*
X054084Y030084D01*
X054075Y030088D01*
X054071Y030088D01*
X054069Y030089D01*
X054068Y03009D01*
X054067D01*
X05405Y030095D01*
X054043Y030097D01*
X054035Y030099D01*
X05403Y0301D01*
X054024Y0301D01*
X054022Y030101D01*
X054021D01*
X054004Y030105D01*
X053997Y030106D01*
X053991Y030107D01*
X053986Y030109D01*
X053983D01*
X05398Y03011D01*
X053979D01*
X053967Y030113D01*
X053957Y030116D01*
X053949Y030119D01*
X053943Y030122D01*
X053939Y030125D01*
X053936Y030125D01*
X053935Y030127D01*
X053934D01*
X05393Y030131D01*
X053928Y030135D01*
X053924Y030143D01*
X053923Y030149D01*
Y03015D01*
Y030151D01*
X053924Y030158D01*
X053927Y030163D01*
X05393Y030168D01*
X053935Y030172D01*
X053938Y030175D01*
X053941Y030177D01*
X053944Y030179D01*
X053945D01*
X053953Y030183D01*
X053961Y030186D01*
X053971Y030187D01*
X053979Y030189D01*
X053985D01*
X053992Y03019D01*
X053997D01*
X054013Y030189D01*
X054022Y030188D01*
X054028Y030187D01*
X054034Y030187D01*
X054038Y030186D01*
X054041Y030185D01*
X054042D01*
X054058Y03018D01*
X054064Y030178D01*
X054071Y030175D01*
X054075Y030174D01*
X054079Y030173D01*
X054081Y030171D01*
X054082D01*
X054093Y030165D01*
X054103Y030161D01*
X054107Y030159D01*
X054109Y030157D01*
X054111Y030155D01*
X054112D01*
X054122Y030149D01*
X05413Y030144D01*
X054134Y030141D01*
X054135Y03014D01*
X054147D01*
Y030255D01*
X054136Y03026D01*
X054125Y030264D01*
X054113Y030268D01*
X054103Y030271D01*
X054094Y030273D01*
X054085Y030275D01*
X054081Y030277D01*
X054079D01*
X054064Y030281D01*
X054048Y030283D01*
X054034Y030285D01*
X05402Y030286D01*
X054009D01*
X053999Y030287D01*
X053991D01*
X053973Y030286D01*
X053956Y030285D01*
X05394Y030284D01*
X053927Y030281D01*
X053916Y030278D01*
X053908Y030276D01*
X053902Y030275D01*
X053901Y030274D01*
X0539D01*
X053886Y03027D01*
X053874Y030264D01*
X053862Y030259D01*
X053852Y030254D01*
X053844Y030249D01*
X053838Y030246D01*
X053835Y030243D01*
X053834Y030242D01*
X053825Y030234D01*
X053816Y030225D01*
X053809Y030217D01*
X053803Y03021D01*
X053799Y030203D01*
X053796Y030199D01*
X053794Y030195D01*
X053793Y030194D01*
X053788Y030184D01*
X053785Y030174D01*
X053783Y030164D01*
X053781Y030156D01*
X05378Y030149D01*
X053779Y030142D01*
Y030138D01*
Y030137D01*
X05378Y030118D01*
X053784Y030101D01*
X053788Y030087D01*
X053793Y030075D01*
X053798Y030064D01*
X053802Y030057D01*
X053805Y030053D01*
X053806Y030051D01*
X053817Y03004D01*
X05383Y03003D01*
X053843Y030022D01*
X053856Y030014D01*
X053867Y03001D01*
X053877Y030005D01*
X053881Y030004D01*
X053884Y030003D01*
X053885Y030002D01*
X053886D01*
X0539Y029999D01*
X053914Y029995D01*
X053921Y029994D01*
X053925Y029993D01*
X053928Y029992D01*
X053929D01*
X053938Y02999D01*
X053946Y029989D01*
X053953Y029988D01*
X05396Y029986D01*
X053964Y029985D01*
X053968Y029984D01*
X05397Y029983D01*
X053971D01*
X053981Y02998D01*
X05399Y029978D01*
X053997Y029976D01*
X054002Y029973D01*
X054007Y029971D01*
X05401Y02997D01*
X05401Y029968D01*
X054011D01*
X054015Y029964D01*
X054018Y029961D01*
X054022Y029953D01*
Y02995D01*
X054022Y029947D01*
Y029945D01*
Y029944D01*
X054022Y029937D01*
X054019Y029931D01*
X054015Y029926D01*
X054011Y029922D01*
X054007Y029918D01*
X054003Y029916D01*
X054Y029915D01*
X053999Y029915D01*
X053982Y02991D01*
X053973Y029908D01*
X053964Y029907D01*
X053957D01*
X053951Y029906D01*
X053947D01*
X053925Y029907D01*
X053916Y029908D01*
X053909Y02991D01*
X053901Y029911D01*
X053897Y029912D01*
X053893Y029913D01*
X053892D01*
X053874Y029918D01*
X053867Y02992D01*
X053861Y029923D01*
X053855Y029925D01*
X053851Y029927D01*
X053849Y029928D01*
X053848D01*
X053839Y029932D01*
X053832Y029936D01*
X053826Y02994D01*
X053821Y029942D01*
X053817Y029944D01*
X053814Y029946D01*
X053812Y029948D01*
X053812D01*
X053802Y029954D01*
X053795Y02996D01*
X05379Y029964D01*
X053789Y029965D01*
X053777D01*
Y029845D01*
X053788Y02984D01*
X0538Y029835D01*
X053813Y02983D01*
X053825Y029828D01*
X053835Y029824D01*
X053843Y029822D01*
X053849Y029821D01*
X053849Y02982D01*
X05385D01*
X053868Y029817D01*
X053885Y029814D01*
X0539Y029812D01*
X053915Y029811D01*
X053927Y02981D01*
X053937Y029809D01*
X053777D01*
D01*
X054167D01*
Y030287D01*
D02*
G37*
G36*
X045927Y030287D02*
Y029963D01*
X045926Y029981D01*
X045923Y029997D01*
X045919Y030011D01*
X045914Y030023D01*
X045909Y030032D01*
X045905Y030038D01*
X045902Y030043D01*
X045901Y030044D01*
X045891Y030055D01*
X045879Y030064D01*
X045867Y030072D01*
X045855Y030078D01*
X045844Y030084D01*
X045835Y030088D01*
X045832Y030088D01*
X045829Y030089D01*
X045828Y03009D01*
X045827D01*
X04581Y030095D01*
X045803Y030097D01*
X045796Y030099D01*
X04579Y0301D01*
X045784Y0301D01*
X045782Y030101D01*
X045781D01*
X045764Y030105D01*
X045758Y030106D01*
X045751Y030107D01*
X045746Y030109D01*
X045743D01*
X04574Y03011D01*
X045739D01*
X045727Y030113D01*
X045717Y030116D01*
X045709Y030119D01*
X045703Y030122D01*
X045699Y030125D01*
X045696Y030125D01*
X045695Y030127D01*
X045694D01*
X04569Y030131D01*
X045688Y030135D01*
X045685Y030143D01*
X045684Y030149D01*
Y03015D01*
Y030151D01*
X045685Y030158D01*
X045687Y030163D01*
X04569Y030168D01*
X045695Y030172D01*
X045698Y030175D01*
X045701Y030177D01*
X045704Y030179D01*
X045705D01*
X045713Y030183D01*
X045722Y030186D01*
X045731Y030187D01*
X045739Y030189D01*
X045746D01*
X045752Y03019D01*
X045757D01*
X045773Y030189D01*
X045782Y030188D01*
X045788Y030187D01*
X045794Y030187D01*
X045798Y030186D01*
X045801Y030185D01*
X045802D01*
X045818Y03018D01*
X045824Y030178D01*
X045831Y030175D01*
X045835Y030174D01*
X045839Y030173D01*
X045841Y030171D01*
X045842D01*
X045853Y030165D01*
X045863Y030161D01*
X045867Y030159D01*
X04587Y030157D01*
X045871Y030155D01*
X045872D01*
X045882Y030149D01*
X04589Y030144D01*
X045894Y030141D01*
X045895Y03014D01*
X045907D01*
Y030255D01*
X045896Y03026D01*
X045885Y030264D01*
X045873Y030268D01*
X045863Y030271D01*
X045854Y030273D01*
X045845Y030275D01*
X045841Y030277D01*
X045839D01*
X045824Y030281D01*
X045808Y030283D01*
X045794Y030285D01*
X04578Y030286D01*
X045769D01*
X045759Y030287D01*
X045751D01*
X045733Y030286D01*
X045716Y030285D01*
X0457Y030284D01*
X045687Y030281D01*
X045676Y030278D01*
X045668Y030276D01*
X045662Y030275D01*
X045661Y030274D01*
X04566D01*
X045647Y03027D01*
X045634Y030264D01*
X045622Y030259D01*
X045612Y030254D01*
X045604Y030249D01*
X045598Y030246D01*
X045595Y030243D01*
X045594Y030242D01*
X045585Y030234D01*
X045576Y030225D01*
X045569Y030217D01*
X045563Y03021D01*
X045559Y030203D01*
X045556Y030199D01*
X045554Y030195D01*
X045553Y030194D01*
X045549Y030184D01*
X045545Y030174D01*
X045543Y030164D01*
X045541Y030156D01*
X04554Y030149D01*
X045539Y030142D01*
Y030138D01*
Y030137D01*
X04554Y030118D01*
X045544Y030101D01*
X045548Y030087D01*
X045553Y030075D01*
X045558Y030064D01*
X045562Y030057D01*
X045565Y030053D01*
X045566Y030051D01*
X045577Y03004D01*
X04559Y03003D01*
X045603Y030022D01*
X045616Y030014D01*
X045627Y03001D01*
X045637Y030005D01*
X045641Y030004D01*
X045644Y030003D01*
X045645Y030002D01*
X045646D01*
X04566Y029999D01*
X045674Y029995D01*
X045681Y029994D01*
X045685Y029993D01*
X045688Y029992D01*
X045689D01*
X045698Y02999D01*
X045706Y029989D01*
X045713Y029988D01*
X04572Y029986D01*
X045724Y029985D01*
X045728Y029984D01*
X04573Y029983D01*
X045731D01*
X045741Y02998D01*
X04575Y029978D01*
X045757Y029976D01*
X045762Y029973D01*
X045767Y029971D01*
X04577Y02997D01*
X045771Y029968D01*
X045771D01*
X045775Y029964D01*
X045778Y029961D01*
X045782Y029953D01*
Y02995D01*
X045783Y029947D01*
Y029945D01*
Y029944D01*
X045782Y029937D01*
X045779Y029931D01*
X045775Y029926D01*
X045771Y029922D01*
X045767Y029918D01*
X045763Y029916D01*
X04576Y029915D01*
X045759Y029915D01*
X045742Y02991D01*
X045733Y029908D01*
X045724Y029907D01*
X045717D01*
X045711Y029906D01*
X045707D01*
X045685Y029907D01*
X045676Y029908D01*
X045669Y02991D01*
X045661Y029911D01*
X045657Y029912D01*
X045653Y029913D01*
X045652D01*
X045635Y029918D01*
X045627Y02992D01*
X045621Y029923D01*
X045615Y029925D01*
X045611Y029927D01*
X045609Y029928D01*
X045608D01*
X045599Y029932D01*
X045592Y029936D01*
X045586Y02994D01*
X045581Y029942D01*
X045577Y029944D01*
X045574Y029946D01*
X045573Y029948D01*
X045572D01*
X045562Y029954D01*
X045555Y02996D01*
X04555Y029964D01*
X045549Y029965D01*
X045537D01*
Y029845D01*
X045549Y02984D01*
X045561Y029835D01*
X045574Y02983D01*
X045585Y029828D01*
X045595Y029824D01*
X045603Y029822D01*
X045609Y029821D01*
X04561Y02982D01*
X045611D01*
X045628Y029817D01*
X045645Y029814D01*
X04566Y029812D01*
X045675Y029811D01*
X045687Y02981D01*
X045697Y029809D01*
X045537D01*
D01*
X045927D01*
Y030287D01*
D02*
G37*
G36*
X053702Y030287D02*
D01*
Y030131D01*
X053701Y030146D01*
X053699Y030159D01*
X053697Y030171D01*
X053694Y030183D01*
X05369Y030193D01*
X053688Y030202D01*
X053684Y030211D01*
X05368Y030218D01*
X053677Y030224D01*
X053674Y03023D01*
X053671Y030235D01*
X053669Y030238D01*
X053667Y030241D01*
X053665Y030242D01*
Y030243D01*
X053658Y03025D01*
X053651Y030258D01*
X053633Y030269D01*
X053615Y030276D01*
X053599Y030282D01*
X053583Y030285D01*
X053577Y030286D01*
X05357D01*
X053566Y030287D01*
X053559D01*
X053544Y030286D01*
X053531Y030285D01*
X053518Y030282D01*
X053507Y030279D01*
X053499Y030276D01*
X053492Y030273D01*
X053488Y030272D01*
X053486Y030271D01*
X053474Y030264D01*
X053462Y030257D01*
X053451Y030248D01*
X053441Y030241D01*
X053432Y030235D01*
X053425Y030229D01*
X053421Y030225D01*
X053419Y030224D01*
Y030275D01*
X053278D01*
Y029821D01*
X053702Y029821D01*
Y030287D01*
D02*
G37*
G36*
X050902Y030289D02*
D01*
Y03013D01*
X050902Y030145D01*
X050901Y030159D01*
X050898Y030171D01*
X050894Y030183D01*
X05089Y030194D01*
X050886Y030203D01*
X05088Y030212D01*
X050876Y03022D01*
X050871Y030227D01*
X050865Y030233D01*
X050861Y030238D01*
X050857Y030242D01*
X050853Y030246D01*
X050852Y030248D01*
X05085Y030249D01*
X050849D01*
X050838Y030257D01*
X050826Y030262D01*
X050814Y030268D01*
X0508Y030273D01*
X050771Y03028D01*
X050743Y030285D01*
X05073Y030285D01*
X050718Y030287D01*
X050707Y030288D01*
X050698D01*
X05069Y030289D01*
X050661D01*
X050643Y030288D01*
X050628Y030286D01*
X050613Y030285D01*
X050601Y030284D01*
X050592Y030282D01*
X050588D01*
X050585Y030281D01*
X050583D01*
X050568Y030278D01*
X050554Y030275D01*
X050542Y030273D01*
X050532Y030271D01*
X050526Y030269D01*
X05052Y030267D01*
X050518Y030266D01*
X050517D01*
Y030157D01*
X050529D01*
X050552Y030166D01*
X050563Y030171D01*
X050573Y030174D01*
X050581Y030176D01*
X050588Y030178D01*
X050592Y03018D01*
X050593D01*
X050606Y030183D01*
X050617Y030186D01*
X050627Y030187D01*
X050635Y030188D01*
X050643Y030189D01*
X050652D01*
X050671Y030188D01*
X050688Y030187D01*
X050702Y030185D01*
X050713Y030182D01*
X050722Y030179D01*
X050729Y030177D01*
X050732Y030175D01*
X050733Y030174D01*
X050742Y030168D01*
X050749Y03016D01*
X050754Y030151D01*
X050757Y030143D01*
X050759Y030135D01*
X050761Y030128D01*
Y030124D01*
Y030122D01*
Y03012D01*
X050739Y030118D01*
X050717Y030116D01*
X050698Y030114D01*
X050681Y030113D01*
X050667Y030111D01*
X050661Y03011D01*
X050656Y030109D01*
X050653D01*
X05065Y030108D01*
X050647D01*
X050628Y030105D01*
X050611Y0301D01*
X050595Y030097D01*
X050582Y030092D01*
X050571Y030088D01*
X050563Y030085D01*
X050558Y030083D01*
X050556Y030082D01*
X050544Y030075D01*
X050532Y030067D01*
X050521Y030059D01*
X050513Y030051D01*
X050507Y030044D01*
X050502Y030038D01*
X050499Y030035D01*
X050498Y030033D01*
X050492Y03002D01*
X050487Y030007D01*
X050483Y029993D01*
X050482Y02998D01*
X05048Y029969D01*
X050479Y02996D01*
Y029952D01*
X050481Y029929D01*
X050485Y029909D01*
X050491Y029891D01*
X050498Y029877D01*
X050506Y029865D01*
X050511Y029856D01*
X050516Y029851D01*
X050518Y02985D01*
Y029849D01*
X050525Y029841D01*
X050533Y029836D01*
X05055Y029826D01*
X050567Y029819D01*
X050582Y029814D01*
X050596Y029811D01*
X050603Y02981D01*
X050607D01*
X050612Y029809D01*
X050479D01*
D01*
X050902D01*
Y030289D01*
D02*
G37*
G36*
X047145Y030289D02*
D01*
Y03013D01*
X047144Y030145D01*
X047143Y030159D01*
X04714Y030171D01*
X047137Y030183D01*
X047133Y030194D01*
X047128Y030203D01*
X047123Y030212D01*
X047118Y03022D01*
X047114Y030227D01*
X047108Y030233D01*
X047103Y030238D01*
X0471Y030242D01*
X047096Y030246D01*
X047094Y030248D01*
X047092Y030249D01*
X047091D01*
X04708Y030257D01*
X047068Y030262D01*
X047056Y030268D01*
X047042Y030273D01*
X047014Y03028D01*
X046986Y030285D01*
X046973Y030285D01*
X046961Y030287D01*
X04695Y030288D01*
X046941D01*
X046932Y030289D01*
X046904D01*
X046886Y030288D01*
X04687Y030286D01*
X046856Y030285D01*
X046844Y030284D01*
X046834Y030282D01*
X046831D01*
X046828Y030281D01*
X046826D01*
X04681Y030278D01*
X046796Y030275D01*
X046784Y030273D01*
X046775Y030271D01*
X046769Y030269D01*
X046763Y030267D01*
X04676Y030266D01*
X046759D01*
Y030157D01*
X046771D01*
X046795Y030166D01*
X046806Y030171D01*
X046816Y030174D01*
X046824Y030176D01*
X046831Y030178D01*
X046834Y03018D01*
X046836D01*
X046848Y030183D01*
X046859Y030186D01*
X046869Y030187D01*
X046878Y030188D01*
X046885Y030189D01*
X046894D01*
X046914Y030188D01*
X04693Y030187D01*
X046944Y030185D01*
X046955Y030182D01*
X046965Y030179D01*
X046971Y030177D01*
X046975Y030175D01*
X046976Y030174D01*
X046985Y030168D01*
X046992Y03016D01*
X046997Y030151D01*
X047Y030143D01*
X047002Y030135D01*
X047004Y030128D01*
Y030124D01*
Y030122D01*
Y03012D01*
X046981Y030118D01*
X04696Y030116D01*
X046941Y030114D01*
X046924Y030113D01*
X04691Y030111D01*
X046904Y03011D01*
X046899Y030109D01*
X046895D01*
X046893Y030108D01*
X04689D01*
X04687Y030105D01*
X046854Y0301D01*
X046838Y030097D01*
X046825Y030092D01*
X046814Y030088D01*
X046806Y030085D01*
X046801Y030083D01*
X046799Y030082D01*
X046786Y030075D01*
X046774Y030067D01*
X046764Y030059D01*
X046756Y030051D01*
X046749Y030044D01*
X046745Y030038D01*
X046742Y030035D01*
X046741Y030033D01*
X046734Y03002D01*
X04673Y030007D01*
X046726Y029993D01*
X046724Y02998D01*
X046722Y029969D01*
X046721Y02996D01*
Y029952D01*
X046723Y029929D01*
X046728Y029909D01*
X046733Y029891D01*
X046741Y029877D01*
X046748Y029865D01*
X046754Y029856D01*
X046758Y029851D01*
X04676Y02985D01*
Y029849D01*
X046768Y029841D01*
X046776Y029836D01*
X046793Y029826D01*
X046809Y029819D01*
X046825Y029814D01*
X046839Y029811D01*
X046845Y02981D01*
X04685D01*
X046855Y029809D01*
X046721D01*
D01*
X047145D01*
Y030289D01*
D02*
G37*
G36*
X053205Y030289D02*
D01*
Y030072D01*
X053204Y030091D01*
X053203Y030109D01*
X0532Y030125D01*
X053196Y030141D01*
X053193Y030155D01*
X053188Y030169D01*
X053183Y030181D01*
X053179Y030191D01*
X053173Y030201D01*
X053169Y03021D01*
X053164Y030216D01*
X05316Y030223D01*
X053157Y030227D01*
X053154Y03023D01*
X053153Y030232D01*
X053152Y030233D01*
X053142Y030243D01*
X05313Y030251D01*
X053118Y030259D01*
X053105Y030265D01*
X053092Y030271D01*
X053079Y030275D01*
X053054Y030282D01*
X053042Y030285D01*
X053031Y030286D01*
X053021Y030287D01*
X053012Y030288D01*
X053005Y030289D01*
X052995D01*
X052974Y030288D01*
X052954Y030286D01*
X052936Y030283D01*
X052919Y030279D01*
X052902Y030273D01*
X052887Y030268D01*
X052875Y030262D01*
X052863Y030256D01*
X052851Y030249D01*
X052842Y030244D01*
X052835Y030238D01*
X052828Y030233D01*
X052823Y030229D01*
X052819Y030225D01*
X052817Y030224D01*
X052816Y030223D01*
X052805Y03021D01*
X052796Y030196D01*
X052788Y030182D01*
X05278Y030167D01*
X052774Y030152D01*
X052769Y030137D01*
X052762Y030109D01*
X052759Y030096D01*
X052757Y030084D01*
X052755Y030073D01*
X052754Y030063D01*
X052753Y030056D01*
Y030045D01*
X052754Y030025D01*
X052756Y030005D01*
X05276Y029987D01*
X052764Y02997D01*
X052769Y029954D01*
X052775Y02994D01*
X052781Y029927D01*
X052788Y029915D01*
X052793Y029904D01*
X0528Y029895D01*
X052805Y029888D01*
X052811Y029881D01*
X052814Y029877D01*
X052818Y029873D01*
X05282Y029871D01*
X052821Y02987D01*
X052835Y029859D01*
X052849Y02985D01*
X052864Y029841D01*
X052881Y029835D01*
X052897Y029829D01*
X052913Y029824D01*
X052945Y029817D01*
X05296Y029815D01*
X052974Y029813D01*
X052986Y029811D01*
X052997Y02981D01*
X053006Y029809D01*
X053205D01*
Y030289D01*
D02*
G37*
G36*
X051947D02*
D01*
Y030072D01*
X051946Y030091D01*
X051945Y030109D01*
X051942Y030125D01*
X051938Y030141D01*
X051935Y030155D01*
X05193Y030169D01*
X051925Y030181D01*
X051921Y030191D01*
X051915Y030201D01*
X051911Y03021D01*
X051906Y030216D01*
X051902Y030223D01*
X051899Y030227D01*
X051896Y03023D01*
X051895Y030232D01*
X051894Y030233D01*
X051884Y030243D01*
X051872Y030251D01*
X05186Y030259D01*
X051847Y030265D01*
X051834Y030271D01*
X051821Y030275D01*
X051796Y030282D01*
X051784Y030285D01*
X051773Y030286D01*
X051763Y030287D01*
X051754Y030288D01*
X051747Y030289D01*
X051737D01*
X051716Y030288D01*
X051696Y030286D01*
X051678Y030283D01*
X051661Y030279D01*
X051644Y030273D01*
X051629Y030268D01*
X051617Y030262D01*
X051605Y030256D01*
X051593Y030249D01*
X051584Y030244D01*
X051577Y030238D01*
X05157Y030233D01*
X051565Y030229D01*
X051561Y030225D01*
X051559Y030224D01*
X051558Y030223D01*
X051547Y03021D01*
X051538Y030196D01*
X05153Y030182D01*
X051522Y030167D01*
X051516Y030152D01*
X051511Y030137D01*
X051504Y030109D01*
X051501Y030096D01*
X051499Y030084D01*
X051497Y030073D01*
X051496Y030063D01*
X051495Y030056D01*
Y030045D01*
X051496Y030025D01*
X051498Y030005D01*
X051502Y029987D01*
X051506Y02997D01*
X051511Y029954D01*
X051517Y02994D01*
X051523Y029927D01*
X05153Y029915D01*
X051535Y029904D01*
X051542Y029895D01*
X051547Y029888D01*
X051553Y029881D01*
X051556Y029877D01*
X05156Y029873D01*
X051562Y029871D01*
X051563Y02987D01*
X051577Y029859D01*
X051591Y02985D01*
X051606Y029841D01*
X051623Y029835D01*
X051639Y029829D01*
X051655Y029824D01*
X051687Y029817D01*
X051702Y029815D01*
X051716Y029813D01*
X051728Y029811D01*
X051739Y02981D01*
X051748Y029809D01*
X051495D01*
D01*
X051947D01*
Y030289D01*
D02*
G37*
G36*
X048013D02*
D01*
Y030072D01*
X048012Y030091D01*
X048011Y030109D01*
X048008Y030125D01*
X048004Y030141D01*
X048001Y030155D01*
X047996Y030169D01*
X047991Y030181D01*
X047987Y030191D01*
X047981Y030201D01*
X047977Y03021D01*
X047972Y030216D01*
X047968Y030223D01*
X047965Y030227D01*
X047962Y03023D01*
X047961Y030232D01*
X04796Y030233D01*
X04795Y030243D01*
X047938Y030251D01*
X047926Y030259D01*
X047913Y030265D01*
X0479Y030271D01*
X047887Y030275D01*
X047862Y030282D01*
X04785Y030285D01*
X047839Y030286D01*
X047829Y030287D01*
X04782Y030288D01*
X047813Y030289D01*
X047803D01*
X047781Y030288D01*
X047762Y030286D01*
X047744Y030283D01*
X047727Y030279D01*
X04771Y030273D01*
X047695Y030268D01*
X047683Y030262D01*
X04767Y030256D01*
X047659Y030249D01*
X04765Y030244D01*
X047643Y030238D01*
X047636Y030233D01*
X047631Y030229D01*
X047627Y030225D01*
X047625Y030224D01*
X047624Y030223D01*
X047613Y03021D01*
X047604Y030196D01*
X047596Y030182D01*
X047588Y030167D01*
X047582Y030152D01*
X047577Y030137D01*
X04757Y030109D01*
X047567Y030096D01*
X047565Y030084D01*
X047563Y030073D01*
X047562Y030063D01*
X047561Y030056D01*
Y030045D01*
X047562Y030025D01*
X047564Y030005D01*
X047568Y029987D01*
X047572Y02997D01*
X047577Y029954D01*
X047583Y02994D01*
X047589Y029927D01*
X047596Y029915D01*
X047601Y029904D01*
X047608Y029895D01*
X047613Y029888D01*
X047619Y029881D01*
X047622Y029877D01*
X047626Y029873D01*
X047628Y029871D01*
X047629Y02987D01*
X047643Y029859D01*
X047657Y02985D01*
X047672Y029841D01*
X047689Y029835D01*
X047705Y029829D01*
X047721Y029824D01*
X047753Y029817D01*
X047768Y029815D01*
X047781Y029813D01*
X047794Y029811D01*
X047805Y02981D01*
X047814Y029809D01*
X047561Y029809D01*
D01*
X048013Y029809D01*
Y030289D01*
D02*
G37*
G36*
X054669Y030289D02*
D01*
Y030048D01*
X054668Y030068D01*
X054666Y030088D01*
X054663Y030106D01*
X05466Y030123D01*
X054654Y030138D01*
X05465Y030153D01*
X054644Y030166D01*
X054639Y030178D01*
X054632Y030188D01*
X054626Y030199D01*
X054622Y030206D01*
X054617Y030212D01*
X054613Y030218D01*
X05461Y030222D01*
X054608Y030224D01*
X054607Y030224D01*
X054595Y030236D01*
X054582Y030246D01*
X054568Y030254D01*
X054554Y030262D01*
X05454Y030268D01*
X054526Y030273D01*
X054512Y030278D01*
X054498Y030281D01*
X054485Y030284D01*
X054473Y030285D01*
X054463Y030287D01*
X054454Y030288D01*
X054446Y030289D01*
X054435D01*
X054415Y030288D01*
X054396Y030286D01*
X054378Y030284D01*
X054361Y030279D01*
X054345Y030274D01*
X054331Y030269D01*
X054318Y030263D01*
X054307Y030257D01*
X054296Y030251D01*
X054288Y030245D01*
X05428Y030239D01*
X054273Y030235D01*
X054269Y03023D01*
X054265Y030227D01*
X054263Y030225D01*
X054262Y030224D01*
X054251Y030212D01*
X054242Y030199D01*
X054233Y030185D01*
X054227Y03017D01*
X05422Y030155D01*
X054216Y03014D01*
X054208Y030113D01*
X054207Y030099D01*
X054205Y030087D01*
X054203Y030076D01*
X054202Y030066D01*
X054201Y030059D01*
Y030048D01*
X054202Y030027D01*
X054204Y030008D01*
X054207Y029989D01*
X05421Y029973D01*
X054215Y029957D01*
X05422Y029942D01*
X054226Y029929D01*
X054232Y029917D01*
X054237Y029907D01*
X054243Y029898D01*
X054248Y02989D01*
X054253Y029883D01*
X054256Y029878D01*
X054259Y029874D01*
X054261Y029872D01*
X054262Y029871D01*
X054274Y02986D01*
X054287Y02985D01*
X054301Y029841D01*
X054316Y029834D01*
X05433Y029828D01*
X054344Y029823D01*
X054358Y029818D01*
X054372Y029816D01*
X054385Y029813D01*
X054397Y029811D01*
X054407Y029809D01*
X054417Y029808D01*
X054425Y029807D01*
X054201D01*
D01*
X054669D01*
Y030289D01*
D02*
G37*
G36*
X049842Y030289D02*
D01*
Y030048D01*
X049841Y030068D01*
X04984Y030088D01*
X049837Y030106D01*
X049833Y030123D01*
X049828Y030138D01*
X049823Y030153D01*
X049817Y030166D01*
X049812Y030178D01*
X049805Y030188D01*
X0498Y030199D01*
X049795Y030206D01*
X049791Y030212D01*
X049786Y030218D01*
X049783Y030222D01*
X049781Y030224D01*
X04978Y030224D01*
X049768Y030236D01*
X049755Y030246D01*
X049742Y030254D01*
X049728Y030262D01*
X049714Y030268D01*
X049699Y030273D01*
X049685Y030278D01*
X049671Y030281D01*
X049658Y030284D01*
X049646Y030285D01*
X049636Y030287D01*
X049627Y030288D01*
X049619Y030289D01*
X049608D01*
X049588Y030288D01*
X04957Y030286D01*
X049551Y030284D01*
X049534Y030279D01*
X049519Y030274D01*
X049505Y030269D01*
X049492Y030263D01*
X049481Y030257D01*
X04947Y030251D01*
X049461Y030245D01*
X049453Y030239D01*
X049446Y030235D01*
X049442Y03023D01*
X049438Y030227D01*
X049436Y030225D01*
X049435Y030224D01*
X049424Y030212D01*
X049415Y030199D01*
X049407Y030185D01*
X0494Y03017D01*
X049394Y030155D01*
X049389Y03014D01*
X049382Y030113D01*
X04938Y030099D01*
X049378Y030087D01*
X049376Y030076D01*
X049375Y030066D01*
X049374Y030059D01*
Y030048D01*
X049375Y030027D01*
X049377Y030008D01*
X04938Y029989D01*
X049384Y029973D01*
X049388Y029957D01*
X049394Y029942D01*
X049399Y029929D01*
X049405Y029917D01*
X04941Y029907D01*
X049416Y029898D01*
X049422Y02989D01*
X049426Y029883D01*
X04943Y029878D01*
X049433Y029874D01*
X049434Y029872D01*
X049435Y029871D01*
X049447Y02986D01*
X04946Y02985D01*
X049474Y029841D01*
X049489Y029834D01*
X049503Y029828D01*
X049518Y029823D01*
X049532Y029818D01*
X049545Y029816D01*
X049558Y029813D01*
X04957Y029811D01*
X049581Y029809D01*
X04959Y029808D01*
X049598Y029807D01*
X049374D01*
D01*
X049842D01*
Y030289D01*
D02*
G37*
G36*
X046429Y030289D02*
D01*
Y030048D01*
X046428Y030068D01*
X046426Y030088D01*
X046424Y030106D01*
X04642Y030123D01*
X046414Y030138D01*
X04641Y030153D01*
X046404Y030166D01*
X046399Y030178D01*
X046392Y030188D01*
X046387Y030199D01*
X046382Y030206D01*
X046377Y030212D01*
X046373Y030218D01*
X04637Y030222D01*
X046368Y030224D01*
X046367Y030224D01*
X046355Y030236D01*
X046342Y030246D01*
X046328Y030254D01*
X046314Y030262D01*
X046301Y030268D01*
X046286Y030273D01*
X046272Y030278D01*
X046258Y030281D01*
X046245Y030284D01*
X046233Y030285D01*
X046223Y030287D01*
X046214Y030288D01*
X046206Y030289D01*
X046195D01*
X046175Y030288D01*
X046156Y030286D01*
X046138Y030284D01*
X046121Y030279D01*
X046105Y030274D01*
X046092Y030269D01*
X046079Y030263D01*
X046067Y030257D01*
X046056Y030251D01*
X046048Y030245D01*
X04604Y030239D01*
X046033Y030235D01*
X046029Y03023D01*
X046025Y030227D01*
X046023Y030225D01*
X046022Y030224D01*
X046011Y030212D01*
X046002Y030199D01*
X045993Y030185D01*
X045987Y03017D01*
X045981Y030155D01*
X045976Y03014D01*
X045968Y030113D01*
X045967Y030099D01*
X045965Y030087D01*
X045963Y030076D01*
X045962Y030066D01*
X045961Y030059D01*
Y030048D01*
X045962Y030027D01*
X045964Y030008D01*
X045967Y029989D01*
X04597Y029973D01*
X045975Y029957D01*
X045981Y029942D01*
X045986Y029929D01*
X045992Y029917D01*
X045997Y029907D01*
X046003Y029898D01*
X046008Y02989D01*
X046013Y029883D01*
X046017Y029878D01*
X046019Y029874D01*
X046021Y029872D01*
X046022Y029871D01*
X046034Y02986D01*
X046047Y02985D01*
X046061Y029841D01*
X046076Y029834D01*
X04609Y029828D01*
X046104Y029823D01*
X046118Y029818D01*
X046132Y029816D01*
X046145Y029813D01*
X046157Y029811D01*
X046167Y029809D01*
X046177Y029808D01*
X046185Y029807D01*
X045961D01*
D01*
X046429D01*
Y030289D01*
D02*
G37*
G36*
X05006Y03045D02*
X049918D01*
Y029821D01*
X05006D01*
Y03045D01*
D02*
G37*
G36*
X04936Y030423D02*
D01*
Y029821D01*
X049152D01*
X04936Y030423D01*
X049134D01*
X049207D01*
X049076Y030014D01*
X048944Y030423D01*
X048788D01*
X048994Y029821D01*
X048788D01*
D01*
X04936D01*
Y030423D01*
D02*
G37*
G36*
X046647Y03045D02*
X046505D01*
Y029821D01*
X046647D01*
Y03045D01*
D02*
G37*
G36*
X045475Y030423D02*
X045151D01*
Y030318D01*
X045238D01*
Y029927D01*
X045151D01*
Y029821D01*
X045475D01*
Y030423D01*
D02*
G37*
G36*
X052983Y029809D02*
X052753D01*
D01*
X052983D01*
D02*
G37*
%LPD*%
G36*
X055004Y030147D02*
X055008D01*
X05501Y030146D01*
X055013D01*
X055023Y030145D01*
X055031Y030144D01*
X055035Y030143D01*
X055037Y030142D01*
X055049D01*
Y029821D01*
X054886D01*
Y030125D01*
X054903Y030131D01*
X05491Y030134D01*
X054918Y030136D01*
X054924Y030137D01*
X054929Y030139D01*
X054932Y03014D01*
X054933D01*
X05495Y030145D01*
X054959Y030146D01*
X054966Y030147D01*
X054972Y030148D01*
X054993D01*
X055004Y030147D01*
D02*
G37*
G36*
X050454Y029925D02*
X050441D01*
X050438Y029923D01*
X050434Y029921D01*
X050426Y029918D01*
X050422Y029917D01*
X050419Y029916D01*
X050417Y029915D01*
X050416D01*
X050404Y029913D01*
X050395Y029912D01*
X050391Y029911D01*
X050376D01*
X050368Y029912D01*
X05036Y029914D01*
X050355Y029915D01*
X05035Y029916D01*
X050347Y029917D01*
X050345Y029918D01*
X050344D01*
X050334Y029926D01*
X050329Y029933D01*
X050325Y029939D01*
X050324Y02994D01*
Y029941D01*
X050321Y029952D01*
X050319Y029963D01*
X050318Y029966D01*
Y02997D01*
Y029972D01*
Y029973D01*
Y029988D01*
Y030001D01*
Y030006D01*
Y030011D01*
Y030014D01*
Y030014D01*
Y030176D01*
X050454D01*
Y029925D01*
D02*
G37*
G36*
Y029812D02*
X050355D01*
X050367Y029813D01*
X050378D01*
X050387Y029814D01*
X050395Y029815D01*
X0504D01*
X050404Y029816D01*
X050405D01*
X050423Y029818D01*
X050432Y02982D01*
X050439Y029822D01*
X050445Y029823D01*
X05045Y029824D01*
X050453Y029825D01*
X050454D01*
Y029812D01*
D02*
G37*
G36*
X047536Y029925D02*
X047523D01*
X047521Y029923D01*
X047517Y029921D01*
X047509Y029918D01*
X047505Y029917D01*
X047501Y029916D01*
X047499Y029915D01*
X047498D01*
X047486Y029913D01*
X047477Y029912D01*
X047473Y029911D01*
X047459D01*
X04745Y029912D01*
X047443Y029914D01*
X047437Y029915D01*
X047433Y029916D01*
X047429Y029917D01*
X047427Y029918D01*
X047426D01*
X047417Y029926D01*
X047411Y029933D01*
X047408Y029939D01*
X047407Y02994D01*
Y029941D01*
X047403Y029952D01*
X047401Y029963D01*
X0474Y029966D01*
Y02997D01*
Y029972D01*
Y029973D01*
Y029988D01*
Y030001D01*
Y030006D01*
Y030011D01*
Y030014D01*
Y030014D01*
Y030176D01*
X047536D01*
Y029925D01*
D02*
G37*
G36*
Y029812D02*
X047437D01*
X047449Y029813D01*
X047461D01*
X04747Y029814D01*
X047477Y029815D01*
X047483D01*
X047486Y029816D01*
X047487D01*
X047506Y029818D01*
X047514Y02982D01*
X047522Y029822D01*
X047528Y029823D01*
X047533Y029824D01*
X047535Y029825D01*
X047536D01*
Y029812D01*
D02*
G37*
G36*
X052717Y02981D02*
X052456D01*
X052478Y029811D01*
X052498Y029813D01*
X052517Y029815D01*
X052536Y029818D01*
X052553Y029823D01*
X052568Y029828D01*
X052583Y029832D01*
X052596Y029838D01*
X052607Y029842D01*
X052617Y029847D01*
X052626Y029852D01*
X052633Y029856D01*
X052639Y02986D01*
X052643Y029862D01*
X052645Y029864D01*
X052646Y029865D01*
X052659Y029876D01*
X052669Y029887D01*
X052679Y029898D01*
X052688Y02991D01*
X052694Y029922D01*
X0527Y029934D01*
X052704Y029946D01*
X052708Y029957D01*
X052712Y029968D01*
X052714Y029977D01*
X052715Y029987D01*
X052716Y029994D01*
X052717Y030001D01*
Y02981D01*
D02*
G37*
G36*
X048309Y030181D02*
X048318Y03018D01*
X048323Y030179D01*
X048325D01*
X048327Y030178D01*
X048328D01*
X048339Y030175D01*
X048349Y030173D01*
X048354Y03017D01*
X048355Y030169D01*
X048356D01*
Y029945D01*
X048344Y029937D01*
X048333Y02993D01*
X048328Y029927D01*
X048324Y029927D01*
X048322Y029925D01*
X048321D01*
X048307Y029921D01*
X048296Y029919D01*
X04829Y029918D01*
X048284D01*
X048268Y029919D01*
X048254Y029923D01*
X048242Y029927D01*
X048233Y029933D01*
X048226Y029939D01*
X048221Y029943D01*
X048218Y029947D01*
X048217Y029948D01*
X048211Y029961D01*
X048206Y029977D01*
X048202Y029992D01*
X048201Y030008D01*
X048199Y030023D01*
Y030029D01*
X048198Y030035D01*
Y030039D01*
Y030043D01*
Y030045D01*
Y030046D01*
X048199Y030068D01*
X048201Y030088D01*
X048206Y030106D01*
X048211Y03012D01*
X048214Y030131D01*
X048219Y030139D01*
X048222Y030144D01*
X048223Y030146D01*
X048234Y030158D01*
X048246Y030167D01*
X048259Y030174D01*
X048271Y030177D01*
X048282Y03018D01*
X048291Y030181D01*
X048295Y030182D01*
X048299D01*
X048309Y030181D01*
D02*
G37*
G36*
X048356Y029821D02*
X048497D01*
Y029808D01*
X04822D01*
X048236Y029809D01*
X048243Y02981D01*
X048249Y029811D01*
X048253D01*
X048257Y029812D01*
X048259Y029813D01*
X04826D01*
X048272Y029817D01*
X048283Y02982D01*
X048287Y029822D01*
X04829Y029823D01*
X048292Y029824D01*
X048293D01*
X048304Y029829D01*
X048314Y029836D01*
X048318Y029839D01*
X048322Y029841D01*
X048324Y029842D01*
X048324Y029843D01*
X048336Y029853D01*
X048347Y029861D01*
X04835Y029864D01*
X048353Y029866D01*
X048355Y029867D01*
X048356Y029868D01*
Y029821D01*
D02*
G37*
G36*
X051233Y030181D02*
X051242Y03018D01*
X051246Y030179D01*
X051248D01*
X05125Y030178D01*
X051251D01*
X051262Y030175D01*
X051271Y030173D01*
X051276Y030171D01*
X051277Y03017D01*
X051278D01*
Y029964D01*
X051266Y029956D01*
X051254Y029951D01*
X051249Y029949D01*
X051246Y029947D01*
X051244Y029946D01*
X051243D01*
X051229Y029942D01*
X051218Y02994D01*
X051212Y02994D01*
X051197D01*
X051188Y02994D01*
X051181Y029942D01*
X051175Y029943D01*
X05117Y029945D01*
X051166Y029946D01*
X051164Y029947D01*
X051163D01*
X051152Y029954D01*
X051145Y029962D01*
X051139Y029967D01*
X051138Y029969D01*
X051137Y02997D01*
X051131Y029982D01*
X051126Y029994D01*
X051125Y029999D01*
X051124Y030002D01*
X051124Y030005D01*
Y030006D01*
X051122Y030023D01*
X051121Y030031D01*
Y030038D01*
X05112Y030046D01*
Y030051D01*
Y030055D01*
Y030056D01*
X051121Y030077D01*
X051124Y030096D01*
X051128Y030112D01*
X051133Y030125D01*
X051136Y030135D01*
X051141Y030142D01*
X051144Y030147D01*
X051145Y030149D01*
X051156Y03016D01*
X051168Y030168D01*
X051181Y030174D01*
X051193Y030178D01*
X051204Y03018D01*
X051213Y030181D01*
X051217Y030182D01*
X051222D01*
X051233Y030181D01*
D02*
G37*
G36*
X05142Y02965D02*
X051178D01*
X051198Y029651D01*
X051216Y029652D01*
X051233Y029654D01*
X051247Y029656D01*
X051259Y029658D01*
X051268Y02966D01*
X051273Y029661D01*
X051274Y029662D01*
X051275D01*
X051291Y029667D01*
X051306Y029672D01*
X051319Y029679D01*
X05133Y029684D01*
X051339Y02969D01*
X051346Y029694D01*
X051349Y029697D01*
X051351Y029698D01*
X051362Y029708D01*
X051372Y029719D01*
X051381Y02973D01*
X051388Y029742D01*
X051394Y029751D01*
X051397Y029759D01*
X0514Y029765D01*
X051401Y029766D01*
Y029767D01*
X051407Y029784D01*
X051412Y029802D01*
X051415Y02982D01*
X051418Y029837D01*
X051419Y029851D01*
Y029857D01*
X05142Y029863D01*
Y02965D01*
D02*
G37*
G36*
X054167Y029809D02*
X053946D01*
X053966Y02981D01*
X053984Y029811D01*
X054Y029813D01*
X054014Y029816D01*
X054025Y029817D01*
X054034Y029819D01*
X054038Y02982D01*
X05404Y029821D01*
X054055Y029826D01*
X054068Y029831D01*
X054079Y029836D01*
X054089Y029841D01*
X054097Y029846D01*
X054104Y02985D01*
X054108Y029853D01*
X054108Y029853D01*
X054119Y029861D01*
X054127Y029869D01*
X054134Y029878D01*
X05414Y029885D01*
X054145Y029891D01*
X054148Y029897D01*
X05415Y029901D01*
X054151Y029902D01*
X054157Y029913D01*
X05416Y029924D01*
X054163Y029934D01*
X054165Y029943D01*
X054166Y029952D01*
X054167Y029957D01*
Y029809D01*
D02*
G37*
G36*
X045927Y029809D02*
X045706D01*
X045726Y02981D01*
X045744Y029811D01*
X04576Y029813D01*
X045774Y029816D01*
X045785Y029817D01*
X045794Y029819D01*
X045798Y02982D01*
X0458Y029821D01*
X045815Y029826D01*
X045828Y029831D01*
X045839Y029836D01*
X045849Y029841D01*
X045857Y029846D01*
X045864Y02985D01*
X045868Y029853D01*
X045869Y029853D01*
X045879Y029861D01*
X045887Y029869D01*
X045894Y029878D01*
X0459Y029885D01*
X045905Y029891D01*
X045908Y029897D01*
X04591Y029901D01*
X045911Y029902D01*
X045917Y029913D01*
X04592Y029924D01*
X045923Y029934D01*
X045925Y029943D01*
X045926Y029952D01*
X045927Y029957D01*
Y029809D01*
D02*
G37*
G36*
X053508Y030169D02*
X053514Y030168D01*
X053519Y030166D01*
X053523Y030165D01*
X053526Y030163D01*
X053528Y030162D01*
X053529D01*
X053538Y030156D01*
X053544Y030149D01*
X053549Y030143D01*
X05355Y030141D01*
Y03014D01*
X053552Y030135D01*
X053553Y030129D01*
X053556Y030116D01*
X053557Y03011D01*
X053558Y030105D01*
Y030101D01*
Y0301D01*
X05356Y030081D01*
Y030072D01*
X053561Y030063D01*
Y030056D01*
Y030051D01*
Y030047D01*
Y030046D01*
Y029821D01*
X053419Y029821D01*
Y030142D01*
X053433Y030151D01*
X053445Y030159D01*
X05345Y030161D01*
X053454Y030162D01*
X053455Y030163D01*
X053456D01*
X05347Y030167D01*
X053481Y030169D01*
X053486Y03017D01*
X053501D01*
X053508Y030169D01*
D02*
G37*
G36*
X050761Y02994D02*
X050749Y029929D01*
X050738Y029923D01*
X050733Y02992D01*
X050729Y029918D01*
X050727Y029916D01*
X050726D01*
X050712Y029912D01*
X0507Y029909D01*
X050695D01*
X050692Y029908D01*
X050689D01*
X050677Y029909D01*
X050667Y02991D01*
X050658Y029912D01*
X050652Y029914D01*
X050646Y029915D01*
X050642Y029917D01*
X05064Y029919D01*
X050639D01*
X050633Y029925D01*
X05063Y029931D01*
X050626Y029939D01*
X050624Y029946D01*
X050623Y029952D01*
X050622Y029958D01*
Y029963D01*
Y029964D01*
X050624Y029978D01*
X050625Y029984D01*
X050627Y029989D01*
X050629Y029992D01*
X05063Y029995D01*
X050631Y029997D01*
Y029998D01*
X050641Y030007D01*
X05065Y030014D01*
X050654Y030015D01*
X050657Y030017D01*
X050659Y030018D01*
X05066D01*
X050676Y030023D01*
X050683Y030025D01*
X05069Y030026D01*
X050695Y030027D01*
X050699D01*
X050702Y030028D01*
X050703D01*
X050712Y030029D01*
X050721Y03003D01*
X050731Y030032D01*
X050741Y030033D01*
X050748Y030034D01*
X050755D01*
X050759Y030035D01*
X050761D01*
Y02994D01*
D02*
G37*
G36*
Y029821D02*
X050902D01*
Y029809D01*
X050629D01*
X050639Y02981D01*
X050647Y029811D01*
X050654Y029812D01*
X050659Y029813D01*
X050664Y029814D01*
X050666Y029815D01*
X050667D01*
X05068Y029818D01*
X050692Y029823D01*
X050697Y029825D01*
X050701Y029827D01*
X050703Y029828D01*
X050704D01*
X050717Y029834D01*
X050726Y029841D01*
X050729Y029842D01*
X050732Y029844D01*
X050733Y029846D01*
X050734D01*
X050743Y029854D01*
X050752Y029862D01*
X050755Y029865D01*
X050758Y029867D01*
X05076Y029868D01*
X050761Y029869D01*
Y029821D01*
D02*
G37*
G36*
X047004Y02994D02*
X046992Y029929D01*
X04698Y029923D01*
X046976Y02992D01*
X046972Y029918D01*
X046969Y029916D01*
X046968D01*
X046955Y029912D01*
X046943Y029909D01*
X046938D01*
X046934Y029908D01*
X046931D01*
X046919Y029909D01*
X046909Y02991D01*
X046901Y029912D01*
X046894Y029914D01*
X046889Y029915D01*
X046884Y029917D01*
X046882Y029919D01*
X046881D01*
X046876Y029925D01*
X046872Y029931D01*
X046869Y029939D01*
X046867Y029946D01*
X046866Y029952D01*
X046865Y029958D01*
Y029963D01*
Y029964D01*
X046867Y029978D01*
X046868Y029984D01*
X046869Y029989D01*
X046871Y029992D01*
X046872Y029995D01*
X046874Y029997D01*
Y029998D01*
X046883Y030007D01*
X046893Y030014D01*
X046896Y030015D01*
X0469Y030017D01*
X046902Y030018D01*
X046903D01*
X046918Y030023D01*
X046926Y030025D01*
X046932Y030026D01*
X046938Y030027D01*
X046942D01*
X046944Y030028D01*
X046945D01*
X046955Y030029D01*
X046964Y03003D01*
X046974Y030032D01*
X046983Y030033D01*
X046991Y030034D01*
X046998D01*
X047002Y030035D01*
X047004D01*
Y02994D01*
D02*
G37*
G36*
Y029821D02*
X047145D01*
Y029809D01*
X046871D01*
X046881Y02981D01*
X04689Y029811D01*
X046896Y029812D01*
X046902Y029813D01*
X046906Y029814D01*
X046908Y029815D01*
X046909D01*
X046923Y029818D01*
X046935Y029823D01*
X04694Y029825D01*
X046943Y029827D01*
X046945Y029828D01*
X046946D01*
X046959Y029834D01*
X046968Y029841D01*
X046972Y029842D01*
X046975Y029844D01*
X046976Y029846D01*
X046977D01*
X046986Y029854D01*
X046994Y029862D01*
X046998Y029865D01*
X047001Y029867D01*
X047003Y029868D01*
X047004Y029869D01*
Y029821D01*
D02*
G37*
G36*
X052998Y030199D02*
X053011Y030196D01*
X053021Y030192D01*
X053029Y030187D01*
X053035Y030183D01*
X05304Y030179D01*
X053043Y030176D01*
X053044Y030175D01*
X05305Y030165D01*
X053055Y030154D01*
X05306Y030143D01*
X053061Y030132D01*
X053063Y030122D01*
X053064Y030113D01*
X053065Y030108D01*
Y030107D01*
Y030106D01*
X052894D01*
X052896Y030121D01*
X0529Y030135D01*
X052903Y030146D01*
X052908Y030156D01*
X052912Y030163D01*
X052916Y030169D01*
X052919Y030173D01*
X05292Y030174D01*
X052929Y030182D01*
X052939Y030188D01*
X05295Y030193D01*
X052961Y030197D01*
X05297Y030199D01*
X052977Y030199D01*
X052984D01*
X052998Y030199D01*
D02*
G37*
G36*
X053205Y029809D02*
X053031D01*
X053042Y02981D01*
X053052D01*
X05306Y029811D01*
X053068Y029812D01*
X053072D01*
X053076Y029813D01*
X053077D01*
X053096Y029816D01*
X053103Y029817D01*
X05311Y029818D01*
X053117Y029819D01*
X053122Y02982D01*
X053124Y029821D01*
X053125D01*
X053134Y029824D01*
X053142Y029826D01*
X053148Y029828D01*
X053154Y029829D01*
X053159Y029831D01*
X053161Y029832D01*
X053163Y029833D01*
X053164D01*
X053175Y029838D01*
X053186Y029842D01*
X05319Y029843D01*
X053194Y029845D01*
X053196Y029846D01*
X053196D01*
Y029964D01*
X053181D01*
X053173Y029958D01*
X053165Y029952D01*
X053159Y029949D01*
X053158Y029947D01*
X053157D01*
X053146Y02994D01*
X053135Y029936D01*
X053132Y029933D01*
X053128Y029932D01*
X053126Y02993D01*
X053125D01*
X053109Y029924D01*
X053102Y029922D01*
X053096Y029919D01*
X053089Y029917D01*
X053085Y029916D01*
X053082Y029915D01*
X053081D01*
X053063Y029913D01*
X053056Y029912D01*
X053048D01*
X053042Y029911D01*
X053033D01*
X053012Y029912D01*
X053003Y029913D01*
X052996Y029914D01*
X052989D01*
X052985Y029915D01*
X052981Y029915D01*
X05298D01*
X052963Y029921D01*
X052956Y029924D01*
X052949Y029927D01*
X052945Y029929D01*
X052941Y029932D01*
X052938Y029933D01*
X052937Y029934D01*
X052925Y029944D01*
X052916Y029955D01*
X052912Y02996D01*
X05291Y029964D01*
X052909Y029966D01*
X052908Y029967D01*
X052904Y029976D01*
X052901Y029985D01*
X052899Y029993D01*
X052898Y030002D01*
X052896Y03001D01*
Y030015D01*
X052895Y030019D01*
Y030021D01*
X053205D01*
Y029809D01*
D02*
G37*
G36*
X05174Y030199D02*
X051753Y030196D01*
X051763Y030192D01*
X051771Y030187D01*
X051777Y030183D01*
X051782Y030179D01*
X051785Y030176D01*
X051786Y030175D01*
X051792Y030165D01*
X051797Y030154D01*
X051802Y030143D01*
X051803Y030132D01*
X051805Y030122D01*
X051806Y030113D01*
X051807Y030108D01*
Y030107D01*
Y030106D01*
X051636D01*
X051638Y030121D01*
X051642Y030135D01*
X051645Y030146D01*
X05165Y030156D01*
X051654Y030163D01*
X051658Y030169D01*
X051661Y030173D01*
X051662Y030174D01*
X051671Y030182D01*
X051681Y030188D01*
X051692Y030193D01*
X051703Y030197D01*
X051712Y030199D01*
X051719Y030199D01*
X051726D01*
X05174Y030199D01*
D02*
G37*
G36*
X051947Y029809D02*
X051773D01*
X051784Y02981D01*
X051794D01*
X051802Y029811D01*
X05181Y029812D01*
X051814D01*
X051818Y029813D01*
X051819D01*
X051838Y029816D01*
X051845Y029817D01*
X051852Y029818D01*
X051859Y029819D01*
X051864Y02982D01*
X051866Y029821D01*
X051867D01*
X051876Y029824D01*
X051884Y029826D01*
X05189Y029828D01*
X051896Y029829D01*
X051901Y029831D01*
X051903Y029832D01*
X051905Y029833D01*
X051906D01*
X051917Y029838D01*
X051928Y029842D01*
X051932Y029843D01*
X051936Y029845D01*
X051938Y029846D01*
X051938D01*
Y029964D01*
X051923D01*
X051915Y029958D01*
X051907Y029952D01*
X051901Y029949D01*
X0519Y029947D01*
X051899D01*
X051888Y02994D01*
X051877Y029936D01*
X051874Y029933D01*
X05187Y029932D01*
X051868Y02993D01*
X051867D01*
X051851Y029924D01*
X051844Y029922D01*
X051838Y029919D01*
X051831Y029917D01*
X051827Y029916D01*
X051824Y029915D01*
X051823D01*
X051805Y029913D01*
X051798Y029912D01*
X05179D01*
X051784Y029911D01*
X051775D01*
X051754Y029912D01*
X051745Y029913D01*
X051738Y029914D01*
X051731D01*
X051727Y029915D01*
X051723Y029915D01*
X051722D01*
X051705Y029921D01*
X051698Y029924D01*
X051691Y029927D01*
X051687Y029929D01*
X051683Y029932D01*
X05168Y029933D01*
X051679Y029934D01*
X051667Y029944D01*
X051658Y029955D01*
X051654Y02996D01*
X051652Y029964D01*
X051651Y029966D01*
X05165Y029967D01*
X051646Y029976D01*
X051643Y029985D01*
X051641Y029993D01*
X05164Y030002D01*
X051638Y03001D01*
Y030015D01*
X051637Y030019D01*
Y030021D01*
X051947D01*
Y029809D01*
D02*
G37*
G36*
X047806Y030199D02*
X047818Y030196D01*
X047829Y030192D01*
X047837Y030187D01*
X047843Y030183D01*
X047848Y030179D01*
X047851Y030176D01*
X047852Y030175D01*
X047858Y030165D01*
X047863Y030154D01*
X047868Y030143D01*
X047869Y030132D01*
X047871Y030122D01*
X047872Y030113D01*
X047873Y030108D01*
Y030107D01*
Y030106D01*
X047702Y030106D01*
X047704Y030121D01*
X047707Y030135D01*
X047711Y030146D01*
X047716Y030156D01*
X04772Y030163D01*
X047724Y030169D01*
X047727Y030173D01*
X047728Y030174D01*
X047737Y030182D01*
X047747Y030188D01*
X047758Y030193D01*
X047769Y030197D01*
X047778Y030199D01*
X047785Y030199D01*
X047792D01*
X047806Y030199D01*
D02*
G37*
G36*
X048013Y029809D02*
X047839D01*
X04785Y02981D01*
X04786D01*
X047868Y029811D01*
X047876Y029812D01*
X04788D01*
X047884Y029813D01*
X047885D01*
X047904Y029816D01*
X047911Y029817D01*
X047918Y029818D01*
X047925Y029819D01*
X047929Y02982D01*
X047932Y029821D01*
X047933D01*
X047942Y029824D01*
X04795Y029826D01*
X047956Y029828D01*
X047962Y029829D01*
X047966Y029831D01*
X047969Y029832D01*
X047971Y029833D01*
X047972D01*
X047983Y029838D01*
X047994Y029842D01*
X047998Y029843D01*
X048002Y029845D01*
X048003Y029846D01*
X048004D01*
Y029964D01*
X047989D01*
X047981Y029958D01*
X047973Y029952D01*
X047967Y029949D01*
X047966Y029947D01*
X047965D01*
X047954Y02994D01*
X047943Y029936D01*
X04794Y029933D01*
X047936Y029932D01*
X047934Y02993D01*
X047933D01*
X047917Y029924D01*
X04791Y029922D01*
X047904Y029919D01*
X047897Y029917D01*
X047892Y029916D01*
X04789Y029915D01*
X047889D01*
X047871Y029913D01*
X047864Y029912D01*
X047856D01*
X04785Y029911D01*
X047841D01*
X04782Y029912D01*
X047811Y029913D01*
X047804Y029914D01*
X047797D01*
X047793Y029915D01*
X047789Y029915D01*
X047788D01*
X047771Y029921D01*
X047764Y029924D01*
X047757Y029927D01*
X047753Y029929D01*
X047749Y029932D01*
X047746Y029933D01*
X047745Y029934D01*
X047733Y029944D01*
X047724Y029955D01*
X04772Y02996D01*
X047718Y029964D01*
X047717Y029966D01*
X047716Y029967D01*
X047712Y029976D01*
X047709Y029985D01*
X047707Y029993D01*
X047706Y030002D01*
X047704Y03001D01*
Y030015D01*
X047703Y030019D01*
Y030021D01*
X048013Y030021D01*
Y029809D01*
D02*
G37*
G36*
X054449Y030187D02*
X05446Y030184D01*
X054465Y030183D01*
X054467Y030181D01*
X054469Y03018D01*
X05447D01*
X054476Y030177D01*
X054481Y030174D01*
X054491Y030166D01*
X054494Y030162D01*
X054497Y03016D01*
X054498Y030158D01*
X054499Y030157D01*
X054503Y03015D01*
X054506Y030143D01*
X054512Y030129D01*
X054514Y030123D01*
X054515Y030118D01*
X054516Y030114D01*
Y030113D01*
X054519Y030103D01*
X054521Y030092D01*
X054522Y030081D01*
X054523Y03007D01*
X054524Y030061D01*
Y030053D01*
Y030049D01*
Y030048D01*
Y030047D01*
Y030031D01*
X054523Y030018D01*
X054522Y030006D01*
X054521Y029997D01*
X054519Y029989D01*
X054518Y029984D01*
X054517Y02998D01*
Y029979D01*
X054512Y029963D01*
X054508Y029955D01*
X054505Y02995D01*
X054503Y029944D01*
X0545Y02994D01*
X054499Y029939D01*
X054498Y029938D01*
X05449Y029928D01*
X05448Y029921D01*
X054477Y029918D01*
X054473Y029917D01*
X054471Y029915D01*
X05447D01*
X054457Y029912D01*
X054446Y02991D01*
X054442Y029909D01*
X054436D01*
X054421Y02991D01*
X054415Y029911D01*
X054409Y029913D01*
X054404Y029914D01*
X054401Y029915D01*
X054399Y029915D01*
X054398D01*
X054387Y029922D01*
X054378Y02993D01*
X054372Y029936D01*
X054371Y029938D01*
X05437Y029939D01*
X054363Y029952D01*
X054357Y029964D01*
X054355Y029971D01*
X054354Y029976D01*
X054353Y029978D01*
Y029979D01*
X054351Y029989D01*
X054349Y030001D01*
X054348Y030012D01*
X054347Y030023D01*
X054346Y030032D01*
Y03004D01*
Y030045D01*
Y030047D01*
Y030062D01*
X054347Y030076D01*
X054348Y030087D01*
X05435Y030097D01*
X054351Y030104D01*
X054352Y030111D01*
X054353Y030114D01*
Y030115D01*
X054355Y030125D01*
X054359Y030134D01*
X054362Y030141D01*
X054366Y030148D01*
X054367Y030152D01*
X05437Y030156D01*
X054371Y030158D01*
X054372Y030159D01*
X054377Y030164D01*
X054382Y030169D01*
X054391Y030176D01*
X054394Y030178D01*
X054397Y03018D01*
X054399Y030181D01*
X0544D01*
X054412Y030185D01*
X054423Y030187D01*
X054428Y030187D01*
X054435D01*
X054449Y030187D01*
D02*
G37*
G36*
X054669Y029807D02*
X054435D01*
X054455Y029808D01*
X054474Y02981D01*
X054492Y029813D01*
X054509Y029817D01*
X054524Y029822D01*
X054539Y029828D01*
X054552Y029833D01*
X054563Y02984D01*
X054573Y029845D01*
X054582Y029851D01*
X054589Y029856D01*
X054596Y029861D01*
X054601Y029866D01*
X054604Y029868D01*
X054606Y02987D01*
X054607Y029871D01*
X054618Y029884D01*
X054627Y029897D01*
X054636Y029912D01*
X054643Y029926D01*
X054649Y02994D01*
X054654Y029955D01*
X054662Y029984D01*
X054663Y029997D01*
X054665Y030009D01*
X054667Y03002D01*
X054668Y030029D01*
X054669Y030037D01*
Y029807D01*
D02*
G37*
G36*
X049622Y030187D02*
X049633Y030184D01*
X049638Y030183D01*
X049641Y030181D01*
X049643Y03018D01*
X049644D01*
X049649Y030177D01*
X049655Y030174D01*
X049664Y030166D01*
X049668Y030162D01*
X04967Y03016D01*
X049671Y030158D01*
X049672Y030157D01*
X049676Y03015D01*
X04968Y030143D01*
X049685Y030129D01*
X049687Y030123D01*
X049689Y030118D01*
X04969Y030114D01*
Y030113D01*
X049693Y030103D01*
X049694Y030092D01*
X049695Y030081D01*
X049696Y03007D01*
X049697Y030061D01*
Y030053D01*
Y030049D01*
Y030048D01*
Y030047D01*
Y030031D01*
X049696Y030018D01*
X049695Y030006D01*
X049694Y029997D01*
X049693Y029989D01*
X049692Y029984D01*
X049691Y02998D01*
Y029979D01*
X049685Y029963D01*
X049681Y029955D01*
X049679Y02995D01*
X049676Y029944D01*
X049673Y02994D01*
X049672Y029939D01*
X049671Y029938D01*
X049663Y029928D01*
X049654Y029921D01*
X04965Y029918D01*
X049646Y029917D01*
X049644Y029915D01*
X049644D01*
X049631Y029912D01*
X049619Y02991D01*
X049616Y029909D01*
X049609D01*
X049594Y02991D01*
X049588Y029911D01*
X049582Y029913D01*
X049578Y029914D01*
X049574Y029915D01*
X049572Y029915D01*
X049571D01*
X04956Y029922D01*
X049551Y02993D01*
X049545Y029936D01*
X049545Y029938D01*
X049544Y029939D01*
X049536Y029952D01*
X049531Y029964D01*
X049529Y029971D01*
X049527Y029976D01*
X049526Y029978D01*
Y029979D01*
X049524Y029989D01*
X049522Y030001D01*
X049521Y030012D01*
X04952Y030023D01*
X04952Y030032D01*
Y03004D01*
Y030045D01*
Y030047D01*
Y030062D01*
X04952Y030076D01*
X049521Y030087D01*
X049523Y030097D01*
X049524Y030104D01*
X049525Y030111D01*
X049526Y030114D01*
Y030115D01*
X049529Y030125D01*
X049533Y030134D01*
X049535Y030141D01*
X049539Y030148D01*
X049541Y030152D01*
X049544Y030156D01*
X049545Y030158D01*
X049545Y030159D01*
X04955Y030164D01*
X049556Y030169D01*
X049564Y030176D01*
X049568Y030178D01*
X04957Y03018D01*
X049572Y030181D01*
X049573D01*
X049585Y030185D01*
X049596Y030187D01*
X049601Y030187D01*
X049608D01*
X049622Y030187D01*
D02*
G37*
G36*
X049842Y029807D02*
X049608D01*
X049629Y029808D01*
X049647Y02981D01*
X049666Y029813D01*
X049682Y029817D01*
X049697Y029822D01*
X049712Y029828D01*
X049725Y029833D01*
X049736Y02984D01*
X049746Y029845D01*
X049755Y029851D01*
X049763Y029856D01*
X049769Y029861D01*
X049774Y029866D01*
X049778Y029868D01*
X049779Y02987D01*
X04978Y029871D01*
X049792Y029884D01*
X049801Y029897D01*
X049809Y029912D01*
X049816Y029926D01*
X049822Y02994D01*
X049828Y029955D01*
X049835Y029984D01*
X049837Y029997D01*
X049839Y030009D01*
X049841Y03002D01*
X049841Y030029D01*
X049842Y030037D01*
Y029807D01*
D02*
G37*
G36*
X046209Y030187D02*
X04622Y030184D01*
X046225Y030183D01*
X046227Y030181D01*
X046229Y03018D01*
X04623D01*
X046236Y030177D01*
X046241Y030174D01*
X046251Y030166D01*
X046254Y030162D01*
X046257Y03016D01*
X046258Y030158D01*
X046259Y030157D01*
X046263Y03015D01*
X046266Y030143D01*
X046272Y030129D01*
X046274Y030123D01*
X046276Y030118D01*
X046277Y030114D01*
Y030113D01*
X046279Y030103D01*
X046281Y030092D01*
X046282Y030081D01*
X046283Y03007D01*
X046284Y030061D01*
Y030053D01*
Y030049D01*
Y030048D01*
Y030047D01*
Y030031D01*
X046283Y030018D01*
X046282Y030006D01*
X046281Y029997D01*
X046279Y029989D01*
X046278Y029984D01*
X046277Y02998D01*
Y029979D01*
X046272Y029963D01*
X046268Y029955D01*
X046265Y02995D01*
X046263Y029944D01*
X04626Y02994D01*
X046259Y029939D01*
X046258Y029938D01*
X04625Y029928D01*
X04624Y029921D01*
X046237Y029918D01*
X046233Y029917D01*
X046231Y029915D01*
X04623D01*
X046217Y029912D01*
X046206Y02991D01*
X046203Y029909D01*
X046196D01*
X046181Y02991D01*
X046175Y029911D01*
X046169Y029913D01*
X046165Y029914D01*
X046161Y029915D01*
X046159Y029915D01*
X046158D01*
X046147Y029922D01*
X046138Y02993D01*
X046132Y029936D01*
X046131Y029938D01*
X04613Y029939D01*
X046123Y029952D01*
X046117Y029964D01*
X046116Y029971D01*
X046114Y029976D01*
X046113Y029978D01*
Y029979D01*
X046111Y029989D01*
X046109Y030001D01*
X046108Y030012D01*
X046107Y030023D01*
X046106Y030032D01*
Y03004D01*
Y030045D01*
Y030047D01*
Y030062D01*
X046107Y030076D01*
X046108Y030087D01*
X04611Y030097D01*
X046111Y030104D01*
X046112Y030111D01*
X046113Y030114D01*
Y030115D01*
X046116Y030125D01*
X046119Y030134D01*
X046122Y030141D01*
X046126Y030148D01*
X046128Y030152D01*
X04613Y030156D01*
X046131Y030158D01*
X046132Y030159D01*
X046137Y030164D01*
X046142Y030169D01*
X046151Y030176D01*
X046154Y030178D01*
X046157Y03018D01*
X046159Y030181D01*
X04616D01*
X046172Y030185D01*
X046183Y030187D01*
X046188Y030187D01*
X046195D01*
X046209Y030187D01*
D02*
G37*
G36*
X046429Y029807D02*
X046195D01*
X046215Y029808D01*
X046234Y02981D01*
X046252Y029813D01*
X046269Y029817D01*
X046284Y029822D01*
X046299Y029828D01*
X046312Y029833D01*
X046323Y02984D01*
X046333Y029845D01*
X046342Y029851D01*
X04635Y029856D01*
X046356Y029861D01*
X046361Y029866D01*
X046364Y029868D01*
X046366Y02987D01*
X046367Y029871D01*
X046378Y029884D01*
X046388Y029897D01*
X046396Y029912D01*
X046403Y029926D01*
X046409Y02994D01*
X046414Y029955D01*
X046422Y029984D01*
X046424Y029997D01*
X046425Y030009D01*
X046427Y03002D01*
X046428Y030029D01*
X046429Y030037D01*
Y029807D01*
D02*
G37*
G36*
X045475Y029927D02*
X045389D01*
Y030318D01*
X045475D01*
Y029927D01*
D02*
G37*
%LPC*%
G36*
X065014Y024012D02*
X064736D01*
D01*
X064718D01*
X064736D01*
Y023786D01*
X064744D01*
X064756Y023788D01*
X064762Y023789D01*
X064768Y023791D01*
X064773Y023792D01*
X064777Y023793D01*
X06478Y023793D01*
X06478D01*
X064796Y023796D01*
X064803Y023796D01*
X06481D01*
X064816Y023797D01*
X064824D01*
X064835Y023796D01*
X06484Y023796D01*
X064846D01*
X06485Y023795D01*
X064854Y023794D01*
X064856Y023794D01*
X064857D01*
X064864Y023793D01*
X064871Y023791D01*
X064876Y023789D01*
X064881Y023787D01*
X064885Y023785D01*
X064888Y023783D01*
X06489Y023783D01*
X06489Y023782D01*
X064897Y023777D01*
X064902Y023771D01*
X064903Y023769D01*
X064905Y023767D01*
X064906Y023766D01*
Y023765D01*
X06491Y023757D01*
X064912Y02375D01*
X064912Y023746D01*
Y023744D01*
Y023742D01*
Y023741D01*
Y023735D01*
X064912Y023729D01*
X064911Y023724D01*
X06491Y023721D01*
X064909Y023718D01*
X064908Y023715D01*
X064907Y023714D01*
Y023713D01*
X064903Y023706D01*
X064899Y023701D01*
X064895Y023697D01*
X064895Y023696D01*
X064894Y023695D01*
X06489Y023692D01*
X064886Y023689D01*
X064876Y023684D01*
X064871Y023683D01*
X064868Y023682D01*
X064866Y023681D01*
X064865D01*
X064852Y023679D01*
X064847Y023678D01*
X064842D01*
X064837Y023677D01*
X064831D01*
X064819Y023678D01*
X064813Y023679D01*
X064808Y023679D01*
X064804Y02368D01*
X064801Y02368D01*
X064799Y023681D01*
X064798D01*
X064788Y023684D01*
X064783Y023685D01*
X064778Y023687D01*
X064775Y023689D01*
X064772Y02369D01*
X06477Y02369D01*
X064769D01*
X064764Y023693D01*
X064759Y023695D01*
X064754Y023697D01*
X064751Y023698D01*
X064748Y0237D01*
X064746Y023701D01*
X064745Y023702D01*
X064744D01*
X064738Y023705D01*
X064732Y023709D01*
X064728Y023711D01*
X064728Y023712D01*
X064718D01*
Y023624D01*
X064726Y023621D01*
X064736Y023618D01*
X064744Y023615D01*
X064753Y023612D01*
X06476Y023611D01*
X064766Y023609D01*
X064769Y023609D01*
X06477D01*
X064771Y023608D01*
X064772D01*
X064784Y023606D01*
X064798Y023604D01*
X06481Y023602D01*
X064822Y023601D01*
X064833Y023601D01*
X064838D01*
X064842Y0236D01*
X064718D01*
X064849D01*
X064864Y023601D01*
X064878Y023602D01*
X06489Y023603D01*
X0649Y023606D01*
X064909Y023607D01*
X064915Y023609D01*
X064917Y023609D01*
X064919Y02361D01*
X06492Y023611D01*
X06492D01*
X064931Y023615D01*
X064941Y02362D01*
X064949Y023625D01*
X064956Y023629D01*
X064962Y023633D01*
X064967Y023637D01*
X064969Y02364D01*
X06497Y02364D01*
X064978Y023648D01*
X064985Y023656D01*
X06499Y023663D01*
X064994Y023671D01*
X064998Y023677D01*
X065001Y023682D01*
X065002Y023685D01*
X065003Y023686D01*
X065006Y023697D01*
X065009Y023706D01*
X065011Y023716D01*
X065012Y023726D01*
X065013Y023734D01*
X065014Y023739D01*
Y0236D01*
D01*
Y024012D01*
D02*
G37*
G36*
X064634Y023959D02*
D01*
Y023821D01*
X064496D01*
Y023959D01*
X064286D01*
D01*
X064424D01*
Y023821D01*
X064286D01*
Y023751D01*
X064424D01*
Y023613D01*
X064634D01*
Y023959D01*
D02*
G37*
%LPD*%
G36*
X065014Y023745D02*
X065013Y023758D01*
X065012Y02377D01*
X065009Y02378D01*
X065007Y023789D01*
X065005Y023796D01*
X065003Y023801D01*
X065001Y023804D01*
X065001Y023806D01*
X064996Y023815D01*
X06499Y023822D01*
X064983Y02383D01*
X064978Y023835D01*
X064973Y02384D01*
X064968Y023843D01*
X064966Y023845D01*
X064965Y023846D01*
X064957Y02385D01*
X06495Y023854D01*
X064943Y023857D01*
X064936Y023859D01*
X06493Y023861D01*
X064926Y023862D01*
X064923Y023864D01*
X064921D01*
X064903Y023867D01*
X064894Y023869D01*
X064886Y023869D01*
X064878Y02387D01*
X064856D01*
X064854Y023869D01*
X06485D01*
X064843Y023869D01*
X064837D01*
X064834Y023868D01*
X064831D01*
Y023935D01*
X065003D01*
Y024012D01*
X065014D01*
Y023745D01*
D02*
G37*
G36*
X064634Y023613D02*
X064496D01*
Y023751D01*
X064634D01*
Y023613D01*
D02*
G37*
%LPC*%
G36*
X056703Y030341D02*
D01*
Y030131D01*
X056702Y030146D01*
X056702Y03016D01*
X0567Y030174D01*
X056697Y030186D01*
X056694Y030198D01*
X056691Y030209D01*
X056687Y030219D01*
X056683Y030228D01*
X056679Y030236D01*
X056675Y030244D01*
X056673Y03025D01*
X05667Y030255D01*
X056667Y03026D01*
X056665Y030263D01*
X056664Y030264D01*
X056663Y030265D01*
X056655Y030274D01*
X056646Y030283D01*
X056627Y030299D01*
X056606Y030312D01*
X056587Y030322D01*
X056577Y030327D01*
X056568Y03033D01*
X05656Y030333D01*
X056554Y030336D01*
X056548Y030338D01*
X056543Y03034D01*
X056541Y030341D01*
X05654D01*
X056509Y030241D01*
X056529Y030236D01*
X056546Y030229D01*
X05656Y030223D01*
X056571Y030215D01*
X05658Y030209D01*
X056586Y030204D01*
X056589Y030201D01*
X056591Y030199D01*
X0566Y030188D01*
X056605Y030176D01*
X05661Y030164D01*
X056613Y030154D01*
X056615Y030145D01*
X056616Y030136D01*
X056616Y030134D01*
Y03013D01*
X056616Y03012D01*
X056615Y03011D01*
X05661Y030093D01*
X056604Y030077D01*
X056596Y030065D01*
X056589Y030055D01*
X056583Y030048D01*
X05658Y030045D01*
X056578Y030042D01*
X056577Y030042D01*
X056576Y030041D01*
X056568Y030035D01*
X056559Y03003D01*
X056549Y030025D01*
X056538Y030021D01*
X056515Y030015D01*
X056492Y030011D01*
X056482Y03001D01*
X056472Y030009D01*
X056463Y030007D01*
X056455D01*
X056449Y030007D01*
X056444D01*
X05644D01*
X056439D01*
X056422Y030007D01*
X056407Y030008D01*
X056393Y03001D01*
X05638Y030012D01*
X056369Y030015D01*
X056358Y030018D01*
X056348Y030021D01*
X056339Y030024D01*
X056332Y030027D01*
X056326Y03003D01*
X05632Y030033D01*
X056316Y030036D01*
X056312Y030038D01*
X05631Y03004D01*
X056309Y030041D01*
X056308D01*
X056301Y030048D01*
X056294Y030055D01*
X056289Y030062D01*
X056285Y03007D01*
X056277Y030085D01*
X056272Y0301D01*
X056269Y030112D01*
X056269Y030118D01*
X056268Y030123D01*
X056267Y030127D01*
Y030132D01*
X056268Y030147D01*
X056271Y03016D01*
X056274Y030171D01*
X056279Y030182D01*
X056283Y03019D01*
X056287Y030196D01*
X05629Y030199D01*
X056291Y030201D01*
X056299Y03021D01*
X056309Y030219D01*
X05632Y030225D01*
X05633Y030231D01*
X056339Y030234D01*
X056345Y030236D01*
X056348Y030238D01*
X05635D01*
X056351Y030239D01*
X056352D01*
X056328Y030339D01*
X056307Y030332D01*
X056288Y030324D01*
X056272Y030315D01*
X056259Y030307D01*
X056249Y030299D01*
X056245Y030296D01*
X056241Y030293D01*
X056239Y030291D01*
X056237Y030289D01*
X056235Y030288D01*
Y030287D01*
X056226Y030276D01*
X056217Y030264D01*
X05621Y030252D01*
X056204Y03024D01*
X056198Y030227D01*
X056194Y030215D01*
X05619Y030202D01*
X056187Y03019D01*
X056185Y03018D01*
X056183Y030169D01*
X056182Y030161D01*
X056181Y030153D01*
X05618Y030146D01*
Y030137D01*
X056181Y030118D01*
X056183Y030099D01*
X056187Y030083D01*
X056191Y030066D01*
X056196Y030051D01*
X056202Y030037D01*
X056209Y030024D01*
X056215Y030013D01*
X056222Y030002D01*
X056229Y029993D01*
X056234Y029985D01*
X05624Y029978D01*
X056244Y029973D01*
X056248Y02997D01*
X05625Y029967D01*
X05625Y029967D01*
X056264Y029955D01*
X056279Y029945D01*
X056294Y029937D01*
X05631Y029929D01*
X056327Y029923D01*
X056343Y029918D01*
X056359Y029913D01*
X056374Y02991D01*
X05639Y029907D01*
X056403Y029905D01*
X056415Y029904D01*
X056425Y029902D01*
X056434D01*
X056441Y029902D01*
X05618D01*
D01*
X056447D01*
X056468Y029902D01*
X056489Y029905D01*
X056509Y029908D01*
X056526Y029912D01*
X056543Y029916D01*
X056559Y029922D01*
X056573Y029928D01*
X056585Y029934D01*
X056597Y02994D01*
X056607Y029945D01*
X056615Y029951D01*
X056622Y029956D01*
X056627Y02996D01*
X056632Y029963D01*
X056634Y029965D01*
X056635Y029966D01*
X056647Y029978D01*
X056657Y029991D01*
X056667Y030005D01*
X056674Y030019D01*
X056681Y030033D01*
X056686Y030047D01*
X056691Y03006D01*
X056694Y030072D01*
X056697Y030085D01*
X0567Y030096D01*
X056701Y030106D01*
X056702Y030114D01*
X056702Y030121D01*
X056703Y030126D01*
Y029902D01*
D01*
D01*
Y030341D01*
D02*
G37*
G36*
X056694Y029865D02*
D01*
X05619Y029663D01*
Y029555D01*
X056694Y029359D01*
X05619D01*
D01*
X056694D01*
Y029539D01*
Y029467D01*
X05658Y029509D01*
Y029711D01*
X056694Y029755D01*
Y029865D01*
D02*
G37*
%LPD*%
G36*
X056495Y029539D02*
X056307Y029608D01*
X056495Y029679D01*
Y029539D01*
D02*
G37*
%LPC*%
G36*
X068496Y029221D02*
X068492D01*
X068482Y029221D01*
X068473Y02922D01*
X068466Y029218D01*
X068459Y029217D01*
X068454Y029215D01*
X06845Y029213D01*
X068448Y029212D01*
X068447Y029212D01*
X06844Y029208D01*
X068434Y029203D01*
X068429Y029199D01*
X068424Y029195D01*
X068421Y029191D01*
X068418Y029188D01*
X068417Y029186D01*
X068417Y029185D01*
X068413Y029179D01*
X068411Y029174D01*
X068408Y029169D01*
X068406Y029164D01*
X068405Y029159D01*
X068404Y029156D01*
X068403Y029154D01*
Y029153D01*
X0684Y029139D01*
X068399Y029132D01*
X068399Y029126D01*
X068399Y02912D01*
Y029104D01*
X068399Y029102D01*
Y029099D01*
X068399Y029094D01*
Y029089D01*
X0684Y029087D01*
Y029085D01*
X06835D01*
Y029213D01*
X068293D01*
Y029221D01*
Y029014D01*
X068461D01*
Y02902D01*
X06846Y029029D01*
X068459Y029034D01*
X068458Y029038D01*
X068457Y029042D01*
X068456Y029044D01*
X068456Y029047D01*
Y029047D01*
X068454Y029059D01*
X068454Y029064D01*
Y029069D01*
X068453Y029074D01*
Y02908D01*
X068454Y029088D01*
X068454Y029092D01*
Y029096D01*
X068454Y029099D01*
X068455Y029102D01*
X068455Y029104D01*
Y029105D01*
X068456Y02911D01*
X068458Y029115D01*
X068459Y029119D01*
X06846Y029123D01*
X068462Y029125D01*
X068463Y029128D01*
X068464Y029129D01*
X068464Y029129D01*
X068468Y029135D01*
X068472Y029138D01*
X068474Y029139D01*
X068475Y02914D01*
X068476Y029141D01*
X068477D01*
X068483Y029144D01*
X068488Y029145D01*
X068491Y029146D01*
X068493D01*
X068494D01*
X068495D01*
X068499D01*
X068503Y029145D01*
X068507Y029145D01*
X06851Y029144D01*
X068512Y029143D01*
X068514Y029142D01*
X068515Y029142D01*
X068515D01*
X068521Y029139D01*
X068525Y029136D01*
X068528Y029133D01*
X068528Y029133D01*
X068529Y029132D01*
X068532Y029129D01*
X068534Y029126D01*
X068537Y029118D01*
X068538Y029115D01*
X068539Y029113D01*
X068539Y029111D01*
Y029111D01*
X068541Y029101D01*
X068542Y029097D01*
Y029093D01*
X068542Y02909D01*
Y029085D01*
X068542Y029076D01*
X068541Y029072D01*
X068541Y029068D01*
X06854Y029065D01*
X06854Y029062D01*
X068539Y029061D01*
Y029061D01*
X068537Y029053D01*
X068536Y029049D01*
X068535Y029046D01*
X068534Y029043D01*
X068533Y029041D01*
X068533Y029039D01*
Y029039D01*
X068531Y029035D01*
X068529Y029031D01*
X068528Y029028D01*
X068527Y029026D01*
X068526Y029023D01*
X068525Y029022D01*
X068524Y029021D01*
Y02902D01*
X068521Y029015D01*
X068519Y029011D01*
X068517Y029008D01*
X068516Y029008D01*
Y029001D01*
X068293D01*
D01*
X0686D01*
Y029099D01*
X0686Y02911D01*
X068599Y02912D01*
X068598Y029129D01*
X068596Y029137D01*
X068594Y029143D01*
X068594Y029148D01*
X068593Y029149D01*
X068593Y029151D01*
X068592Y029151D01*
Y029152D01*
X068589Y02916D01*
X068585Y029167D01*
X068582Y029173D01*
X068578Y029178D01*
X068575Y029183D01*
X068572Y029186D01*
X06857Y029188D01*
X06857Y029189D01*
X068564Y029195D01*
X068558Y0292D01*
X068553Y029204D01*
X068547Y029207D01*
X068543Y02921D01*
X068539Y029212D01*
X068537Y029213D01*
X068536Y029213D01*
X068528Y029216D01*
X068521Y029218D01*
X068513Y02922D01*
X068506Y02922D01*
X0685Y029221D01*
X068496Y029221D01*
D02*
G37*
G36*
X06859Y028938D02*
D01*
Y028835D01*
X068487D01*
Y028938D01*
X068435D01*
Y028835D01*
X068332D01*
Y028782D01*
X068435D01*
Y028679D01*
X068332D01*
D01*
X06859D01*
Y028938D01*
D02*
G37*
%LPD*%
G36*
X0686Y029001D02*
X068582D01*
X068584Y029007D01*
X068587Y029014D01*
X068589Y02902D01*
X068591Y029027D01*
X068592Y029032D01*
X068593Y029037D01*
X068594Y029038D01*
Y02904D01*
X068594Y02904D01*
Y029041D01*
X068596Y02905D01*
X068597Y02906D01*
X068598Y029069D01*
X068599Y029079D01*
X0686Y029087D01*
Y02909D01*
X0686Y029093D01*
Y029001D01*
D02*
G37*
G36*
X06859Y028679D02*
X068487D01*
Y028782D01*
X06859D01*
Y028679D01*
D02*
G37*
%LPC*%
G36*
X0444Y028974D02*
Y028767D01*
X044193D01*
Y028974D01*
X0444D01*
X044087D01*
Y028767D01*
X043881D01*
Y028974D01*
Y028456D01*
D01*
Y028663D01*
X044087D01*
Y028456D01*
X043881D01*
X044193D01*
Y028663D01*
X0444D01*
Y028974D01*
D02*
G37*
G36*
X043741Y029052D02*
X043603D01*
Y028707D01*
X04341Y029052D01*
X043225D01*
Y02845D01*
X043363D01*
Y028869D01*
X043596Y02845D01*
X043741D01*
Y029052D01*
D02*
G37*
G36*
X043125D02*
X0428D01*
Y02845D01*
X043125D01*
Y028555D01*
X043038D01*
Y028947D01*
X043125D01*
Y029052D01*
D02*
G37*
%LPD*%
G36*
X042887Y028555D02*
X0428D01*
Y028947D01*
X042887D01*
Y028555D01*
D02*
G37*
%LPC*%
G36*
X065226Y026018D02*
X065089D01*
X065073Y026018D01*
X065057Y026016D01*
X065042Y026013D01*
X065029Y02601D01*
X065016Y026005D01*
X065004Y026D01*
X064994Y025996D01*
X064984Y02599D01*
X064975Y025984D01*
X064968Y025979D01*
X064961Y025975D01*
X064956Y02597D01*
X064951Y025967D01*
X064948Y025964D01*
X064946Y025962D01*
X064946Y025961D01*
X064937Y02595D01*
X064929Y025939D01*
X064921Y025926D01*
X064915Y025914D01*
X06491Y025901D01*
X064906Y025888D01*
X064902Y025875D01*
X064899Y025864D01*
X064897Y025853D01*
X064896Y025842D01*
X064894Y025833D01*
X064893Y025825D01*
Y025818D01*
X064893Y025813D01*
Y026018D01*
X064893D01*
X064893D01*
Y0256D01*
Y025809D01*
X064893Y025791D01*
X064895Y025773D01*
X064898Y025757D01*
X064901Y025742D01*
X064905Y025729D01*
X064909Y025716D01*
X064914Y025705D01*
X064919Y025694D01*
X064924Y025685D01*
X064929Y025677D01*
X064934Y02567D01*
X064938Y025664D01*
X064941Y02566D01*
X064943Y025657D01*
X064945Y025655D01*
X064946Y025654D01*
X064956Y025645D01*
X064968Y025637D01*
X064979Y025629D01*
X064991Y025623D01*
X065003Y025618D01*
X065015Y025614D01*
X065026Y02561D01*
X065037Y025607D01*
X065048Y025604D01*
X065058Y025603D01*
X065067Y025602D01*
X065075Y025601D01*
X065081D01*
X065086Y0256D01*
X0651D01*
X065109Y025601D01*
X065117Y025601D01*
X065123Y025602D01*
X065128D01*
X065132Y025602D01*
X065134Y025603D01*
X065135D01*
X065147Y025606D01*
X065153Y025607D01*
X065159Y025608D01*
X065164Y025609D01*
X065167Y025611D01*
X06517Y025611D01*
X065171D01*
X065182Y025615D01*
X065187Y025617D01*
X065191Y025619D01*
X065195Y02562D01*
X065198Y025621D01*
X0652Y025622D01*
X0652D01*
X065211Y025627D01*
X065215Y025629D01*
X065219Y025631D01*
X065222Y025632D01*
X065224Y025633D01*
X065226Y025634D01*
X065226D01*
Y025602D01*
Y025825D01*
Y025729D01*
X065217D01*
X065211Y025724D01*
X065205Y025719D01*
X065202Y025717D01*
X0652Y025715D01*
X065199Y025715D01*
X065198Y025714D01*
X06519Y025708D01*
X065183Y025702D01*
X06518Y0257D01*
X065177Y025698D01*
X065176Y025698D01*
X065175Y025697D01*
X065165Y025692D01*
X065155Y025687D01*
X065151Y025685D01*
X065148Y025684D01*
X065145Y025683D01*
X065145Y025682D01*
X065131Y025679D01*
X065125Y025677D01*
X065119Y025677D01*
X065114D01*
X06511Y025676D01*
X065107D01*
X065093Y025677D01*
X065086Y025678D01*
X06508Y025679D01*
X065075Y02568D01*
X065072Y025681D01*
X065068Y025682D01*
X065068D01*
X065061Y025685D01*
X065054Y025689D01*
X065049Y025692D01*
X065043Y025696D01*
X065039Y0257D01*
X065036Y025702D01*
X065034Y025704D01*
X065033Y025705D01*
X065028Y025711D01*
X065023Y025718D01*
X065018Y025724D01*
X065014Y025731D01*
X065011Y025737D01*
X065009Y025741D01*
X065008Y025744D01*
X065007Y025745D01*
X065004Y025755D01*
X065002Y025766D01*
X065Y025776D01*
X064998Y025786D01*
X064998Y025795D01*
X064997Y025802D01*
Y025804D01*
Y025806D01*
Y025807D01*
Y025808D01*
X064998Y025821D01*
X064998Y025833D01*
X065Y025843D01*
X065002Y025853D01*
X065003Y02586D01*
X065005Y025866D01*
X065006Y025869D01*
X065007Y02587D01*
X06501Y025879D01*
X065015Y025887D01*
X065018Y025895D01*
X065023Y0259D01*
X065026Y025905D01*
X065029Y025908D01*
X065031Y025911D01*
X065031Y025911D01*
X065037Y025917D01*
X065044Y025922D01*
X06505Y025926D01*
X065055Y025929D01*
X065059Y025932D01*
X065063Y025934D01*
X065065Y025935D01*
X065066D01*
X065073Y025937D01*
X06508Y025939D01*
X065086Y02594D01*
X065093Y025942D01*
X065098D01*
X065102Y025942D01*
X065106D01*
X065119Y025941D01*
X065125Y02594D01*
X06513Y025939D01*
X065135Y025938D01*
X065138Y025937D01*
X06514Y025936D01*
X065141D01*
X065153Y025931D01*
X065158Y025929D01*
X065163Y025926D01*
X065167Y025924D01*
X06517Y025923D01*
X065172Y025922D01*
X065172Y025921D01*
X065182Y025915D01*
X065186Y025912D01*
X06519Y02591D01*
X065193Y025907D01*
X065195Y025906D01*
X065197Y025905D01*
X065197Y025904D01*
X065205Y025898D01*
X065211Y025893D01*
X065215Y02589D01*
X065215Y025889D01*
X065226D01*
Y025984D01*
X065218Y025989D01*
X065209Y025992D01*
X065205Y025994D01*
X065202Y025996D01*
X0652Y025997D01*
X0652D01*
X065189Y026001D01*
X065183Y026004D01*
X065179Y026005D01*
X065175Y026006D01*
X065172Y026007D01*
X065171Y026008D01*
X06517D01*
X065156Y026011D01*
X06515Y026012D01*
X065145Y026013D01*
X06514Y026014D01*
X065136Y026015D01*
X065133Y026015D01*
X065133D01*
X065118Y026017D01*
X065111Y026018D01*
X065104D01*
X065098Y026018D01*
X065226D01*
D02*
G37*
G36*
X064637Y026011D02*
X064496D01*
Y025608D01*
X064638D01*
X064652Y025609D01*
X064665Y02561D01*
X064677Y025611D01*
X064687Y025612D01*
X064691Y025612D01*
X064695Y025613D01*
X064697D01*
X064699Y025614D01*
X064701D01*
X064714Y025616D01*
X064727Y02562D01*
X064739Y025624D01*
X064749Y025628D01*
X064758Y025633D01*
X064764Y025637D01*
X064766Y025638D01*
X064768Y025639D01*
X064769Y02564D01*
X064769D01*
X064783Y02565D01*
X064795Y025661D01*
X064806Y025672D01*
X064815Y025683D01*
X064822Y025693D01*
X064825Y025697D01*
X064828Y0257D01*
X06483Y025703D01*
X064831Y025706D01*
X064832Y025707D01*
Y025708D01*
X06484Y025725D01*
X064846Y025742D01*
X064851Y025759D01*
X064854Y025775D01*
X064855Y025782D01*
X064856Y025788D01*
X064856Y025794D01*
Y025799D01*
X064857Y025803D01*
Y025654D01*
Y025803D01*
Y025809D01*
X064856Y02583D01*
X064853Y025849D01*
X064849Y025867D01*
X064847Y025874D01*
X064845Y025882D01*
X064843Y025888D01*
X064841Y025893D01*
X064839Y025898D01*
X064837Y025903D01*
X064836Y025906D01*
X064834Y025908D01*
X064833Y02591D01*
Y02591D01*
X064824Y025926D01*
X064814Y025939D01*
X064804Y025951D01*
X064794Y025961D01*
X064784Y025968D01*
X064778Y025975D01*
X064774Y025976D01*
X064773Y025978D01*
X064771Y025979D01*
X064771D01*
X064758Y025986D01*
X064746Y025992D01*
X064734Y025997D01*
X064724Y026D01*
X064714Y026002D01*
X064711Y026004D01*
X064707Y026004D01*
X064704Y026005D01*
X064703Y026005D01*
X064701D01*
X064687Y026007D01*
X064673Y026009D01*
X064659Y02601D01*
X064648Y02601D01*
X064637Y026011D01*
D02*
G37*
G36*
X064457D02*
X064074D01*
D01*
X06421D01*
X064074Y025608D01*
X064175D01*
X0642Y02569D01*
X064328D01*
X064353Y025608D01*
X064457D01*
X06432Y026011D01*
X064457D01*
D01*
D02*
G37*
%LPD*%
G36*
X06463Y025935D02*
X064644D01*
X064649Y025935D01*
X064652D01*
X064661Y025934D01*
X064669Y025932D01*
X064676Y025931D01*
X064683Y025928D01*
X064688Y025926D01*
X064692Y025924D01*
X064695Y025923D01*
X064696Y025923D01*
X064706Y025916D01*
X064714Y025909D01*
X064722Y025901D01*
X064727Y025894D01*
X064732Y025888D01*
X064735Y025883D01*
X064737Y025879D01*
X064738Y025879D01*
Y025878D01*
X064743Y025867D01*
X064746Y025856D01*
X064748Y025844D01*
X06475Y025833D01*
X064752Y025824D01*
Y02582D01*
X064752Y025817D01*
Y025814D01*
Y025812D01*
Y02581D01*
Y02581D01*
X064752Y025796D01*
X06475Y025783D01*
X064748Y025771D01*
X064746Y025762D01*
X064743Y025754D01*
X064741Y025747D01*
X06474Y025744D01*
X064739Y025743D01*
Y025742D01*
X064734Y025732D01*
X064727Y025724D01*
X064721Y025717D01*
X064715Y025711D01*
X064709Y025706D01*
X064705Y025703D01*
X064702Y0257D01*
X064701Y0257D01*
X064693Y025695D01*
X064685Y025692D01*
X064677Y025689D01*
X06467Y025687D01*
X064665Y025686D01*
X064661Y025685D01*
X064657Y025685D01*
X064647D01*
X064638Y025684D01*
X064597D01*
Y025936D01*
X064621D01*
X06463Y025935D01*
D02*
G37*
G36*
X064306Y025763D02*
X064222D01*
X064264Y025898D01*
X064306Y025763D01*
D02*
G37*
%LPC*%
G36*
X05644Y028152D02*
X056439D01*
X056437D01*
X056434D01*
X05643D01*
X056425D01*
X056419Y028152D01*
X056407Y028151D01*
X056392Y028149D01*
X056377Y028148D01*
X056363Y028145D01*
X05635Y028141D01*
X056349D01*
X056349Y028141D01*
X056345Y028139D01*
X056339Y028137D01*
X056332Y028134D01*
X056325Y02813D01*
X056317Y028125D01*
X056309Y028119D01*
X056301Y028112D01*
X056301Y028112D01*
X056298Y028109D01*
X056295Y028105D01*
X056292Y0281D01*
X056287Y028093D01*
X056284Y028085D01*
X05628Y028076D01*
X056277Y028066D01*
Y028065D01*
X056276Y028061D01*
X056276Y028055D01*
X056274Y028047D01*
Y028042D01*
X056274Y028036D01*
Y028029D01*
X056273Y028022D01*
Y028013D01*
X056272Y028004D01*
Y027937D01*
X056606D01*
Y028027D01*
X056605Y028036D01*
Y028047D01*
X056604Y028057D01*
X056603Y028066D01*
X056602Y028074D01*
Y028076D01*
X0566Y028079D01*
X056599Y028083D01*
X056596Y028089D01*
X056594Y028096D01*
X05659Y028102D01*
X056586Y028109D01*
X05658Y028115D01*
X05658Y028116D01*
X056578Y028118D01*
X056574Y028121D01*
X056569Y028125D01*
X056562Y028128D01*
X056554Y028133D01*
X056544Y028137D01*
X056532Y028141D01*
X056532D01*
X056531Y028142D01*
X056529D01*
X056526Y028143D01*
X056523Y028144D01*
X056518Y028145D01*
X056508Y028147D01*
X056494Y028149D01*
X056479Y028151D01*
X05646Y028152D01*
X05644Y028152D01*
D02*
G37*
%LPD*%
D10*
X061406Y026D02*
G03*
X061406Y026I-000056J0D01*
G01*
X061684Y025779D02*
G03*
X061684Y025221I0J-000279D01*
G01*
Y02475D02*
Y025221D01*
X0599Y02475D02*
X061684D01*
X0617Y025779D02*
Y02625D01*
X0599Y02475D02*
Y02625D01*
X0617D01*
D11*
X0507Y0263D02*
G03*
X0507Y0263I-0001J0D01*
G01*
D12*
X068535Y030165D02*
G03*
X068535Y030531I-000685J000183D01*
G01*
X068464Y030702D02*
G03*
X068204Y030962I-000614J-000354D01*
G01*
X068033Y031033D02*
G03*
X067667Y031033I-000183J-000685D01*
G01*
X067496Y030962D02*
G03*
X067236Y030702I000354J-000614D01*
G01*
X067165Y030531D02*
G03*
X067165Y030165I000685J-000183D01*
G01*
X067236Y029994D02*
G03*
X067496Y029734I000614J000354D01*
G01*
X067667Y029664D02*
G03*
X068033Y029664I000183J000685D01*
G01*
X068204Y029734D02*
G03*
X068464Y029994I-000354J000614D01*
G01*
X054073Y022082D02*
G03*
X054467Y022082I000197J0D01*
G01*
X054447Y0233D02*
G03*
X054053Y0233I-000197J0D01*
G01*
X068535Y021265D02*
G03*
X068535Y021631I-000685J000183D01*
G01*
X068464Y021802D02*
G03*
X068204Y022062I-000614J-000354D01*
G01*
X068033Y022133D02*
G03*
X067667Y022133I-000183J-000685D01*
G01*
X067496Y022062D02*
G03*
X067236Y021802I000354J-000614D01*
G01*
X067165Y021631D02*
G03*
X067165Y021265I000685J-000183D01*
G01*
X067236Y021094D02*
G03*
X067496Y020834I000614J000354D01*
G01*
X067667Y020764D02*
G03*
X068033Y020764I000183J000685D01*
G01*
X068204Y020834D02*
G03*
X068464Y021094I-000354J000614D01*
G01*
X043935Y030165D02*
G03*
X043935Y030531I-000685J000183D01*
G01*
X043864Y030702D02*
G03*
X043604Y030962I-000614J-000354D01*
G01*
X043433Y031033D02*
G03*
X043067Y031033I-000183J-000685D01*
G01*
X042896Y030962D02*
G03*
X042636Y030702I000354J-000614D01*
G01*
X042565Y030531D02*
G03*
X042565Y030165I000685J-000183D01*
G01*
X042636Y029994D02*
G03*
X042896Y029734I000614J000354D01*
G01*
X043067Y029664D02*
G03*
X043433Y029664I000183J000685D01*
G01*
X043604Y029734D02*
G03*
X043864Y029994I-000354J000614D01*
G01*
X043935Y021265D02*
G03*
X043935Y021631I-000685J000183D01*
G01*
X043864Y021802D02*
G03*
X043604Y022062I-000614J-000354D01*
G01*
X043433Y022133D02*
G03*
X043067Y022133I-000183J-000685D01*
G01*
X042896Y022062D02*
G03*
X042636Y021802I000354J-000614D01*
G01*
X042565Y021631D02*
G03*
X042565Y021265I000685J-000183D01*
G01*
X042636Y021094D02*
G03*
X042896Y020834I000614J000354D01*
G01*
X043067Y020764D02*
G03*
X043433Y020764I000183J000685D01*
G01*
X043604Y020834D02*
G03*
X043864Y021094I-000354J000614D01*
G01*
X044616Y0269D02*
G03*
X044616Y0269I-000866J0D01*
G01*
Y0249D02*
G03*
X044616Y0249I-000866J0D01*
G01*
X056Y02755D02*
Y03075D01*
X0569Y02755D02*
Y03075D01*
X056Y02755D02*
X0569D01*
X056Y03075D02*
X0569D01*
X0455Y0293D02*
X05555D01*
X0455Y03045D02*
X05555D01*
Y0293D02*
Y03045D01*
X0455Y0293D02*
Y03045D01*
X052482Y0282D02*
X052718Y027964D01*
Y028436D01*
X052482Y0282D02*
X052718Y028436D01*
X048982Y0282D02*
X049218Y027964D01*
Y028436D01*
X048982Y0282D02*
X049218Y028436D01*
X054467Y022082D02*
X055D01*
X054447Y0233D02*
X055D01*
Y02075D02*
Y0233D01*
X0505D02*
X051683D01*
X0505Y02075D02*
Y0233D01*
Y02075D02*
X055D01*
X051683Y0233D02*
X054053D01*
X06594Y028015D02*
X066125Y0282D01*
X066755D02*
X06694Y028015D01*
X067125Y0282D01*
X067759D02*
X067944Y028015D01*
X068129Y0282D01*
X068753Y028198D02*
X06894Y028011D01*
X068755Y0272D02*
X06894Y027385D01*
X06794D02*
X068125Y0272D01*
X067755D02*
X06794Y027385D01*
X066944Y027381D02*
X067125Y0272D01*
X066765Y027202D02*
X066944Y027381D01*
X06594D02*
X066121Y0272D01*
X066763D01*
X067125D02*
X067755D01*
X068125D02*
X068755D01*
X068131Y028198D02*
X068753D01*
X067125Y0282D02*
X067759D01*
X066125D02*
X066755D01*
X069032Y0229D02*
Y0267D01*
X066787Y0229D02*
Y0267D01*
X069032D01*
X066787Y0229D02*
X069032D01*
X041978Y0239D02*
Y02789D01*
X04175Y0239D02*
Y02789D01*
Y0239D02*
X045955D01*
Y02789D01*
X042541Y0239D02*
Y02789D01*
X044644Y0239D02*
Y02789D01*
X04175D02*
X045955D01*
D13*
X048431Y022243D02*
X049021D01*
X048431D02*
Y022823D01*
X049021D01*
X049279D02*
X049869D01*
Y022243D02*
Y022823D01*
X049279Y022243D02*
X049869D01*
X04915Y022383D02*
Y022733D01*
X047331Y023667D02*
X047406D01*
X046581Y023377D02*
Y023957D01*
X047202D01*
X046581Y023377D02*
X047202D01*
X047359Y023957D02*
X048006D01*
X047331Y023592D02*
Y023742D01*
X047231Y023592D02*
Y023742D01*
X047156Y023667D02*
X047231D01*
X047359Y023377D02*
X048006D01*
Y023957D01*
X047238Y024662D02*
X047312Y024738D01*
X047238Y024813D02*
X047312Y024738D01*
X046581Y02509D02*
X047171D01*
X046581Y02451D02*
Y02509D01*
Y02451D02*
X047171D01*
X047429D02*
X048019D01*
Y02509D01*
X047429D02*
X048019D01*
X047238Y024813D02*
X047312Y024887D01*
X047238Y024962D02*
X047312Y024887D01*
X047238Y024662D02*
X047312Y024588D01*
X047238Y024962D02*
X047312Y025038D01*
X047288Y025996D02*
X047362Y026071D01*
X047288Y025996D02*
X047362Y025921D01*
X047429Y025643D02*
X048019D01*
Y026223D01*
X047429D02*
X048019D01*
X046581D02*
X047171D01*
X046581Y025643D02*
Y026223D01*
Y025643D02*
X047171D01*
X047288Y025846D02*
X047362Y025921D01*
X047288Y025846D02*
X047362Y025771D01*
X047288Y026146D02*
X047362Y026071D01*
X047288Y025696D02*
X047362Y025771D01*
X047288Y027129D02*
X047362Y027204D01*
X047288Y027129D02*
X047362Y027054D01*
X047429Y026777D02*
X048019D01*
Y027357D01*
X047429D02*
X048019D01*
X046581D02*
X047171D01*
X046581Y026777D02*
Y027357D01*
Y026777D02*
X047171D01*
X047288Y026979D02*
X047362Y027054D01*
X047288Y026979D02*
X047362Y026904D01*
X047288Y027279D02*
X047362Y027204D01*
X047288Y026829D02*
X047362Y026904D01*
X058538Y024762D02*
X058612Y024838D01*
X058538Y025213D02*
X058612Y025138D01*
X058538Y024913D02*
X058612Y024838D01*
X058538Y024913D02*
X058612Y024987D01*
X057831Y02471D02*
X058421D01*
X057831D02*
Y02529D01*
X058421D01*
X058679D02*
X059269D01*
Y02471D02*
Y02529D01*
X058679Y02471D02*
X059269D01*
X058538Y025062D02*
X058612Y024987D01*
X058538Y025062D02*
X058612Y025138D01*
X05681Y026225D02*
X05739D01*
Y025579D02*
Y026225D01*
X0571Y025375D02*
Y02545D01*
X057025D02*
X057175D01*
X057025Y02555D02*
X057175D01*
X05681Y025579D02*
Y026225D01*
X05739Y0248D02*
Y025421D01*
X05681Y0248D02*
Y025421D01*
Y0248D02*
X05739D01*
X0571Y02555D02*
Y025625D01*
X0563Y02125D02*
Y0216D01*
X056429Y02111D02*
X057019D01*
Y02169D01*
X056429D02*
X057019D01*
X055581D02*
X056171D01*
X055581Y02111D02*
Y02169D01*
Y02111D02*
X056171D01*
X0587Y021894D02*
Y021969D01*
X05841Y021144D02*
X05899D01*
X05841D02*
Y021766D01*
X05899Y021144D02*
Y021766D01*
X05841Y021923D02*
Y022569D01*
X058625Y021894D02*
X058775D01*
X058625Y021794D02*
X058775D01*
X0587Y021719D02*
Y021794D01*
X05899Y021923D02*
Y022569D01*
X05841D02*
X05899D01*
X0492Y0214D02*
X049275D01*
X04845Y02111D02*
Y02169D01*
X049071D01*
X04845Y02111D02*
X049071D01*
X049229Y02169D02*
X049875D01*
X0492Y021325D02*
Y021475D01*
X0491Y021325D02*
Y021475D01*
X049025Y0214D02*
X0491D01*
X049229Y02111D02*
X049875D01*
Y02169D01*
Y02696D02*
Y02754D01*
X049229Y02696D02*
X049875D01*
X049025Y02725D02*
X0491D01*
Y027175D02*
Y027325D01*
X0492Y027175D02*
Y027325D01*
X049229Y02754D02*
X049875D01*
X04845Y02696D02*
X049071D01*
X04845Y02754D02*
X049071D01*
X04845Y02696D02*
Y02754D01*
X0492Y02725D02*
X049275D01*
X055637Y024762D02*
X055712Y024838D01*
X055637Y025213D02*
X055712Y025138D01*
X055637Y024913D02*
X055712Y024838D01*
X055637Y024913D02*
X055712Y024987D01*
X054931Y02471D02*
X055521D01*
X054931D02*
Y02529D01*
X055521D01*
X055779D02*
X056369D01*
Y02471D02*
Y02529D01*
X055779Y02471D02*
X056369D01*
X055637Y025062D02*
X055712Y024987D01*
X055637Y025062D02*
X055712Y025138D01*
X055637Y025763D02*
X055712Y025838D01*
X055637Y026212D02*
X055712Y026137D01*
X055637Y025912D02*
X055712Y025838D01*
X055637Y025912D02*
X055712Y025988D01*
X054931Y02571D02*
X055521D01*
X054931D02*
Y02629D01*
X055521D01*
X055779D02*
X056369D01*
Y02571D02*
Y02629D01*
X055779Y02571D02*
X056369D01*
X055637Y026063D02*
X055712Y025988D01*
X055637Y026063D02*
X055712Y026137D01*
X053713Y02696D02*
Y02754D01*
X054359D01*
X054488Y02725D02*
X054563D01*
X054488Y027175D02*
Y027325D01*
X054388Y027175D02*
Y027325D01*
X053713Y02696D02*
X054359D01*
X054516Y02754D02*
X055138D01*
X054516Y02696D02*
X055138D01*
Y02754D01*
X054313Y02725D02*
X054388D01*
X060938Y027912D02*
X061013Y027987D01*
X060938Y028363D02*
X061013Y028287D01*
X060938Y028063D02*
X061013Y027987D01*
X060938Y028063D02*
X061013Y028138D01*
X060231Y02786D02*
X060821D01*
X060231D02*
Y02844D01*
X060821D01*
X061079D02*
X061669D01*
Y02786D02*
Y02844D01*
X061079Y02786D02*
X061669D01*
X060938Y028212D02*
X061013Y028138D01*
X060938Y028212D02*
X061013Y028287D01*
X061625Y02881D02*
Y02939D01*
X060979Y02881D02*
X061625D01*
X060775Y0291D02*
X06085D01*
Y029025D02*
Y029175D01*
X06095Y029025D02*
Y029175D01*
X060979Y02939D02*
X061625D01*
X0602Y02881D02*
X060821D01*
X0602Y02939D02*
X060821D01*
X0602Y02881D02*
Y02939D01*
X06095Y0291D02*
X061025D01*
X0602Y02976D02*
Y03034D01*
X060846D01*
X060975Y03005D02*
X06105D01*
X060975Y029975D02*
Y030125D01*
X060875Y029975D02*
Y030125D01*
X0602Y02976D02*
X060846D01*
X061004Y03034D02*
X061625D01*
X061004Y02976D02*
X061625D01*
Y03034D01*
X0608Y03005D02*
X060875D01*
X047288Y027963D02*
X047362Y028038D01*
X047288Y028412D02*
X047362Y028338D01*
X047288Y028112D02*
X047362Y028038D01*
X047288Y028112D02*
X047362Y028187D01*
X046581Y02791D02*
X047171D01*
X046581D02*
Y02849D01*
X047171D01*
X047429D02*
X048019D01*
Y02791D02*
Y02849D01*
X047429Y02791D02*
X048019D01*
X047288Y028263D02*
X047362Y028187D01*
X047288Y028263D02*
X047362Y028338D01*
X047288Y022296D02*
X047362Y022371D01*
X047288Y022746D02*
X047362Y022671D01*
X047288Y022446D02*
X047362Y022371D01*
X047288Y022446D02*
X047362Y022521D01*
X046581Y022243D02*
X047171D01*
X046581D02*
Y022823D01*
X047171D01*
X047429D02*
X048019D01*
Y022243D02*
Y022823D01*
X047429Y022243D02*
X048019D01*
X047288Y022596D02*
X047362Y022521D01*
X047288Y022596D02*
X047362Y022671D01*
X054338Y028363D02*
X054412Y028438D01*
X054338Y028063D02*
X054412Y027987D01*
X054338Y028363D02*
X054412Y028287D01*
X054338Y028212D02*
X054412Y028287D01*
X054529Y02849D02*
X055119D01*
Y02791D02*
Y02849D01*
X054529Y02791D02*
X055119D01*
X053681D02*
X054271D01*
X053681D02*
Y02849D01*
X054271D01*
X054338Y028212D02*
X054412Y028138D01*
X054338Y028063D02*
X054412Y028138D01*
X05195Y028025D02*
X052065Y02791D01*
X05195Y028025D02*
Y028375D01*
X052065Y02849D01*
Y02791D02*
X052521D01*
X052065Y02849D02*
X052521D01*
X052679Y02791D02*
X05325D01*
X052679Y02849D02*
X05325D01*
Y02791D02*
Y02849D01*
X05074Y028363D02*
X050815Y028438D01*
X05074Y028063D02*
X050815Y027987D01*
X05074Y028363D02*
X050815Y028287D01*
X05074Y028212D02*
X050815Y028287D01*
X050931Y02849D02*
X051522D01*
Y02791D02*
Y02849D01*
X050931Y02791D02*
X051522D01*
X050083D02*
X050674D01*
X050083D02*
Y02849D01*
X050674D01*
X05074Y028212D02*
X050815Y028138D01*
X05074Y028063D02*
X050815Y028138D01*
X04845Y028025D02*
X048565Y02791D01*
X04845Y028025D02*
Y028375D01*
X048565Y02849D01*
Y02791D02*
X049021D01*
X048565Y02849D02*
X049021D01*
X049179Y02791D02*
X04975D01*
X049179Y02849D02*
X04975D01*
Y02791D02*
Y02849D01*
X062919Y029813D02*
X062994Y029887D01*
X062919Y030262D02*
X062994Y030187D01*
X062919Y029962D02*
X062994Y029887D01*
X062919Y029962D02*
X062994Y030038D01*
X062213Y02976D02*
X062803D01*
X062213D02*
Y03034D01*
X062803D01*
X063061D02*
X063651D01*
Y02976D02*
Y03034D01*
X063061Y02976D02*
X063651D01*
X062919Y030113D02*
X062994Y030038D01*
X062919Y030113D02*
X062994Y030187D01*
X062228Y02786D02*
Y02844D01*
X062874D01*
X063003Y02815D02*
X063078D01*
X063003Y028075D02*
Y028225D01*
X062903Y028075D02*
Y028225D01*
X062228Y02786D02*
X062874D01*
X063032Y02844D02*
X063653D01*
X063032Y02786D02*
X063653D01*
Y02844D01*
X062828Y02815D02*
X062903D01*
X062869Y029262D02*
X062944Y029337D01*
X062869Y028963D02*
X062944Y028888D01*
X062869Y029262D02*
X062944Y029188D01*
X062869Y029113D02*
X062944Y029188D01*
X063061Y02939D02*
X063651D01*
Y02881D02*
Y02939D01*
X063061Y02881D02*
X063651D01*
X062213D02*
X062803D01*
X062213D02*
Y02939D01*
X062803D01*
X062869Y029113D02*
X062944Y029037D01*
X062869Y028963D02*
X062944Y029037D01*
X055575Y02196D02*
Y02254D01*
X056221D01*
X05635Y02225D02*
X056425D01*
X05635Y022175D02*
Y022325D01*
X05625Y022175D02*
Y022325D01*
X055575Y02196D02*
X056221D01*
X056379Y02254D02*
X057D01*
X056379Y02196D02*
X057D01*
Y02254D01*
X056175Y02225D02*
X05625D01*
X046575Y02111D02*
Y02169D01*
X047221D01*
X04735Y0214D02*
X047425D01*
X04735Y021325D02*
Y021475D01*
X04725Y021325D02*
Y021475D01*
X046575Y02111D02*
X047221D01*
X047379Y02169D02*
X048D01*
X047379Y02111D02*
X048D01*
Y02169D01*
X047175Y0214D02*
X04725D01*
X053375Y02696D02*
Y02754D01*
X052729Y02696D02*
X053375D01*
X052525Y02725D02*
X0526D01*
Y027175D02*
Y027325D01*
X0527Y027175D02*
Y027325D01*
X052729Y02754D02*
X053375D01*
X05195Y02696D02*
X052571D01*
X05195Y02754D02*
X052571D01*
X05195Y02696D02*
Y02754D01*
X0527Y02725D02*
X052775D01*
X062212Y021862D02*
X062287Y021788D01*
X062587D02*
X062662Y021862D01*
X062287Y021788D02*
X062362Y021862D01*
X062437Y021788D01*
X06216Y021979D02*
Y022569D01*
X06274D01*
Y021979D02*
Y022569D01*
Y021131D02*
Y021721D01*
X06216Y021131D02*
X06274D01*
X06216D02*
Y021721D01*
X062437Y021788D02*
X062512Y021862D01*
X062587Y021788D01*
X061222Y022569D02*
X061802D01*
Y021923D02*
Y022569D01*
X061512Y021719D02*
Y021794D01*
X061437D02*
X061587D01*
X061437Y021894D02*
X061587D01*
X061222Y021923D02*
Y022569D01*
X061802Y021144D02*
Y021766D01*
X061222Y021144D02*
Y021766D01*
Y021144D02*
X061802D01*
X061512Y021894D02*
Y021969D01*
X063097Y021144D02*
X063677D01*
X063097D02*
Y021791D01*
X063387Y021919D02*
Y021994D01*
X063312Y021919D02*
X063462D01*
X063312Y021819D02*
X063462D01*
X063677Y021144D02*
Y021791D01*
X063097Y021948D02*
Y022569D01*
X063677Y021948D02*
Y022569D01*
X063097D02*
X063677D01*
X063387Y021744D02*
Y021819D01*
X059763Y021913D02*
X059837Y021837D01*
X059387D02*
X059462Y021913D01*
X059688Y021837D02*
X059763Y021913D01*
X059612D02*
X059688Y021837D01*
X05989Y021131D02*
Y021721D01*
X05931Y021131D02*
X05989D01*
X05931D02*
Y021721D01*
Y021979D02*
Y022569D01*
X05989D01*
Y021979D02*
Y022569D01*
X059538Y021837D02*
X059612Y021913D01*
X059462D02*
X059538Y021837D01*
X060337Y021862D02*
X060412Y021788D01*
X060712D02*
X060787Y021862D01*
X060412Y021788D02*
X060487Y021862D01*
X060562Y021788D01*
X060285Y021979D02*
Y022569D01*
X060865D01*
Y021979D02*
Y022569D01*
Y021131D02*
Y021721D01*
X060285Y021131D02*
X060865D01*
X060285D02*
Y021721D01*
X060562Y021788D02*
X060637Y021862D01*
X060712Y021788D01*
X06221Y024125D02*
X06279D01*
X06221D02*
Y024771D01*
X0625Y0249D02*
Y024975D01*
X062425Y0249D02*
X062575D01*
X062425Y0248D02*
X062575D01*
X06279Y024125D02*
Y024771D01*
X06221Y024929D02*
Y02555D01*
X06279Y024929D02*
Y02555D01*
X06221D02*
X06279D01*
X0625Y024725D02*
Y0248D01*
X0634Y024725D02*
Y0248D01*
X06311Y02555D02*
X06369D01*
Y024929D02*
Y02555D01*
X06311Y024929D02*
Y02555D01*
X06369Y024125D02*
Y024771D01*
X063325Y0248D02*
X063475D01*
X063325Y0249D02*
X063475D01*
X0634D02*
Y024975D01*
X06311Y024125D02*
Y024771D01*
Y024125D02*
X06369D01*
X058538Y026063D02*
X058612Y026137D01*
X058538Y026063D02*
X058612Y025988D01*
X058679Y02571D02*
X059269D01*
Y02629D01*
X058679D02*
X059269D01*
X057831D02*
X058421D01*
X057831Y02571D02*
Y02629D01*
Y02571D02*
X058421D01*
X058538Y025912D02*
X058612Y025988D01*
X058538Y025912D02*
X058612Y025838D01*
X058538Y026212D02*
X058612Y026137D01*
X058538Y025763D02*
X058612Y025838D01*
D14*
X050224Y024348D02*
Y026652D01*
X053176D01*
Y024348D02*
Y026652D01*
X050224Y024348D02*
X053176D01*
X057561Y027359D02*
X058939D01*
X057561Y030941D02*
X058939D01*
Y027359D02*
Y027575D01*
X057561Y027359D02*
Y027575D01*
X058644Y027378D02*
Y027575D01*
X057856Y027378D02*
Y027575D01*
X057561D02*
X057856D01*
X058644D02*
X058939D01*
Y027674D01*
X057561Y027575D02*
Y027674D01*
X058644Y027575D02*
Y027674D01*
X057856Y027575D02*
Y027674D01*
X058644D02*
X058939D01*
X057561D02*
X057856D01*
X058053Y028166D02*
X058447D01*
Y029347D01*
X058053Y028166D02*
Y029347D01*
X058447D01*
Y030134D01*
X058053Y029347D02*
Y030134D01*
X058447D01*
X058644Y030626D02*
X058939D01*
X057561D02*
X057856D01*
X058644D02*
Y030725D01*
X057856Y030626D02*
Y030725D01*
X057561Y030626D02*
Y030725D01*
X058939Y030626D02*
Y030725D01*
X057561D02*
X057856D01*
X058644D02*
X058939D01*
X058644D02*
Y030922D01*
X057856Y030725D02*
Y030922D01*
X057561Y030725D02*
Y030941D01*
X058939Y030725D02*
Y030941D01*
D15*
X05032Y027388D02*
Y027158D01*
X050366Y027112D01*
X050458D01*
X050504Y027158D01*
Y027388D01*
X050596Y027342D02*
X050642Y027388D01*
X050734D01*
X05078Y027342D01*
Y027296D01*
X050734Y02725D01*
X050688D01*
X050734D01*
X05078Y027204D01*
Y027158D01*
X050734Y027112D01*
X050642D01*
X050596Y027158D01*
X06047Y027438D02*
Y027208D01*
X060516Y027162D01*
X060608D01*
X060654Y027208D01*
Y027438D01*
X06093Y027162D02*
X060746D01*
X06093Y027346D01*
Y027392D01*
X060884Y027438D01*
X060792D01*
X060746Y027392D01*
X06395Y02896D02*
Y029235D01*
X064088D01*
X064134Y02919D01*
Y029098D01*
X064088Y029052D01*
X06395D01*
X064042D02*
X064134Y02896D01*
X064226D02*
X064317D01*
X064271D01*
Y029235D01*
X064226Y02919D01*
X064639Y029235D02*
X064455D01*
Y029098D01*
X064547Y029144D01*
X064593D01*
X064639Y029098D01*
Y029006D01*
X064593Y02896D01*
X064501D01*
X064455Y029006D01*
X058794Y024438D02*
Y024162D01*
X058657D01*
X058611Y024208D01*
Y0243D01*
X058657Y024346D01*
X058794D01*
X058703D02*
X058611Y024438D01*
X058519D02*
X058427D01*
X058473D01*
Y024162D01*
X058519Y024208D01*
X058152Y024438D02*
Y024162D01*
X058289Y0243D01*
X058106D01*
X053956Y024812D02*
Y025088D01*
X054093D01*
X054139Y025042D01*
Y02495D01*
X054093Y024904D01*
X053956D01*
X054047D02*
X054139Y024812D01*
X054231D02*
X054323D01*
X054277D01*
Y025088D01*
X054231Y025042D01*
X054461D02*
X054507Y025088D01*
X054598D01*
X054644Y025042D01*
Y024996D01*
X054598Y02495D01*
X054553D01*
X054598D01*
X054644Y024904D01*
Y024858D01*
X054598Y024812D01*
X054507D01*
X054461Y024858D01*
X04559Y0224D02*
Y022675D01*
X045728D01*
X045774Y02263D01*
Y022538D01*
X045728Y022492D01*
X04559D01*
X045682D02*
X045774Y0224D01*
X045866D02*
X045957D01*
X045911D01*
Y022675D01*
X045866Y02263D01*
X046279Y0224D02*
X046095D01*
X046279Y022584D01*
Y02263D01*
X046233Y022675D01*
X046141D01*
X046095Y02263D01*
X06395Y02991D02*
Y030185D01*
X064088D01*
X064134Y03014D01*
Y030048D01*
X064088Y030002D01*
X06395D01*
X064042D02*
X064134Y02991D01*
X064226D02*
X064317D01*
X064271D01*
Y030185D01*
X064226Y03014D01*
X064455Y02991D02*
X064547D01*
X064501D01*
Y030185D01*
X064455Y03014D01*
X048306Y024662D02*
Y024938D01*
X048443D01*
X048489Y024892D01*
Y0248D01*
X048443Y024754D01*
X048306D01*
X048397D02*
X048489Y024662D01*
X048581D02*
X048673D01*
X048627D01*
Y024938D01*
X048581Y024892D01*
X048811D02*
X048857Y024938D01*
X048948D01*
X048994Y024892D01*
Y024708D01*
X048948Y024662D01*
X048857D01*
X048811Y024708D01*
Y024892D01*
X05787Y02659D02*
Y026865D01*
X058008D01*
X058054Y02682D01*
Y026728D01*
X058008Y026682D01*
X05787D01*
X057962D02*
X058054Y02659D01*
X058145Y026636D02*
X058191Y02659D01*
X058283D01*
X058329Y026636D01*
Y02682D01*
X058283Y026865D01*
X058191D01*
X058145Y02682D01*
Y026774D01*
X058191Y026728D01*
X058329D01*
X05572Y026612D02*
Y026888D01*
X055858D01*
X055904Y026842D01*
Y02675D01*
X055858Y026704D01*
X05572D01*
X055812D02*
X055904Y026612D01*
X055996Y026842D02*
X056042Y026888D01*
X056134D01*
X05618Y026842D01*
Y026796D01*
X056134Y02675D01*
X05618Y026704D01*
Y026658D01*
X056134Y026612D01*
X056042D01*
X055996Y026658D01*
Y026704D01*
X056042Y02675D01*
X055996Y026796D01*
Y026842D01*
X056042Y02675D02*
X056134D01*
X059938Y02792D02*
X059662D01*
Y028058D01*
X059708Y028104D01*
X0598D01*
X059846Y028058D01*
Y02792D01*
Y028012D02*
X059938Y028104D01*
X059662Y028196D02*
Y02838D01*
X059708D01*
X059892Y028196D01*
X059938D01*
X04827Y025812D02*
Y026088D01*
X048408D01*
X048454Y026042D01*
Y02595D01*
X048408Y025904D01*
X04827D01*
X048362D02*
X048454Y025812D01*
X04873Y026088D02*
X048638Y026042D01*
X048546Y02595D01*
Y025858D01*
X048592Y025812D01*
X048684D01*
X04873Y025858D01*
Y025904D01*
X048684Y02595D01*
X048546D01*
X046388Y02687D02*
X046112D01*
Y027008D01*
X046158Y027054D01*
X04625D01*
X046296Y027008D01*
Y02687D01*
Y026962D02*
X046388Y027054D01*
X046112Y02733D02*
Y027146D01*
X04625D01*
X046204Y027238D01*
Y027284D01*
X04625Y02733D01*
X046342D01*
X046388Y027284D01*
Y027192D01*
X046342Y027146D01*
X06033Y02287D02*
Y023145D01*
X060468D01*
X060514Y0231D01*
Y023008D01*
X060468Y022962D01*
X06033D01*
X060422D02*
X060514Y02287D01*
X060743D02*
Y023145D01*
X060606Y023008D01*
X060789D01*
X04582Y02806D02*
Y028335D01*
X045958D01*
X046004Y02829D01*
Y028198D01*
X045958Y028152D01*
X04582D01*
X045912D02*
X046004Y02806D01*
X046095Y02829D02*
X046141Y028335D01*
X046233D01*
X046279Y02829D01*
Y028244D01*
X046233Y028198D01*
X046187D01*
X046233D01*
X046279Y028152D01*
Y028106D01*
X046233Y02806D01*
X046141D01*
X046095Y028106D01*
X0622Y02287D02*
Y023145D01*
X062338D01*
X062384Y0231D01*
Y023008D01*
X062338Y022962D01*
X0622D01*
X062292D02*
X062384Y02287D01*
X062659D02*
X062476D01*
X062659Y023054D01*
Y0231D01*
X062613Y023145D01*
X062521D01*
X062476Y0231D01*
X05935Y02287D02*
Y023145D01*
X059488D01*
X059534Y0231D01*
Y023008D01*
X059488Y022962D01*
X05935D01*
X059442D02*
X059534Y02287D01*
X059626D02*
X059717D01*
X059671D01*
Y023145D01*
X059626Y0231D01*
X049788Y02378D02*
X049512D01*
Y023596D01*
Y02332D02*
Y023504D01*
X049696Y02332D01*
X049742D01*
X049788Y023366D01*
Y023458D01*
X049742Y023504D01*
X057316Y021538D02*
Y021262D01*
X0575D01*
X057592D02*
X057684D01*
X057638D01*
Y021538D01*
X057592Y021492D01*
X050292Y021611D02*
X050338Y021657D01*
Y021748D01*
X050292Y021794D01*
X050108D01*
X050062Y021748D01*
Y021657D01*
X050108Y021611D01*
X050062Y021519D02*
Y021427D01*
Y021473D01*
X050338D01*
X050292Y021519D01*
X050338Y021106D02*
X050292Y021197D01*
X0502Y021289D01*
X050108D01*
X050062Y021243D01*
Y021152D01*
X050108Y021106D01*
X050154D01*
X0502Y021152D01*
Y021289D01*
X045774Y02149D02*
X045728Y021535D01*
X045636D01*
X04559Y02149D01*
Y021306D01*
X045636Y02126D01*
X045728D01*
X045774Y021306D01*
X045866Y02126D02*
X045957D01*
X045911D01*
Y021535D01*
X045866Y02149D01*
X046279Y021535D02*
X046095D01*
Y021398D01*
X046187Y021444D01*
X046233D01*
X046279Y021398D01*
Y021306D01*
X046233Y02126D01*
X046141D01*
X046095Y021306D01*
X055804Y02307D02*
X055758Y023115D01*
X055666D01*
X05562Y02307D01*
Y022886D01*
X055666Y02284D01*
X055758D01*
X055804Y022886D01*
X055896Y02284D02*
X055987D01*
X055941D01*
Y023115D01*
X055896Y02307D01*
X056263Y02284D02*
Y023115D01*
X056125Y022978D01*
X056309D01*
X064134Y02824D02*
X064088Y028286D01*
X063996D01*
X06395Y02824D01*
Y028056D01*
X063996Y02801D01*
X064088D01*
X064134Y028056D01*
X064226Y02801D02*
X064317D01*
X064271D01*
Y028286D01*
X064226Y02824D01*
X064455D02*
X064501Y028286D01*
X064593D01*
X064639Y02824D01*
Y028194D01*
X064593Y028148D01*
X064547D01*
X064593D01*
X064639Y028102D01*
Y028056D01*
X064593Y02801D01*
X064501D01*
X064455Y028056D01*
X058439Y023142D02*
X058393Y023188D01*
X058302D01*
X058256Y023142D01*
Y022958D01*
X058302Y022912D01*
X058393D01*
X058439Y022958D01*
X058531Y022912D02*
X058623D01*
X058577D01*
Y023188D01*
X058531Y023142D01*
X058944Y022912D02*
X058761D01*
X058944Y023096D01*
Y023142D01*
X058898Y023188D01*
X058807D01*
X058761Y023142D01*
X048535Y023742D02*
X048489Y023788D01*
X048397D01*
X048352Y023742D01*
Y023558D01*
X048397Y023512D01*
X048489D01*
X048535Y023558D01*
X048627Y023512D02*
X048719D01*
X048673D01*
Y023788D01*
X048627Y023742D01*
X048857Y023512D02*
X048948D01*
X048903D01*
Y023788D01*
X048857Y023742D01*
X059708Y029989D02*
X059662Y029943D01*
Y029852D01*
X059708Y029806D01*
X059892D01*
X059938Y029852D01*
Y029943D01*
X059892Y029989D01*
X059938Y030081D02*
Y030173D01*
Y030127D01*
X059662D01*
X059708Y030081D01*
Y030311D02*
X059662Y030357D01*
Y030448D01*
X059708Y030494D01*
X059892D01*
X059938Y030448D01*
Y030357D01*
X059892Y030311D01*
X059708D01*
X057054Y026842D02*
X057008Y026888D01*
X056916D01*
X05687Y026842D01*
Y026658D01*
X056916Y026612D01*
X057008D01*
X057054Y026658D01*
X057146D02*
X057192Y026612D01*
X057284D01*
X05733Y026658D01*
Y026842D01*
X057284Y026888D01*
X057192D01*
X057146Y026842D01*
Y026796D01*
X057192Y02675D01*
X05733D01*
X062434Y02608D02*
X062388Y026126D01*
X062296D01*
X06225Y02608D01*
Y025896D01*
X062296Y02585D01*
X062388D01*
X062434Y025896D01*
X062526Y02608D02*
X062571Y026126D01*
X062663D01*
X062709Y02608D01*
Y026034D01*
X062663Y025988D01*
X062709Y025942D01*
Y025896D01*
X062663Y02585D01*
X062571D01*
X062526Y025896D01*
Y025942D01*
X062571Y025988D01*
X062526Y026034D01*
Y02608D01*
X062571Y025988D02*
X062663D01*
X054646Y026508D02*
X054692Y026462D01*
X054784D01*
X05483Y026508D01*
Y026692D01*
X054784Y026738D01*
X054692D01*
X054646Y026692D01*
X054554Y026462D02*
X05437D01*
Y026508D01*
X054554Y026692D01*
Y026738D01*
X048704Y026642D02*
X048658Y026688D01*
X048566D01*
X04852Y026642D01*
Y026458D01*
X048566Y026412D01*
X048658D01*
X048704Y026458D01*
X04898Y026688D02*
X048888Y026642D01*
X048796Y02655D01*
Y026458D01*
X048842Y026412D01*
X048934D01*
X04898Y026458D01*
Y026504D01*
X048934Y02655D01*
X048796D01*
X051374Y02734D02*
X051328Y027385D01*
X051236D01*
X05119Y02734D01*
Y027156D01*
X051236Y02711D01*
X051328D01*
X051374Y027156D01*
X051649Y027385D02*
X051466D01*
Y027248D01*
X051557Y027294D01*
X051603D01*
X051649Y027248D01*
Y027156D01*
X051603Y02711D01*
X051511D01*
X051466Y027156D01*
X063324Y0231D02*
X063278Y023145D01*
X063186D01*
X06314Y0231D01*
Y022916D01*
X063186Y02287D01*
X063278D01*
X063324Y022916D01*
X063553Y02287D02*
Y023145D01*
X063415Y023008D01*
X063599D01*
X061444Y0231D02*
X061398Y023145D01*
X061306D01*
X06126Y0231D01*
Y022916D01*
X061306Y02287D01*
X061398D01*
X061444Y022916D01*
X061536Y0231D02*
X061581Y023145D01*
X061673D01*
X061719Y0231D01*
Y023054D01*
X061673Y023008D01*
X061627D01*
X061673D01*
X061719Y022962D01*
Y022916D01*
X061673Y02287D01*
X061581D01*
X061536Y022916D01*
X059708Y029054D02*
X059662Y029008D01*
Y028916D01*
X059708Y02887D01*
X059892D01*
X059938Y028916D01*
Y029008D01*
X059892Y029054D01*
X059938Y02933D02*
Y029146D01*
X059754Y02933D01*
X059708D01*
X059662Y029284D01*
Y029192D01*
X059708Y029146D01*
X063334Y02608D02*
X063288Y026126D01*
X063196D01*
X06315Y02608D01*
Y025896D01*
X063196Y02585D01*
X063288D01*
X063334Y025896D01*
X063425Y02585D02*
X063517D01*
X063471D01*
Y026126D01*
X063425Y02608D01*
X05053Y024086D02*
Y02381D01*
X050668D01*
X050714Y023856D01*
Y023902D01*
X050668Y023948D01*
X05053D01*
X050668D01*
X050714Y023994D01*
Y02404D01*
X050668Y024086D01*
X05053D01*
X050806Y02381D02*
X050897D01*
X050851D01*
Y024086D01*
X050806Y02404D01*
D16*
X068264Y02657D02*
D03*
D17*
X066925Y026334D02*
D03*
D18*
X068872Y024776D02*
D03*
D19*
X068266Y02303D02*
D03*
D20*
X066925Y023266D02*
D03*
D21*
X041864Y026916D02*
D03*
Y024916D02*
D03*
M02*
