G04*
G04 #@! TF.GenerationSoftware,Altium Limited,Altium Designer,21.6.1 (37)*
G04*
G04 Layer_Physical_Order=2*
G04 Layer_Color=10508810*
%FSTAX24Y24*%
%MOIN*%
G70*
G04*
G04 #@! TF.SameCoordinates,7AD6CBE7-45AD-4871-8827-9D585CE600FE*
G04*
G04*
G04 #@! TF.FilePolarity,Positive*
G04*
G01*
G75*
%ADD42C,0.0394*%
%ADD43C,0.0591*%
%ADD44C,0.0787*%
%ADD48C,0.0315*%
%ADD52O,0.0748X0.0906*%
%ADD53R,0.0748X0.0906*%
%ADD54O,0.0650X0.0750*%
%ADD55O,0.0787X0.0748*%
G04:AMPARAMS|DCode=56|XSize=78.7mil|YSize=74.8mil|CornerRadius=0mil|HoleSize=0mil|Usage=FLASHONLY|Rotation=0.000|XOffset=0mil|YOffset=0mil|HoleType=Round|Shape=Octagon|*
%AMOCTAGOND56*
4,1,8,0.0394,-0.0187,0.0394,0.0187,0.0207,0.0374,-0.0207,0.0374,-0.0394,0.0187,-0.0394,-0.0187,-0.0207,-0.0374,0.0207,-0.0374,0.0394,-0.0187,0.0*
%
%ADD56OCTAGOND56*%

%ADD57R,0.0709X0.0709*%
%ADD58C,0.0709*%
%ADD59O,0.1378X0.1181*%
%ADD60C,0.0500*%
%ADD61C,0.0394*%
%ADD62C,0.0512*%
G36*
X05703Y030163D02*
Y029556D01*
X056848Y029556D01*
X056147Y030257D01*
X056166Y030303D01*
X05689D01*
X05703Y030163D01*
D02*
G37*
G36*
X057728Y030771D02*
X057709Y030725D01*
X057591D01*
X057335Y030981D01*
X057253Y031044D01*
X057157Y031084D01*
X057054Y031097D01*
X0479D01*
X047797Y031084D01*
X047701Y031044D01*
X047619Y030981D01*
X044257Y027619D01*
X044166Y027668D01*
X044011Y027715D01*
X043848Y027731D01*
X043652D01*
X043489Y027715D01*
X043334Y027668D01*
X04319Y027591D01*
X043064Y027487D01*
X042961Y027362D01*
X042884Y027218D01*
X042837Y027062D01*
X042821Y0269D01*
X042837Y026738D01*
X042884Y026582D01*
X042961Y026438D01*
X043064Y026313D01*
X04319Y026209D01*
X043334Y026132D01*
X043489Y026085D01*
X043652Y026069D01*
X043848D01*
X044011Y026085D01*
X044166Y026132D01*
X04431Y026209D01*
X044436Y026313D01*
X044539Y026438D01*
X044616Y026582D01*
X044663Y026738D01*
X044679Y0269D01*
X044678Y026916D01*
X045314Y027553D01*
X045363Y027531D01*
Y026878D01*
X045341Y02684D01*
X045308Y026715D01*
Y026585D01*
X045341Y02646D01*
X045406Y026348D01*
X045498Y026256D01*
X04561Y026191D01*
X045735Y026158D01*
X045865D01*
X04599Y026191D01*
X046102Y026256D01*
X046194Y026348D01*
X046259Y02646D01*
X046292Y026585D01*
Y026715D01*
X046259Y02684D01*
X046237Y026878D01*
Y027369D01*
X048531Y029663D01*
X055505D01*
X055569Y029599D01*
X05555Y029553D01*
X05045Y029543D01*
X05045Y027754D01*
X05041Y027724D01*
X050364Y027736D01*
X050236D01*
X050112Y027703D01*
X050001Y027639D01*
X049911Y027549D01*
X049847Y027438D01*
X049838Y027406D01*
X048382Y02595D01*
X048312Y025859D01*
X048269Y025754D01*
X048254Y025641D01*
Y023557D01*
X048238Y023528D01*
X048204Y023405D01*
Y023277D01*
X048238Y023153D01*
X048302Y023042D01*
X048392Y022952D01*
X048503Y022888D01*
X048627Y022854D01*
X048755D01*
X048878Y022888D01*
X048989Y022952D01*
X04908Y023042D01*
X049144Y023153D01*
X049177Y023277D01*
Y023405D01*
X049144Y023528D01*
X049127Y023557D01*
Y02546D01*
X050404Y026736D01*
X05045Y026717D01*
X05045Y024D01*
X052Y024D01*
X0526Y0234D01*
X0526Y021D01*
X052239Y020639D01*
X043637Y020639D01*
X043627Y020688D01*
X043651Y020698D01*
X04379Y020791D01*
X043907Y020908D01*
X044Y021047D01*
X044064Y021201D01*
X044096Y021365D01*
Y021531D01*
X044064Y021695D01*
X044Y021849D01*
X043907Y021988D01*
X04379Y022106D01*
X043651Y022198D01*
X043497Y022262D01*
X043333Y022294D01*
X043167D01*
X043003Y022262D01*
X042849Y022198D01*
X04271Y022106D01*
X042593Y021988D01*
X0425Y021849D01*
X042436Y021695D01*
X042404Y021531D01*
Y021365D01*
X042436Y021201D01*
X0425Y021047D01*
X042593Y020908D01*
X04271Y020791D01*
X042849Y020698D01*
X042873Y020688D01*
X042863Y020639D01*
X04269D01*
X042139Y02119D01*
Y03061D01*
X04269Y031161D01*
X042872D01*
X042882Y031112D01*
X042849Y031098D01*
X04271Y031006D01*
X042593Y030888D01*
X0425Y030749D01*
X042436Y030595D01*
X042404Y030431D01*
Y030265D01*
X042436Y030101D01*
X0425Y029947D01*
X042593Y029808D01*
X04271Y029691D01*
X042849Y029598D01*
X043003Y029534D01*
X043167Y029502D01*
X043333D01*
X043497Y029534D01*
X043651Y029598D01*
X04379Y029691D01*
X043907Y029808D01*
X044Y029947D01*
X044064Y030101D01*
X044096Y030265D01*
Y030431D01*
X044064Y030595D01*
X044Y030749D01*
X043907Y030888D01*
X04379Y031006D01*
X043651Y031098D01*
X043618Y031112D01*
X043628Y031161D01*
X05734D01*
X057728Y030771D01*
D02*
G37*
G36*
X069046Y030666D02*
Y021134D01*
X068416Y020504D01*
X053746Y020504D01*
X05315Y0211D01*
Y022118D01*
X053188Y022151D01*
X05325Y022143D01*
X053374Y022159D01*
X053489Y022207D01*
X053588Y022283D01*
X053664Y022382D01*
X053712Y022498D01*
X053728Y022621D01*
Y022779D01*
X053712Y022902D01*
X053664Y023018D01*
X053588Y023117D01*
X053489Y023193D01*
X053374Y023241D01*
X05325Y023257D01*
X053188Y023249D01*
X05315Y023282D01*
Y026748D01*
X052301Y026749D01*
X0519Y02715D01*
Y02905D01*
X05215Y0293D01*
X055255Y029297D01*
X055952Y028598D01*
X055923Y028556D01*
X055853Y028585D01*
X05575Y028599D01*
X055647Y028585D01*
X055551Y028545D01*
X055468Y028482D01*
X055405Y028399D01*
X055365Y028303D01*
X055351Y0282D01*
Y02565D01*
X055351Y02565D01*
X055365Y025547D01*
X055405Y025451D01*
X055468Y025368D01*
X056986Y02385D01*
X056468Y023332D01*
X056405Y023249D01*
X056365Y023153D01*
X056351Y02305D01*
X056365Y022947D01*
X056405Y022851D01*
X056468Y022768D01*
X056551Y022705D01*
X056647Y022665D01*
X05675Y022651D01*
X056853Y022665D01*
X056949Y022705D01*
X057032Y022768D01*
X05755Y023286D01*
X059668Y021168D01*
X059668Y021168D01*
X059751Y021105D01*
X059847Y021065D01*
X05995Y021051D01*
X0652D01*
X0652Y021051D01*
X065303Y021065D01*
X065399Y021105D01*
X065482Y021168D01*
X066282Y021968D01*
X066282Y021968D01*
X066345Y022051D01*
X066385Y022147D01*
X066399Y02225D01*
X066399Y02225D01*
Y023302D01*
X06765D01*
X06765Y023302D01*
X067779Y023319D01*
X067899Y023369D01*
X068002Y023448D01*
X068782Y024228D01*
X068782Y024228D01*
X068861Y024331D01*
X068911Y024451D01*
X068928Y02458D01*
X068928Y02458D01*
Y0277D01*
X068911Y027829D01*
X068861Y027949D01*
X068782Y028052D01*
X068679Y028131D01*
X068559Y028181D01*
X06843Y028198D01*
X068301Y028181D01*
X068181Y028131D01*
X068078Y028052D01*
X067999Y027949D01*
X067949Y027829D01*
X067932Y0277D01*
Y024786D01*
X067444Y024298D01*
X066D01*
X065871Y024281D01*
X065751Y024231D01*
X065648Y024152D01*
X065569Y024049D01*
X065519Y023929D01*
X065502Y0238D01*
X065519Y023671D01*
X065569Y023551D01*
X065601Y023509D01*
Y022415D01*
X065035Y021849D01*
X060115D01*
X057707Y024257D01*
X057707Y024257D01*
X056149Y025815D01*
Y0282D01*
X056135Y028303D01*
X056106Y028372D01*
X056149Y028401D01*
X05685Y027697D01*
X056851Y027601D01*
X057202Y02725D01*
X05805Y02725D01*
X05845Y02765D01*
Y028886D01*
X0585Y028899D01*
X058516Y028871D01*
X058601Y028786D01*
X058705Y028727D01*
X05882Y028696D01*
X05894D01*
X059055Y028727D01*
X059159Y028786D01*
X059243Y028871D01*
X059303Y028975D01*
X059334Y02909D01*
Y02921D01*
X059303Y029325D01*
X059243Y029429D01*
X059159Y029514D01*
X059055Y029573D01*
X05894Y029604D01*
X05882D01*
X058705Y029573D01*
X058601Y029514D01*
X058516Y029429D01*
X0585Y029401D01*
X05845Y029414D01*
Y02987D01*
X0585Y029884D01*
X058516Y029855D01*
X058601Y029771D01*
X058705Y029711D01*
X05882Y02968D01*
X05894D01*
X059055Y029711D01*
X059098Y029736D01*
X059451D01*
X059718Y029468D01*
X059718Y029468D01*
X059801Y029405D01*
X059897Y029365D01*
X06Y029351D01*
X061085D01*
X063801Y026635D01*
Y0231D01*
X063815Y022997D01*
X063855Y022901D01*
X063918Y022818D01*
X064001Y022755D01*
X064097Y022715D01*
X0642Y022701D01*
X064303Y022715D01*
X064399Y022755D01*
X064482Y022818D01*
X064545Y022901D01*
X064585Y022997D01*
X064599Y0231D01*
Y0268D01*
X064599Y0268D01*
X064585Y026903D01*
X064545Y026999D01*
X064482Y027082D01*
X061532Y030032D01*
X061449Y030095D01*
X061353Y030135D01*
X06125Y030149D01*
X06125Y030149D01*
X060165D01*
X059898Y030416D01*
X059815Y03048D01*
X059719Y030519D01*
X059616Y030533D01*
X059616Y030533D01*
X059098D01*
X059055Y030558D01*
X05894Y030589D01*
X05882D01*
X058705Y030558D01*
X058601Y030498D01*
X058516Y030413D01*
X0585Y030385D01*
X05845Y030398D01*
Y03075D01*
X058996Y031296D01*
X068416D01*
X069046Y030666D01*
D02*
G37*
%LPC*%
G36*
X05125Y023392D02*
X05113Y02338D01*
X051015Y023345D01*
X050909Y023289D01*
X050816Y023212D01*
X05074Y023119D01*
X050683Y023013D01*
X050649Y022898D01*
X050637Y022779D01*
Y022621D01*
X050649Y022502D01*
X050683Y022387D01*
X05074Y022281D01*
X050816Y022188D01*
X050909Y022111D01*
X051015Y022055D01*
X05113Y02202D01*
X05125Y022008D01*
X05137Y02202D01*
X051485Y022055D01*
X051591Y022111D01*
X051684Y022188D01*
X05176Y022281D01*
X051817Y022387D01*
X051851Y022502D01*
X051863Y022621D01*
Y022779D01*
X051851Y022898D01*
X051817Y023013D01*
X05176Y023119D01*
X051684Y023212D01*
X051591Y023289D01*
X051485Y023345D01*
X05137Y02338D01*
X05125Y023392D01*
D02*
G37*
G36*
X067928Y031135D02*
X06785Y031135D01*
X067772Y031135D01*
X06762Y031105D01*
X067477Y031046D01*
X067348Y03096D01*
X067238Y03085D01*
X067152Y030721D01*
X067093Y030578D01*
X067063Y030426D01*
X067063Y030348D01*
X067063Y030348D01*
X067063Y030348D01*
X067063Y030271D01*
X067093Y030118D01*
X067152Y029975D01*
X067238Y029846D01*
X067348Y029736D01*
X067477Y02965D01*
X06762Y029591D01*
X067772Y029561D01*
X06785Y029561D01*
X067928D01*
X06808Y029591D01*
X068223Y02965D01*
X068352Y029736D01*
X068462Y029846D01*
X068548Y029975D01*
X068607Y030118D01*
X068637Y030271D01*
Y030348D01*
X068637Y030426D01*
X068607Y030578D01*
X068548Y030721D01*
X068462Y03085D01*
X068352Y03096D01*
X068223Y031046D01*
X06808Y031105D01*
X067928Y031135D01*
D02*
G37*
G36*
X06644Y028198D02*
X066311Y028181D01*
X066191Y028131D01*
X066088Y028052D01*
X066009Y027949D01*
X065959Y027829D01*
X065942Y0277D01*
Y026446D01*
X06577Y026274D01*
X065743D01*
X065506Y026037D01*
Y025832D01*
X065502Y0258D01*
X065506Y025768D01*
Y025563D01*
X065743Y025326D01*
X065854D01*
X065871Y025319D01*
X066Y025302D01*
X066129Y025319D01*
X066146Y025326D01*
X066257D01*
X066494Y025563D01*
Y025589D01*
X066792Y025888D01*
X066871Y025991D01*
X066921Y026111D01*
X066938Y02624D01*
X066938Y02624D01*
Y0277D01*
X066921Y027829D01*
X066871Y027949D01*
X066792Y028052D01*
X066689Y028131D01*
X066569Y028181D01*
X06644Y028198D01*
D02*
G37*
G36*
X067928Y022235D02*
X06785Y022235D01*
X067772Y022235D01*
X06762Y022205D01*
X067477Y022146D01*
X067348Y02206D01*
X067238Y02195D01*
X067152Y021821D01*
X067093Y021678D01*
X067063Y021526D01*
X067063Y021448D01*
X067063Y021448D01*
X067063Y021448D01*
X067063Y02137D01*
X067093Y021218D01*
X067152Y021075D01*
X067238Y020946D01*
X067348Y020836D01*
X067477Y02075D01*
X06762Y020691D01*
X067772Y020661D01*
X06785Y020661D01*
X067928D01*
X06808Y020691D01*
X068223Y02075D01*
X068352Y020836D01*
X068462Y020946D01*
X068548Y021075D01*
X068607Y021218D01*
X068637Y02137D01*
Y021448D01*
X068637Y021526D01*
X068607Y021678D01*
X068548Y021821D01*
X068462Y02195D01*
X068352Y02206D01*
X068223Y022146D01*
X06808Y022205D01*
X067928Y022235D01*
D02*
G37*
%LPD*%
D42*
X04835Y0301D02*
X055686D01*
X0458Y02665D02*
Y02755D01*
X04835Y0301D01*
X055686D02*
X05762Y028166D01*
X0522Y02895D02*
X0528D01*
X0577Y0266D02*
X0582D01*
X054Y02895D02*
X0545D01*
X05455Y029D01*
X0582Y0266D02*
X05888D01*
X0534Y02895D02*
X054D01*
X0528D02*
X0534D01*
X05455Y029D02*
X05465Y0291D01*
X05425Y0287D02*
X0545Y02895D01*
X048691Y025641D02*
X0503Y02725D01*
X048691Y023341D02*
Y025641D01*
X05425Y0227D02*
Y0287D01*
X05665Y02765D02*
X0577Y0266D01*
D43*
X05575Y02565D02*
Y0282D01*
Y02565D02*
X057425Y023975D01*
X0652Y02145D02*
X066Y02225D01*
X057425Y023975D02*
X05995Y02145D01*
X057425Y023725D02*
Y023975D01*
X05675Y02305D02*
X057425Y023725D01*
X05995Y02145D02*
X0652D01*
X05888Y0266D02*
Y028166D01*
Y02392D02*
Y0266D01*
X06745Y0277D02*
Y0283D01*
X06685Y0289D02*
X06745Y0283D01*
X065Y0289D02*
X06685D01*
X0631Y0308D02*
X065Y0289D01*
X06045Y0308D02*
X0631D01*
X06125Y02975D02*
X0642Y0268D01*
X059616Y030134D02*
X06Y02975D01*
X06125D01*
X05888Y030134D02*
X059616D01*
X06335Y02225D02*
X0646D01*
X06055D02*
X06335D01*
X0634Y0223D01*
Y0231D01*
X0642D02*
Y0268D01*
X0654Y0248D02*
X066D01*
X0651Y02275D02*
Y0245D01*
X0654Y0248D01*
X0646Y02225D02*
X0651Y02275D01*
X05888Y02392D02*
X06055Y02225D01*
X066D02*
Y0238D01*
D44*
X0487Y02785D02*
Y02895D01*
X0454Y02455D02*
X0487Y02785D01*
X04375Y02455D02*
X0454D01*
X066Y0238D02*
X06765D01*
X06843Y02458D01*
Y0277D01*
X066Y0258D02*
X06644Y02624D01*
Y0277D01*
X06745Y02525D02*
Y0277D01*
X067Y0248D02*
X06745Y02525D01*
X066Y0248D02*
X067D01*
X04375Y02455D02*
X04715Y02115D01*
X0516D01*
X05225Y0218D01*
Y0227D01*
D48*
X04375Y02655D02*
X0479Y0307D01*
X057054D01*
X05762Y030134D01*
Y02915D02*
Y030134D01*
D52*
X05125Y0227D02*
D03*
X05225D02*
D03*
X05325D02*
D03*
D53*
X05425D02*
D03*
D54*
X06644Y0277D02*
D03*
X06745D02*
D03*
X06843D02*
D03*
D55*
X066Y0248D02*
D03*
Y0238D02*
D03*
D56*
Y0258D02*
D03*
D57*
X05762Y030134D02*
D03*
D58*
Y02915D02*
D03*
Y028166D02*
D03*
X05888Y030134D02*
D03*
Y02915D02*
D03*
Y028166D02*
D03*
D59*
X04375Y0249D02*
D03*
Y0269D02*
D03*
D60*
X05575Y0282D02*
D03*
X0503Y02725D02*
D03*
X048691Y023341D02*
D03*
X06045Y0308D02*
D03*
X0642Y0231D02*
D03*
X0634D02*
D03*
X05675Y02305D02*
D03*
D61*
X0454Y02975D02*
D03*
X0589Y02085D02*
D03*
X05835D02*
D03*
X0578D02*
D03*
X05725D02*
D03*
X04375Y02835D02*
D03*
X04485Y02215D02*
D03*
X0454D02*
D03*
X04485Y0216D02*
D03*
Y0227D02*
D03*
X0454D02*
D03*
Y0216D02*
D03*
X0582Y02675D02*
D03*
X0588D02*
D03*
X0594D02*
D03*
X0622Y0237D02*
D03*
X0628D02*
D03*
X0634D02*
D03*
X0537Y02405D02*
D03*
X05425D02*
D03*
X0548D02*
D03*
X05535D02*
D03*
X05095Y0237D02*
D03*
X05155D02*
D03*
X04975D02*
D03*
X05035D02*
D03*
X0546Y02895D02*
D03*
X054D02*
D03*
X0534D02*
D03*
X0528D02*
D03*
X05015D02*
D03*
X04945D02*
D03*
X04485Y02975D02*
D03*
X0454Y0303D02*
D03*
X04485D02*
D03*
X04265Y02835D02*
D03*
X04375Y0289D02*
D03*
X04265D02*
D03*
X0432Y02835D02*
D03*
Y0289D02*
D03*
X06515Y0284D02*
D03*
X0646D02*
D03*
X06515Y02895D02*
D03*
Y02785D02*
D03*
X0646D02*
D03*
Y02895D02*
D03*
X0487D02*
D03*
X0522D02*
D03*
D62*
X0458Y02665D02*
D03*
M02*
