G04*
G04 #@! TF.GenerationSoftware,Altium Limited,Altium Designer,21.6.1 (37)*
G04*
G04 Layer_Color=128*
%FSTAX24Y24*%
%MOIN*%
G70*
G04*
G04 #@! TF.SameCoordinates,7AD6CBE7-45AD-4871-8827-9D585CE600FE*
G04*
G04*
G04 #@! TF.FilePolarity,Positive*
G04*
G01*
G75*
%ADD63C,0.0020*%
D63*
X06724Y030348D02*
X06846D01*
X06785Y029738D02*
Y030958D01*
X051033Y0227D02*
X051467D01*
X05125Y022483D02*
Y022917D01*
X052033Y0227D02*
X052467D01*
X05225Y022483D02*
Y022917D01*
X053033Y0227D02*
X053467D01*
X05325Y022483D02*
Y022917D01*
X054033Y0227D02*
X054467D01*
X05425Y022483D02*
Y022917D01*
X06626Y0277D02*
X06662D01*
X06644Y02752D02*
Y02788D01*
X06727Y0277D02*
X06763D01*
X06745Y02752D02*
Y02788D01*
X06825Y0277D02*
X06861D01*
X06843Y02752D02*
Y02788D01*
X065823Y0248D02*
X066177D01*
X066Y024623D02*
Y024977D01*
X065823Y0258D02*
X066177D01*
X066Y025623D02*
Y025977D01*
X065823Y0238D02*
X066177D01*
X066Y023623D02*
Y023977D01*
X06724Y021448D02*
X06846D01*
X06785Y020838D02*
Y022058D01*
X04264Y030348D02*
X04386D01*
X04325Y029738D02*
Y030958D01*
X04264Y021448D02*
X04386D01*
X04325Y020838D02*
Y022058D01*
X057443Y030134D02*
X057797D01*
X05762Y029957D02*
Y030311D01*
X057443Y02915D02*
X057797D01*
X05762Y028973D02*
Y029327D01*
X057443Y028166D02*
X057797D01*
X05762Y027989D02*
Y028343D01*
X058703Y030134D02*
X059057D01*
X05888Y029957D02*
Y030311D01*
X058703Y02915D02*
X059057D01*
X05888Y028973D02*
Y029327D01*
X058703Y028166D02*
X059057D01*
X05888Y027989D02*
Y028343D01*
X043514Y0249D02*
X043986D01*
X04375Y024664D02*
Y025136D01*
X043514Y0269D02*
X043986D01*
X04375Y026664D02*
Y027136D01*
X055632Y0282D02*
X055868D01*
X05575Y028082D02*
Y028318D01*
X045302Y02975D02*
X045498D01*
X0454Y029652D02*
Y029848D01*
X045662Y02665D02*
X045938D01*
X0458Y026512D02*
Y026788D01*
X058802Y02085D02*
X058998D01*
X0589Y020752D02*
Y020948D01*
X058252Y02085D02*
X058448D01*
X05835Y020752D02*
Y020948D01*
X057702Y02085D02*
X057898D01*
X0578Y020752D02*
Y020948D01*
X057152Y02085D02*
X057348D01*
X05725Y020752D02*
Y020948D01*
X043652Y02835D02*
X043848D01*
X04375Y028252D02*
Y028448D01*
X044752Y02215D02*
X044948D01*
X04485Y022052D02*
Y022248D01*
X045302Y02215D02*
X045498D01*
X0454Y022052D02*
Y022248D01*
X044752Y0216D02*
X044948D01*
X04485Y021502D02*
Y021698D01*
X044752Y0227D02*
X044948D01*
X04485Y022602D02*
Y022798D01*
X045302Y0227D02*
X045498D01*
X0454Y022602D02*
Y022798D01*
X045302Y0216D02*
X045498D01*
X0454Y021502D02*
Y021698D01*
X058102Y02675D02*
X058298D01*
X0582Y026652D02*
Y026848D01*
X058702Y02675D02*
X058898D01*
X0588Y026652D02*
Y026848D01*
X059302Y02675D02*
X059498D01*
X0594Y026652D02*
Y026848D01*
X062102Y0237D02*
X062298D01*
X0622Y023602D02*
Y023798D01*
X062702Y0237D02*
X062898D01*
X0628Y023602D02*
Y023798D01*
X063302Y0237D02*
X063498D01*
X0634Y023602D02*
Y023798D01*
X053602Y02405D02*
X053798D01*
X0537Y023952D02*
Y024148D01*
X054152Y02405D02*
X054348D01*
X05425Y023952D02*
Y024148D01*
X054702Y02405D02*
X054898D01*
X0548Y023952D02*
Y024148D01*
X055252Y02405D02*
X055448D01*
X05535Y023952D02*
Y024148D01*
X050852Y0237D02*
X051048D01*
X05095Y023602D02*
Y023798D01*
X051452Y0237D02*
X051648D01*
X05155Y023602D02*
Y023798D01*
X049652Y0237D02*
X049848D01*
X04975Y023602D02*
Y023798D01*
X050252Y0237D02*
X050448D01*
X05035Y023602D02*
Y023798D01*
X054502Y02895D02*
X054698D01*
X0546Y028852D02*
Y029048D01*
X053902Y02895D02*
X054098D01*
X054Y028852D02*
Y029048D01*
X053302Y02895D02*
X053498D01*
X0534Y028852D02*
Y029048D01*
X052702Y02895D02*
X052898D01*
X0528Y028852D02*
Y029048D01*
X050052Y02895D02*
X050248D01*
X05015Y028852D02*
Y029048D01*
X049352Y02895D02*
X049548D01*
X04945Y028852D02*
Y029048D01*
X044752Y02975D02*
X044948D01*
X04485Y029652D02*
Y029848D01*
X045302Y0303D02*
X045498D01*
X0454Y030202D02*
Y030398D01*
X044752Y0303D02*
X044948D01*
X04485Y030202D02*
Y030398D01*
X042552Y02835D02*
X042748D01*
X04265Y028252D02*
Y028448D01*
X043652Y0289D02*
X043848D01*
X04375Y028802D02*
Y028998D01*
X042552Y0289D02*
X042748D01*
X04265Y028802D02*
Y028998D01*
X043102Y02835D02*
X043298D01*
X0432Y028252D02*
Y028448D01*
X043102Y0289D02*
X043298D01*
X0432Y028802D02*
Y028998D01*
X065052Y0284D02*
X065248D01*
X06515Y028302D02*
Y028498D01*
X064502Y0284D02*
X064698D01*
X0646Y028302D02*
Y028498D01*
X065052Y02895D02*
X065248D01*
X06515Y028852D02*
Y029048D01*
X065052Y02785D02*
X065248D01*
X06515Y027752D02*
Y027948D01*
X064502Y02785D02*
X064698D01*
X0646Y027752D02*
Y027948D01*
X064502Y02895D02*
X064698D01*
X0646Y028852D02*
Y029048D01*
X050182Y02725D02*
X050418D01*
X0503Y027132D02*
Y027368D01*
X048573Y023341D02*
X048809D01*
X048691Y023223D02*
Y023459D01*
X048602Y02895D02*
X048798D01*
X0487Y028852D02*
Y029048D01*
X052102Y02895D02*
X052298D01*
X0522Y028852D02*
Y029048D01*
X060332Y0308D02*
X060568D01*
X06045Y030682D02*
Y030918D01*
X064082Y0231D02*
X064318D01*
X0642Y022982D02*
Y023218D01*
X063282Y0231D02*
X063518D01*
X0634Y022982D02*
Y023218D01*
X056632Y02305D02*
X056868D01*
X05675Y022932D02*
Y023168D01*
M02*
