M48
;Layer_Color=9474304
;FILE_FORMAT=2:4
INCH,LZ
;TYPE=PLATED
T1F00S00C0.0197
T2F00S00C0.0236
T3F00S00C0.0276
T4F00S00C0.0354
T5F00S00C0.0360
T6F00S00C0.0433
T7F00S00C0.0472
;TYPE=NON_PLATED
T8F00S00C0.1220
%
T01
X0628Y0237
X0634
X0646Y02785
Y0284
X06515
Y02895
X0646
X06515Y02785
X0594Y02675
X0588
X0582
X05535Y02405
X0548
X05425
X0537
X05155Y0237
X05095
X05035
X04975
X04945Y02895
X05015
X0487
X0522
X0528
X0534
X054
X0546
X05725Y02085
X0578
X05835
X0589
X0622Y0237
X0454Y0227
Y02215
X04485
Y0216
X0454
X04485Y0227
X04375Y02835
Y0289
X0432
X04265
Y02835
X0432
X04485Y02975
X0454
Y0303
X04485
T02
X0634Y0231
X0642
X05675Y02305
X05575Y0282
X0503Y02725
X048691Y023341
X06045Y0308
T03
X0458Y02665
T04
X066Y0238
Y0248
Y0258
X05888Y028166
Y02915
Y030134
X05762
Y02915
Y028166
T05
X06644Y0277
X06745
X06843
T06
X05125Y0227
X05225
X05325
X05425
T07
X04375Y0249
Y0269
T08
X06785Y021448
Y030348
X04325
Y021448
M30
