G04*
G04 #@! TF.GenerationSoftware,Altium Limited,Altium Designer,21.6.1 (37)*
G04*
G04 Layer_Color=10192595*
%FSTAX24Y24*%
%MOIN*%
G70*
G04*
G04 #@! TF.SameCoordinates,7AD6CBE7-45AD-4871-8827-9D585CE600FE*
G04*
G04*
G04 #@! TF.FilePolarity,Negative*
G04*
G01*
G75*
%ADD33C,0.0079*%
%ADD34O,0.0828X0.0986*%
%ADD35R,0.0828X0.0986*%
%ADD36O,0.0730X0.0830*%
%ADD37O,0.0867X0.0828*%
G04:AMPARAMS|DCode=38|XSize=86.7mil|YSize=82.8mil|CornerRadius=0mil|HoleSize=0mil|Usage=FLASHONLY|Rotation=0.000|XOffset=0mil|YOffset=0mil|HoleType=Round|Shape=Octagon|*
%AMOCTAGOND38*
4,1,8,0.0434,-0.0207,0.0434,0.0207,0.0227,0.0414,-0.0227,0.0414,-0.0434,0.0207,-0.0434,-0.0207,-0.0227,-0.0414,0.0227,-0.0414,0.0434,-0.0207,0.0*
%
%ADD38OCTAGOND38*%

%ADD39R,0.0789X0.0789*%
%ADD40C,0.0789*%
%ADD41O,0.1458X0.1261*%
D33*
X06785Y030348D02*
D03*
Y021448D02*
D03*
X04325Y030348D02*
D03*
Y021448D02*
D03*
D34*
X05125Y0227D02*
D03*
X05225D02*
D03*
X05325D02*
D03*
D35*
X05425D02*
D03*
D36*
X06644Y0277D02*
D03*
X06745D02*
D03*
X06843D02*
D03*
D37*
X066Y0248D02*
D03*
Y0238D02*
D03*
D38*
Y0258D02*
D03*
D39*
X05762Y030134D02*
D03*
D40*
Y02915D02*
D03*
Y028166D02*
D03*
X05888Y030134D02*
D03*
Y02915D02*
D03*
Y028166D02*
D03*
D41*
X04375Y0249D02*
D03*
Y0269D02*
D03*
M02*
