G04*
G04 #@! TF.GenerationSoftware,Altium Limited,Altium Designer,21.6.1 (37)*
G04*
G04 Layer_Physical_Order=1*
G04 Layer_Color=3751112*
%FSTAX24Y24*%
%MOIN*%
G70*
G04*
G04 #@! TF.SameCoordinates,7AD6CBE7-45AD-4871-8827-9D585CE600FE*
G04*
G04*
G04 #@! TF.FilePolarity,Positive*
G04*
G01*
G75*
%ADD11C,0.0197*%
G04:AMPARAMS|DCode=22|XSize=59.1mil|YSize=27.6mil|CornerRadius=6.9mil|HoleSize=0mil|Usage=FLASHONLY|Rotation=270.000|XOffset=0mil|YOffset=0mil|HoleType=Round|Shape=RoundedRectangle|*
%AMROUNDEDRECTD22*
21,1,0.0591,0.0138,0,0,270.0*
21,1,0.0453,0.0276,0,0,270.0*
1,1,0.0138,-0.0069,-0.0226*
1,1,0.0138,-0.0069,0.0226*
1,1,0.0138,0.0069,0.0226*
1,1,0.0138,0.0069,-0.0226*
%
%ADD22ROUNDEDRECTD22*%
G04:AMPARAMS|DCode=23|XSize=39.4mil|YSize=47.2mil|CornerRadius=9.8mil|HoleSize=0mil|Usage=FLASHONLY|Rotation=180.000|XOffset=0mil|YOffset=0mil|HoleType=Round|Shape=RoundedRectangle|*
%AMROUNDEDRECTD23*
21,1,0.0394,0.0276,0,0,180.0*
21,1,0.0197,0.0472,0,0,180.0*
1,1,0.0197,-0.0098,0.0138*
1,1,0.0197,0.0098,0.0138*
1,1,0.0197,0.0098,-0.0138*
1,1,0.0197,-0.0098,-0.0138*
%
%ADD23ROUNDEDRECTD23*%
G04:AMPARAMS|DCode=24|XSize=39.4mil|YSize=47.2mil|CornerRadius=9.8mil|HoleSize=0mil|Usage=FLASHONLY|Rotation=270.000|XOffset=0mil|YOffset=0mil|HoleType=Round|Shape=RoundedRectangle|*
%AMROUNDEDRECTD24*
21,1,0.0394,0.0276,0,0,270.0*
21,1,0.0197,0.0472,0,0,270.0*
1,1,0.0197,-0.0138,-0.0098*
1,1,0.0197,-0.0138,0.0098*
1,1,0.0197,0.0138,0.0098*
1,1,0.0197,0.0138,-0.0098*
%
%ADD24ROUNDEDRECTD24*%
G04:AMPARAMS|DCode=25|XSize=78.7mil|YSize=27.6mil|CornerRadius=6.9mil|HoleSize=0mil|Usage=FLASHONLY|Rotation=0.000|XOffset=0mil|YOffset=0mil|HoleType=Round|Shape=RoundedRectangle|*
%AMROUNDEDRECTD25*
21,1,0.0787,0.0138,0,0,0.0*
21,1,0.0650,0.0276,0,0,0.0*
1,1,0.0138,0.0325,-0.0069*
1,1,0.0138,-0.0325,-0.0069*
1,1,0.0138,-0.0325,0.0069*
1,1,0.0138,0.0325,0.0069*
%
%ADD25ROUNDEDRECTD25*%
%ADD26R,0.0394X0.0472*%
%ADD42C,0.0394*%
%ADD43C,0.0591*%
%ADD44C,0.0787*%
%ADD45C,0.0472*%
%ADD46C,0.0276*%
%ADD47C,0.0236*%
%ADD48C,0.0315*%
%ADD49C,0.0200*%
%ADD50C,0.0300*%
%ADD51C,0.0150*%
%ADD52O,0.0748X0.0906*%
%ADD53R,0.0748X0.0906*%
%ADD54O,0.0650X0.0750*%
%ADD55O,0.0787X0.0748*%
G04:AMPARAMS|DCode=56|XSize=78.7mil|YSize=74.8mil|CornerRadius=0mil|HoleSize=0mil|Usage=FLASHONLY|Rotation=0.000|XOffset=0mil|YOffset=0mil|HoleType=Round|Shape=Octagon|*
%AMOCTAGOND56*
4,1,8,0.0394,-0.0187,0.0394,0.0187,0.0207,0.0374,-0.0207,0.0374,-0.0394,0.0187,-0.0394,-0.0187,-0.0207,-0.0374,0.0207,-0.0374,0.0394,-0.0187,0.0*
%
%ADD56OCTAGOND56*%

%ADD57R,0.0709X0.0709*%
%ADD58C,0.0709*%
%ADD59O,0.1378X0.1181*%
%ADD60C,0.0500*%
%ADD61C,0.0394*%
%ADD62C,0.0512*%
G36*
X058004Y031125D02*
X058002Y030725D01*
X057919D01*
X057856Y030776D01*
X057747Y030835D01*
X057628Y030871D01*
X057504Y030883D01*
X0471D01*
X046977Y030871D01*
X046858Y030835D01*
X046748Y030776D01*
X046652Y030698D01*
X044602Y028648D01*
X044602Y028648D01*
X043686Y027731D01*
X043652D01*
X043489Y027715D01*
X043334Y027668D01*
X04319Y027591D01*
X043064Y027487D01*
X042961Y027362D01*
X042884Y027218D01*
X042837Y027062D01*
X042821Y0269D01*
X042837Y026738D01*
X042884Y026582D01*
X042961Y026438D01*
X043064Y026313D01*
X04319Y026209D01*
X043334Y026132D01*
X043489Y026085D01*
X043652Y026069D01*
X043848D01*
X044011Y026085D01*
X044166Y026132D01*
X04431Y026209D01*
X044436Y026313D01*
X044539Y026438D01*
X044616Y026582D01*
X044663Y026738D01*
X044679Y0269D01*
X044676Y026931D01*
X045409Y027664D01*
X046831D01*
X04697Y027682D01*
X047099Y027736D01*
X04721Y027821D01*
X047282Y027914D01*
X047332Y027897D01*
Y027067D01*
X047332Y027067D01*
X047333Y02706D01*
Y026929D01*
X047344Y026842D01*
X047378Y02676D01*
X047432Y02669D01*
X047502Y026637D01*
X047583Y026603D01*
X04767Y026591D01*
X047867D01*
X047954Y026603D01*
X048036Y026637D01*
X048106Y02669D01*
X048159Y02676D01*
X048193Y026842D01*
X048205Y026929D01*
Y02706D01*
X048206Y027067D01*
Y0282D01*
X048205Y028206D01*
Y028338D01*
X048193Y028425D01*
X048159Y028507D01*
X048106Y028576D01*
X048036Y02863D01*
X047954Y028664D01*
X047867Y028675D01*
X04767D01*
X047583Y028664D01*
X047502Y02863D01*
X047432Y028576D01*
X047378Y028507D01*
X047356Y028453D01*
X047302Y028453D01*
X047296Y028468D01*
X04721Y028579D01*
X047099Y028664D01*
X04697Y028718D01*
X046831Y028736D01*
X046547D01*
X046527Y028782D01*
X047362Y029617D01*
X056987D01*
Y029556D01*
X050943Y029544D01*
X05045Y029049D01*
Y028718D01*
X0504Y028675D01*
X050236D01*
X050148Y028664D01*
X050067Y02863D01*
X049998Y028577D01*
X049927D01*
Y028672D01*
X049061D01*
Y028515D01*
X048903D01*
Y027885D01*
X049061D01*
Y027728D01*
X049327D01*
X049355Y027683D01*
X049354Y027678D01*
X049288Y027626D01*
X049234Y027557D01*
X049201Y027475D01*
X0492Y027473D01*
X049197Y027468D01*
X049153Y027363D01*
X049138Y02725D01*
X049153Y027137D01*
X049189Y027051D01*
Y02662D01*
X049161Y026616D01*
X049087Y026585D01*
X049024Y026537D01*
X048975Y026473D01*
X048944Y026399D01*
X048933Y026319D01*
Y026181D01*
X048941Y026126D01*
X048852Y026114D01*
X048761Y026077D01*
X048683Y026017D01*
X048252Y025585D01*
X048206Y025604D01*
Y025933D01*
X048205Y02594D01*
Y026071D01*
X048193Y026158D01*
X048159Y02624D01*
X048106Y02631D01*
X048036Y026363D01*
X047954Y026397D01*
X047867Y026409D01*
X04767D01*
X047583Y026397D01*
X047502Y026363D01*
X047432Y02631D01*
X047378Y02624D01*
X047344Y026158D01*
X047333Y026071D01*
Y02594D01*
X047332Y025933D01*
Y0248D01*
X047332Y0248D01*
X047333Y024794D01*
Y024662D01*
X047344Y024575D01*
X047378Y024493D01*
X047432Y024424D01*
X047502Y02437D01*
X047561Y024345D01*
X047576Y02429D01*
X047489Y024203D01*
X047429Y024125D01*
X047391Y024034D01*
X047387Y024002D01*
X047365Y023973D01*
X047331Y023892D01*
X04732Y023804D01*
Y023673D01*
X047319Y023667D01*
Y022546D01*
X047333Y022441D01*
Y022396D01*
X047344Y022308D01*
X047378Y022227D01*
X047432Y022157D01*
X047502Y022103D01*
X047583Y02207D01*
X04767Y022058D01*
X047867D01*
X047954Y02207D01*
X048036Y022103D01*
X048106Y022157D01*
X048159Y022227D01*
X048193Y022308D01*
X048194Y022318D01*
X048244Y022315D01*
Y021837D01*
X048013D01*
X047948Y021864D01*
X047861Y021875D01*
X047664D01*
X047577Y021864D01*
X047495Y02183D01*
X047425Y021776D01*
X047372Y021707D01*
X047338Y021625D01*
X047326Y021538D01*
Y021406D01*
X047326Y0214D01*
X047326Y021394D01*
Y021262D01*
X047338Y021175D01*
X047372Y021093D01*
X047425Y021024D01*
X047495Y02097D01*
X047577Y020936D01*
X047664Y020925D01*
X047861D01*
X047948Y020936D01*
X048013Y020963D01*
X048437D01*
X048502Y020936D01*
X048589Y020925D01*
X048786D01*
X048873Y020936D01*
X048955Y02097D01*
X049025Y021024D01*
X049078Y021093D01*
X049112Y021175D01*
X049124Y021262D01*
Y021538D01*
X049118Y021579D01*
Y023109D01*
X049144Y023153D01*
X049177Y023277D01*
Y023405D01*
X049144Y023528D01*
X04908Y023639D01*
X048989Y02373D01*
X048878Y023794D01*
X048755Y023827D01*
X048627D01*
X048503Y023794D01*
X048392Y02373D01*
X048302Y023639D01*
X048243Y023537D01*
X04821Y023539D01*
X048193Y023545D01*
Y023667D01*
X048192Y023673D01*
Y023804D01*
X048188Y023835D01*
X049017Y024664D01*
X049017Y024664D01*
X049226Y024873D01*
X049566D01*
X04957Y024873D01*
X049891D01*
X04997Y024884D01*
X050045Y024915D01*
X050108Y024963D01*
X050157Y025027D01*
X050188Y025101D01*
X050198Y025181D01*
Y025319D01*
X050188Y025399D01*
X050157Y025473D01*
X050136Y0255D01*
X050157Y025527D01*
X050188Y025601D01*
X050198Y025681D01*
Y025819D01*
X050188Y025899D01*
X050157Y025973D01*
X050136Y026D01*
X050157Y026027D01*
X050188Y026101D01*
X050198Y026181D01*
Y026319D01*
X050188Y026399D01*
X050157Y026473D01*
X050108Y026537D01*
X050045Y026585D01*
X04997Y026616D01*
X049943Y02662D01*
Y026813D01*
X050084D01*
X050112Y026797D01*
X050236Y026764D01*
X050364D01*
X05041Y026776D01*
X05045Y026746D01*
X05045Y0243D01*
X05075Y024D01*
X052Y024D01*
X0525Y0235D01*
Y020639D01*
X043637Y020639D01*
X043627Y020688D01*
X043651Y020698D01*
X04379Y020791D01*
X043907Y020908D01*
X044Y021047D01*
X044064Y021201D01*
X044096Y021365D01*
Y021531D01*
X044064Y021695D01*
X044Y021849D01*
X043907Y021988D01*
X04379Y022106D01*
X043651Y022198D01*
X043497Y022262D01*
X043333Y022294D01*
X043167D01*
X043003Y022262D01*
X042849Y022198D01*
X04271Y022106D01*
X042593Y021988D01*
X0425Y021849D01*
X042436Y021695D01*
X042404Y021531D01*
Y021365D01*
X042436Y021201D01*
X0425Y021047D01*
X042593Y020908D01*
X04271Y020791D01*
X042849Y020698D01*
X042873Y020688D01*
X042863Y020639D01*
X04269D01*
X042139Y02119D01*
Y03061D01*
X04269Y031161D01*
X042872D01*
X042882Y031112D01*
X042849Y031098D01*
X04271Y031006D01*
X042593Y030888D01*
X0425Y030749D01*
X042436Y030595D01*
X042404Y030431D01*
Y030265D01*
X042436Y030101D01*
X0425Y029947D01*
X042593Y029808D01*
X04271Y029691D01*
X042849Y029598D01*
X043003Y029534D01*
X043167Y029502D01*
X043333D01*
X043497Y029534D01*
X043651Y029598D01*
X04379Y029691D01*
X043907Y029808D01*
X044Y029947D01*
X044064Y030101D01*
X044096Y030265D01*
Y030431D01*
X044064Y030595D01*
X044Y030749D01*
X043907Y030888D01*
X04379Y031006D01*
X043651Y031098D01*
X043618Y031112D01*
X043628Y031161D01*
X057969D01*
X058004Y031125D01*
D02*
G37*
G36*
X058516Y029855D02*
X058601Y029771D01*
X058705Y029711D01*
X05882Y02968D01*
X05894D01*
X059055Y029711D01*
X059159Y029771D01*
X059243Y029855D01*
X059249Y029866D01*
X059301Y02987D01*
X060137Y029033D01*
Y028962D01*
X060144Y028925D01*
X060098Y0289D01*
X059665Y029334D01*
X059611Y029375D01*
X059549Y029401D01*
X059481Y02941D01*
X059255D01*
X059243Y029429D01*
X059159Y029514D01*
X059055Y029573D01*
X05894Y029604D01*
X05882D01*
X058705Y029573D01*
X058601Y029514D01*
X058516Y029429D01*
X0585Y029401D01*
X05845Y029414D01*
Y02987D01*
X0585Y029884D01*
X058516Y029855D01*
D02*
G37*
G36*
X069046Y030666D02*
Y021134D01*
X068416Y020504D01*
X053746Y020504D01*
X05315Y0211D01*
Y021255D01*
X053196Y021274D01*
X05331Y02116D01*
X05338Y021106D01*
X053428Y021086D01*
X053462Y021072D01*
X05355Y021061D01*
X055728D01*
X055733Y02106D01*
X05593D01*
X056007Y021075D01*
X056073Y021119D01*
X056117Y021185D01*
X056126Y021234D01*
X056159Y021312D01*
X05617Y0214D01*
X056159Y021488D01*
X056126Y021566D01*
X056117Y021615D01*
X056073Y021681D01*
X056007Y021725D01*
X05593Y02174D01*
X055733D01*
X055728Y021739D01*
X05369D01*
X053589Y02184D01*
Y022285D01*
X053664Y022382D01*
X053712Y022498D01*
X053728Y022621D01*
Y022779D01*
X053712Y022902D01*
X053664Y023018D01*
X053588Y023117D01*
X053489Y023193D01*
X053374Y023241D01*
X05325Y023257D01*
X053188Y023249D01*
X05315Y023282D01*
Y0265D01*
X052902Y026748D01*
X05215Y026749D01*
X0519Y027D01*
X0519Y02905D01*
X05215Y0293D01*
X056148D01*
X056696Y028756D01*
X056703Y027744D01*
X0572Y02725D01*
X05845Y02725D01*
X05845Y028886D01*
X0585Y028899D01*
X058516Y028871D01*
X058601Y028786D01*
X058705Y028727D01*
X05882Y028696D01*
X05894D01*
X059055Y028727D01*
X059159Y028786D01*
X059243Y028871D01*
X059255Y02889D01*
X059374D01*
X060181Y028083D01*
Y028012D01*
X060196Y027935D01*
X06024Y027869D01*
X060305Y027825D01*
X060383Y02781D01*
X06058D01*
X060657Y027825D01*
X060671Y027834D01*
X060703Y027796D01*
X060379Y027471D01*
X060326Y027393D01*
X060308Y0273D01*
Y026613D01*
X060309Y026606D01*
Y026387D01*
X060322Y026321D01*
X060346Y026285D01*
Y025784D01*
X060116Y025554D01*
X059753D01*
X059319Y025988D01*
Y026138D01*
X059304Y026215D01*
X05926Y026281D01*
X059195Y026325D01*
X059117Y02634D01*
X05892D01*
X058843Y026325D01*
X058777Y026281D01*
X058733Y026215D01*
X058718Y026138D01*
Y025862D01*
X058733Y025785D01*
X058777Y025719D01*
X058843Y025675D01*
X05892Y02566D01*
X05907D01*
X059476Y025254D01*
X059456Y025204D01*
X059306D01*
X059304Y025215D01*
X05926Y025281D01*
X059195Y025325D01*
X059117Y02534D01*
X05892D01*
X058843Y025325D01*
X058777Y025281D01*
X058733Y025215D01*
X058718Y025138D01*
Y025042D01*
X058529Y024853D01*
X058476Y024774D01*
X058458Y024681D01*
Y022586D01*
X058419Y022561D01*
X058375Y022495D01*
X05836Y022418D01*
Y022221D01*
X058375Y022143D01*
X058403Y022102D01*
X058376Y022052D01*
X057091D01*
X057059Y022091D01*
X057063Y022112D01*
Y022388D01*
X057049Y022457D01*
Y022869D01*
X057076Y022915D01*
X0571Y023004D01*
Y023096D01*
X057076Y023185D01*
X05703Y023265D01*
X056965Y02333D01*
X056885Y023376D01*
X056796Y0234D01*
X056704D01*
X056615Y023376D01*
X056535Y02333D01*
X05647Y023265D01*
X056424Y023185D01*
X0564Y023096D01*
Y023004D01*
X056424Y022915D01*
X056451Y022869D01*
Y021419D01*
X056461Y021341D01*
X056468Y021324D01*
Y021262D01*
X056483Y021185D01*
X056527Y021119D01*
X056593Y021075D01*
X05667Y02106D01*
X056867D01*
X056945Y021075D01*
X05701Y021119D01*
X057054Y021185D01*
X057069Y021262D01*
Y021538D01*
X057058Y021598D01*
X057083Y02164D01*
X057092Y021648D01*
X059047D01*
X05926Y021435D01*
Y021283D01*
X059275Y021205D01*
X059319Y02114D01*
X059385Y021096D01*
X059462Y021081D01*
X059738D01*
X059815Y021096D01*
X059881Y02114D01*
X059925Y021205D01*
X05994Y021283D01*
Y02148D01*
X059925Y021557D01*
X059881Y021623D01*
X059815Y021667D01*
X059738Y021682D01*
X059585D01*
X059274Y021993D01*
X059209Y022037D01*
X059131Y022052D01*
X059024D01*
X058997Y022102D01*
X059025Y022143D01*
X05904Y022221D01*
Y022418D01*
X059025Y022495D01*
X058981Y022561D01*
X058942Y022586D01*
Y024581D01*
X059021Y02466D01*
X059117D01*
X059195Y024675D01*
X05926Y024719D01*
X059304Y024785D01*
X059306Y024796D01*
X059861D01*
X059876Y024746D01*
X059859Y024735D01*
X059822Y024679D01*
X059809Y024613D01*
Y024432D01*
X059457Y02408D01*
X059413Y024014D01*
X059398Y023937D01*
Y022607D01*
X059385Y022604D01*
X059319Y02256D01*
X059275Y022495D01*
X05926Y022417D01*
Y02222D01*
X059275Y022143D01*
X059319Y022077D01*
X059385Y022033D01*
X059462Y022018D01*
X059738D01*
X059815Y022033D01*
X059881Y022077D01*
X059907Y022116D01*
X060268D01*
X060294Y022077D01*
X06036Y022033D01*
X060437Y022018D01*
X060713D01*
X06079Y022033D01*
X060856Y022077D01*
X060882Y022116D01*
X061206D01*
X061231Y022078D01*
X061297Y022034D01*
X061374Y022019D01*
X06165D01*
X061727Y022034D01*
X061793Y022078D01*
X061837Y022143D01*
X061852Y022221D01*
Y022418D01*
X061837Y022495D01*
X061793Y022561D01*
X061727Y022605D01*
X06165Y02262D01*
X061374D01*
X061297Y022605D01*
X061231Y022561D01*
X061205Y022521D01*
X060882D01*
X060856Y02256D01*
X06079Y022604D01*
X060713Y022619D01*
X060437D01*
X06036Y022604D01*
X060294Y02256D01*
X060268Y022521D01*
X059907D01*
X059881Y02256D01*
X059815Y022604D01*
X059802Y022607D01*
Y023853D01*
X059945Y023996D01*
X059981Y023988D01*
X060119D01*
X060185Y024002D01*
X060241Y024039D01*
X060273Y024087D01*
X0603Y024091D01*
X060327Y024087D01*
X060359Y024039D01*
X060415Y024002D01*
X060481Y023988D01*
X060619D01*
X060685Y024002D01*
X060741Y024039D01*
X060758Y024064D01*
X060808Y024049D01*
Y0238D01*
X060826Y023707D01*
X060879Y023629D01*
X062109Y022398D01*
Y02222D01*
X062125Y022143D01*
X062169Y022077D01*
X062234Y022033D01*
X062312Y022018D01*
X062587D01*
X062665Y022033D01*
X06273Y022077D01*
X062774Y022143D01*
X06279Y02222D01*
Y022417D01*
X062774Y022495D01*
X06273Y02256D01*
X062665Y022604D01*
X062587Y022619D01*
X062573D01*
X061292Y0239D01*
Y024049D01*
X061342Y024064D01*
X061359Y024039D01*
X061415Y024002D01*
X061481Y023988D01*
X061619D01*
X061685Y024002D01*
X061741Y024039D01*
X061778Y024095D01*
X061788Y024145D01*
X062212D01*
X062219Y024134D01*
X062285Y02409D01*
X062362Y024074D01*
X062638D01*
X062644Y024076D01*
X063256D01*
X063262Y024074D01*
X063538D01*
X063544Y024076D01*
X064001D01*
X064488Y023588D01*
X06455Y023541D01*
X064623Y023511D01*
X0647Y023501D01*
X065613D01*
X065642Y023462D01*
X065741Y023386D01*
X065857Y023338D01*
X06598Y023322D01*
X06602D01*
X066143Y023338D01*
X066259Y023386D01*
X066279Y023401D01*
X0677D01*
X0677Y023401D01*
X067803Y023415D01*
X067899Y023455D01*
X067982Y023518D01*
X068712Y024248D01*
X068775Y024331D01*
X068815Y024427D01*
X068829Y02453D01*
X068829Y02453D01*
Y027502D01*
X068844Y027539D01*
X068859Y02765D01*
Y02775D01*
X068844Y027861D01*
X068801Y027964D01*
X068733Y028053D01*
X068644Y028121D01*
X068541Y028164D01*
X06843Y028179D01*
X068319Y028164D01*
X068216Y028121D01*
X068127Y028053D01*
X068059Y027964D01*
X068016Y027861D01*
X068001Y02775D01*
Y02765D01*
X068016Y027539D01*
X068031Y027502D01*
Y024695D01*
X067535Y024199D01*
X066279D01*
X066259Y024214D01*
X066143Y024262D01*
X06602Y024278D01*
X06598D01*
X065857Y024262D01*
X065741Y024214D01*
X065642Y024138D01*
X065613Y024099D01*
X064824D01*
X064337Y024587D01*
X064275Y024634D01*
X064202Y024664D01*
X064125Y024674D01*
X063544D01*
X063538Y024676D01*
X063262D01*
X063256Y024674D01*
X062644D01*
X062638Y024676D01*
X062362D01*
X062285Y02466D01*
X062239Y024629D01*
X061788D01*
X061778Y024679D01*
X061741Y024735D01*
X061685Y024772D01*
X061619Y024786D01*
X061481D01*
X061415Y024772D01*
X061359Y024735D01*
X061327Y024687D01*
X0613Y024683D01*
X061273Y024687D01*
X061241Y024735D01*
X061185Y024772D01*
X061119Y024786D01*
X060981D01*
X060915Y024772D01*
X060859Y024735D01*
X060827Y024687D01*
X0608Y024683D01*
X060773Y024687D01*
X060741Y024735D01*
X060685Y024772D01*
X060619Y024786D01*
X060481D01*
X060415Y024772D01*
X060359Y024735D01*
X060327Y024687D01*
X0603Y024683D01*
X060273Y024687D01*
X060241Y024735D01*
X060224Y024746D01*
X060239Y024796D01*
X0603D01*
X060378Y024812D01*
X060444Y024856D01*
X061194Y025606D01*
X061238Y025672D01*
X061254Y02575D01*
Y026285D01*
X061273Y026313D01*
X0613Y026317D01*
X061327Y026313D01*
X061359Y026265D01*
X061415Y026228D01*
X061481Y026214D01*
X061619D01*
X061685Y026228D01*
X061741Y026265D01*
X061778Y026321D01*
X061788Y026371D01*
X062663D01*
X062756Y026389D01*
X062834Y026442D01*
X063587Y027194D01*
X063639Y027272D01*
X063658Y027365D01*
Y027871D01*
X063701Y027935D01*
X063716Y028012D01*
Y028288D01*
X063701Y028365D01*
X063657Y028431D01*
X063643Y02844D01*
Y028821D01*
X063686Y028885D01*
X063701Y028962D01*
Y029238D01*
X063686Y029315D01*
X063643Y029379D01*
Y029771D01*
X063686Y029835D01*
X063701Y029912D01*
Y030188D01*
X063686Y030265D01*
X063642Y030331D01*
X063576Y030375D01*
X063499Y03039D01*
X063302D01*
X063225Y030375D01*
X063159Y030331D01*
X063115Y030265D01*
X0631Y030188D01*
Y029912D01*
X063115Y029835D01*
X063158Y029771D01*
Y029379D01*
X063115Y029315D01*
X0631Y029238D01*
Y028962D01*
X063115Y028885D01*
X063158Y028821D01*
Y028407D01*
X06313Y028365D01*
X063115Y028288D01*
Y028012D01*
X06313Y027935D01*
X063173Y027871D01*
Y027466D01*
X062563Y026855D01*
X061788D01*
X061778Y026905D01*
X061741Y026961D01*
X061685Y026998D01*
X061619Y027012D01*
X061481D01*
X061415Y026998D01*
X061359Y026961D01*
X061342Y026936D01*
X061292Y026951D01*
Y027D01*
X0614Y027108D01*
X061678D01*
X061771Y027126D01*
X061849Y027179D01*
X062481Y02781D01*
X062576D01*
X062654Y027825D01*
X062719Y027869D01*
X062763Y027935D01*
X062779Y028012D01*
Y028288D01*
X062763Y028365D01*
X062719Y028431D01*
X062706Y02844D01*
Y028821D01*
X062748Y028885D01*
X062764Y028962D01*
Y029238D01*
X062748Y029315D01*
X062705Y029381D01*
X062639Y029425D01*
X062562Y02944D01*
X062365D01*
X062287Y029425D01*
X062222Y029381D01*
X062178Y029315D01*
X062162Y029238D01*
Y028962D01*
X062178Y028885D01*
X062221Y028821D01*
Y028407D01*
X062193Y028365D01*
X062177Y028288D01*
Y028192D01*
X061577Y027592D01*
X0613D01*
X061245Y027582D01*
X06122Y027628D01*
X061403Y02781D01*
X061517D01*
X061595Y027825D01*
X06166Y027869D01*
X061704Y027935D01*
X061719Y028012D01*
Y028288D01*
X061704Y028365D01*
X06166Y028431D01*
X061595Y028475D01*
X061517Y02849D01*
X06132D01*
X061243Y028475D01*
X061177Y028431D01*
X061133Y028365D01*
X061118Y028288D01*
Y028211D01*
X060796Y027889D01*
X060757Y027921D01*
X060767Y027935D01*
X060782Y028012D01*
Y028288D01*
X060767Y028365D01*
X060723Y028431D01*
X060657Y028475D01*
X06058Y02849D01*
X060508D01*
X060277Y028721D01*
X060302Y028767D01*
X060339Y02876D01*
X060536D01*
X060613Y028775D01*
X060679Y028819D01*
X060723Y028885D01*
X060738Y028962D01*
Y029238D01*
X060723Y029315D01*
X060679Y029381D01*
X060613Y029425D01*
X060536Y02944D01*
X060465D01*
X059587Y030318D01*
X059533Y030359D01*
X059471Y030385D01*
X059403Y030394D01*
X059255D01*
X059243Y030413D01*
X059159Y030498D01*
X059055Y030558D01*
X05894Y030589D01*
X05882D01*
X058705Y030558D01*
X058601Y030498D01*
X058516Y030413D01*
X0585Y030385D01*
X05845Y030398D01*
Y03075D01*
X058996Y031296D01*
X068416D01*
X069046Y030666D01*
D02*
G37*
%LPC*%
G36*
X04693Y027542D02*
X046733D01*
X046646Y02753D01*
X04658Y027503D01*
X046217D01*
X046104Y027489D01*
X045998Y027445D01*
X045908Y027376D01*
X045652Y02712D01*
X04561Y027109D01*
X045498Y027044D01*
X045406Y026952D01*
X045341Y02684D01*
X045308Y026715D01*
Y026585D01*
X045341Y02646D01*
X045406Y026348D01*
X045498Y026256D01*
X04561Y026191D01*
X045735Y026158D01*
X045865D01*
X04599Y026191D01*
X046102Y026256D01*
X046194Y026348D01*
X046259Y02646D01*
X04627Y026502D01*
X046348Y026581D01*
X046394Y026561D01*
Y025933D01*
X046395Y025927D01*
Y025796D01*
X046407Y025708D01*
X046441Y025627D01*
X046494Y025557D01*
X046564Y025503D01*
X046646Y02547D01*
X046733Y025458D01*
X04693D01*
X047017Y02547D01*
X047098Y025503D01*
X047168Y025557D01*
X047222Y025627D01*
X047256Y025708D01*
X047267Y025796D01*
Y025927D01*
X047268Y025933D01*
Y027067D01*
X047267Y027073D01*
Y027204D01*
X047256Y027292D01*
X047222Y027373D01*
X047168Y027443D01*
X047098Y027497D01*
X047017Y02753D01*
X04693Y027542D01*
D02*
G37*
G36*
X05125Y023392D02*
X05113Y02338D01*
X051015Y023345D01*
X050909Y023289D01*
X050816Y023212D01*
X050754Y023137D01*
X049785D01*
X049672Y023122D01*
X049567Y023078D01*
X049476Y023009D01*
X04947Y023002D01*
X049433Y022997D01*
X049352Y022963D01*
X049282Y02291D01*
X049228Y02284D01*
X049194Y022758D01*
X049183Y022671D01*
Y02254D01*
X049182Y022533D01*
X049183Y022527D01*
Y022396D01*
X049194Y022308D01*
X049228Y022227D01*
X049282Y022157D01*
X049352Y022103D01*
X049433Y02207D01*
X04952Y022058D01*
X049717D01*
X049804Y02207D01*
X049886Y022103D01*
X049956Y022157D01*
X050009Y022227D01*
X050025Y022263D01*
X050754D01*
X050816Y022188D01*
X050909Y022111D01*
X051015Y022055D01*
X05113Y02202D01*
X05125Y022008D01*
X05137Y02202D01*
X051485Y022055D01*
X051591Y022111D01*
X051684Y022188D01*
X05176Y022281D01*
X051817Y022387D01*
X051851Y022502D01*
X051863Y022621D01*
Y022779D01*
X051851Y022898D01*
X051817Y023013D01*
X05176Y023119D01*
X051684Y023212D01*
X051591Y023289D01*
X051485Y023345D01*
X05137Y02338D01*
X05125Y023392D01*
D02*
G37*
G36*
X067928Y031135D02*
X06785Y031135D01*
X067772Y031135D01*
X06762Y031105D01*
X067477Y031046D01*
X067348Y03096D01*
X067238Y03085D01*
X067152Y030721D01*
X067093Y030578D01*
X067063Y030426D01*
X067063Y030348D01*
X067063Y030348D01*
X067063Y030348D01*
X067063Y030271D01*
X067093Y030118D01*
X067152Y029975D01*
X067238Y029846D01*
X067348Y029736D01*
X067477Y02965D01*
X06762Y029591D01*
X067772Y029561D01*
X06785Y029561D01*
X067928D01*
X06808Y029591D01*
X068223Y02965D01*
X068352Y029736D01*
X068462Y029846D01*
X068548Y029975D01*
X068607Y030118D01*
X068637Y030271D01*
Y030348D01*
X068637Y030426D01*
X068607Y030578D01*
X068548Y030721D01*
X068462Y03085D01*
X068352Y03096D01*
X068223Y031046D01*
X06808Y031105D01*
X067928Y031135D01*
D02*
G37*
G36*
X055796Y02855D02*
X055704D01*
X055615Y028526D01*
X055569Y028499D01*
X055082D01*
X055045Y028525D01*
X054967Y02854D01*
X05477D01*
X054693Y028525D01*
X054627Y028481D01*
X054583Y028415D01*
X054568Y028338D01*
Y028242D01*
X053916Y02759D01*
X053864D01*
X053787Y027575D01*
X053749Y027549D01*
X053339D01*
X053301Y027575D01*
X053223Y02759D01*
X053027D01*
X052949Y027575D01*
X052884Y027531D01*
X05284Y027465D01*
X052824Y027388D01*
Y027112D01*
X05284Y027035D01*
X052884Y026969D01*
X052949Y026925D01*
X053027Y02691D01*
X053223D01*
X053301Y026925D01*
X053339Y026951D01*
X053592D01*
Y026491D01*
X053509D01*
X053443Y026478D01*
X053387Y026441D01*
X05335Y026385D01*
X053337Y026319D01*
Y026181D01*
X05335Y026115D01*
X053387Y026059D01*
X053435Y026027D01*
X05344Y026D01*
X053435Y025973D01*
X053387Y025941D01*
X05335Y025885D01*
X053337Y025819D01*
Y025681D01*
X05335Y025615D01*
X053387Y025559D01*
X053435Y025527D01*
X05344Y0255D01*
X053435Y025473D01*
X053387Y025441D01*
X05335Y025385D01*
X053337Y025319D01*
Y025181D01*
X05335Y025115D01*
X053387Y025059D01*
X053443Y025022D01*
X053509Y025009D01*
X054159D01*
X054225Y025022D01*
X054281Y025059D01*
X054318Y025115D01*
X054329Y025172D01*
X054757D01*
X054881Y025048D01*
Y024862D01*
X054896Y024785D01*
X05494Y024719D01*
X055005Y024675D01*
X055083Y02466D01*
X05528D01*
X055357Y024675D01*
X055423Y024719D01*
X055467Y024785D01*
X055482Y024862D01*
Y025138D01*
X055467Y025215D01*
X055423Y025281D01*
X055357Y025325D01*
X05528Y02534D01*
X055094D01*
X054976Y025458D01*
X054976Y025518D01*
X054984Y025524D01*
X05512Y02566D01*
X05528D01*
X055357Y025675D01*
X055423Y025719D01*
X055467Y025785D01*
X055482Y025862D01*
Y026138D01*
X055467Y026215D01*
X055423Y026281D01*
X055357Y026325D01*
X05528Y02634D01*
X055083D01*
X055005Y026325D01*
X05494Y026281D01*
X054896Y026215D01*
X054881Y026138D01*
Y025925D01*
X054784Y025828D01*
X054329D01*
X054318Y025885D01*
X054281Y025941D01*
X054233Y025973D01*
X054228Y026D01*
X054233Y026027D01*
X054281Y026059D01*
X054318Y026115D01*
X054331Y026181D01*
Y026319D01*
X054318Y026385D01*
X054281Y026441D01*
X054225Y026478D01*
X054159Y026491D01*
X054077D01*
Y026913D01*
X054138Y026925D01*
X054204Y026969D01*
X054248Y027035D01*
X054263Y027112D01*
Y027252D01*
X054871Y02786D01*
X054967D01*
X055045Y027875D01*
X055082Y027901D01*
X055569D01*
X055615Y027874D01*
X055704Y02785D01*
X055796D01*
X055885Y027874D01*
X055965Y02792D01*
X05603Y027985D01*
X056076Y028065D01*
X0561Y028154D01*
Y028246D01*
X056076Y028335D01*
X05603Y028415D01*
X055965Y02848D01*
X055885Y028526D01*
X055796Y02855D01*
D02*
G37*
G36*
X05403Y02854D02*
X053833D01*
X053755Y028525D01*
X05369Y028481D01*
X053664Y028442D01*
X053291D01*
Y028536D01*
X052697D01*
Y028515D01*
X052403D01*
Y027885D01*
X052697D01*
Y027864D01*
X053291D01*
Y027958D01*
X053664D01*
X05369Y027919D01*
X053755Y027875D01*
X053833Y02786D01*
X05403D01*
X054107Y027875D01*
X054173Y027919D01*
X054217Y027985D01*
X054232Y028062D01*
Y028338D01*
X054217Y028415D01*
X054173Y028481D01*
X054107Y028525D01*
X05403Y02854D01*
D02*
G37*
G36*
X05818Y02634D02*
X057983D01*
X057905Y026325D01*
X05784Y026281D01*
X057822Y026255D01*
X057323D01*
X057315Y02626D01*
X057238Y026276D01*
X056962D01*
X056885Y02626D01*
X056877Y026255D01*
X056378D01*
X05636Y026281D01*
X056295Y026325D01*
X056217Y02634D01*
X05602D01*
X055943Y026325D01*
X055877Y026281D01*
X055833Y026215D01*
X055818Y026138D01*
Y025862D01*
X055833Y025785D01*
X055877Y025719D01*
X055943Y025675D01*
X05602Y02566D01*
X056217D01*
X056295Y025675D01*
X05636Y025719D01*
X056378Y025745D01*
X056811D01*
X056819Y025734D01*
X056885Y02569D01*
X056962Y025674D01*
X057238D01*
X057315Y02569D01*
X057381Y025734D01*
X057389Y025745D01*
X057822D01*
X05784Y025719D01*
X057905Y025675D01*
X057983Y02566D01*
X05818D01*
X058257Y025675D01*
X058323Y025719D01*
X058367Y025785D01*
X058382Y025862D01*
Y026138D01*
X058367Y026215D01*
X058323Y026281D01*
X058257Y026325D01*
X05818Y02634D01*
D02*
G37*
G36*
X06425Y031099D02*
X062137D01*
X06206Y031089D01*
X062018Y031072D01*
X061988Y031059D01*
X061926Y031012D01*
X061304Y03039D01*
X061289D01*
X061212Y030375D01*
X061146Y030331D01*
X061102Y030265D01*
X061087Y030188D01*
Y029912D01*
X061102Y029835D01*
X061146Y029769D01*
X061212Y029725D01*
X061289Y02971D01*
X061486D01*
X061563Y029725D01*
X061601Y029751D01*
X062249D01*
X062287Y029725D01*
X062365Y02971D01*
X062562D01*
X062639Y029725D01*
X062705Y029769D01*
X062748Y029835D01*
X062764Y029912D01*
Y030188D01*
X062748Y030265D01*
X062705Y030331D01*
X062639Y030375D01*
X062562Y03039D01*
X062365D01*
X062287Y030375D01*
X062249Y030349D01*
X062176D01*
X062156Y030396D01*
X062261Y030501D01*
X064126D01*
X066141Y028486D01*
Y028056D01*
X066137Y028053D01*
X066069Y027964D01*
X066026Y027861D01*
X066011Y02775D01*
Y02765D01*
X066026Y027539D01*
X066069Y027436D01*
X066137Y027347D01*
X066141Y027344D01*
Y026364D01*
X066051Y026274D01*
X065743D01*
X065506Y026037D01*
Y025563D01*
X065743Y025326D01*
X066257D01*
X066494Y025563D01*
Y02587D01*
X066652Y026028D01*
X066699Y02609D01*
X066729Y026163D01*
X066739Y02624D01*
Y027344D01*
X066743Y027347D01*
X066811Y027436D01*
X066854Y027539D01*
X066869Y02765D01*
Y02775D01*
X066854Y027861D01*
X066811Y027964D01*
X066743Y028053D01*
X066739Y028056D01*
Y02861D01*
X066729Y028687D01*
X066699Y02876D01*
X066652Y028822D01*
X064462Y031012D01*
X0644Y031059D01*
X064327Y031089D01*
X06425Y031099D01*
D02*
G37*
G36*
X05818Y02534D02*
X057983D01*
X057905Y025325D01*
X057857Y025292D01*
X057361D01*
X057315Y025323D01*
X057238Y025338D01*
X056962D01*
X056885Y025323D01*
X056839Y025292D01*
X056343D01*
X056295Y025325D01*
X056217Y02534D01*
X05602D01*
X055943Y025325D01*
X055877Y025281D01*
X055833Y025215D01*
X055818Y025138D01*
Y024862D01*
X055833Y024785D01*
X055877Y024719D01*
X055943Y024675D01*
X05602Y02466D01*
X056217D01*
X056295Y024675D01*
X05636Y024719D01*
X056403Y024783D01*
X056839D01*
X056885Y024752D01*
X056962Y024737D01*
X057238D01*
X057315Y024752D01*
X057361Y024783D01*
X057797D01*
X05784Y024719D01*
X057905Y024675D01*
X057983Y02466D01*
X05818D01*
X058257Y024675D01*
X058323Y024719D01*
X058367Y024785D01*
X058382Y024862D01*
Y025138D01*
X058367Y025215D01*
X058323Y025281D01*
X058257Y025325D01*
X05818Y02534D01*
D02*
G37*
G36*
X067928Y022235D02*
X06785Y022235D01*
X067772Y022235D01*
X06762Y022205D01*
X067477Y022146D01*
X067348Y02206D01*
X067238Y02195D01*
X067152Y021821D01*
X067093Y021678D01*
X067063Y021526D01*
X067063Y021448D01*
X067063Y021448D01*
X067063Y021448D01*
X067063Y02137D01*
X067093Y021218D01*
X067152Y021075D01*
X067238Y020946D01*
X067348Y020836D01*
X067477Y02075D01*
X06762Y020691D01*
X067772Y020661D01*
X06785Y020661D01*
X067928D01*
X06808Y020691D01*
X068223Y02075D01*
X068352Y020836D01*
X068462Y020946D01*
X068548Y021075D01*
X068607Y021218D01*
X068637Y02137D01*
Y021448D01*
X068637Y021526D01*
X068607Y021678D01*
X068548Y021821D01*
X068462Y02195D01*
X068352Y02206D01*
X068223Y022146D01*
X06808Y022205D01*
X067928Y022235D01*
D02*
G37*
G36*
X064246Y02345D02*
X064154D01*
X064065Y023426D01*
X063985Y02338D01*
X06392Y023315D01*
X063874Y023235D01*
X06385Y023146D01*
Y023054D01*
X063874Y022965D01*
X063901Y022919D01*
Y021774D01*
X063807Y021681D01*
X063597D01*
X063525Y021695D01*
X063249D01*
X063177Y021681D01*
X062594D01*
X062587Y021682D01*
X062312D01*
X062234Y021667D01*
X062169Y021623D01*
X062125Y021557D01*
X062109Y02148D01*
Y021283D01*
X062125Y021205D01*
X062169Y02114D01*
X062234Y021096D01*
X062312Y021081D01*
X062587D01*
X062594Y021082D01*
X063931D01*
X064009Y021092D01*
X064081Y021122D01*
X064143Y02117D01*
X064412Y021438D01*
X064459Y0215D01*
X064472Y02153D01*
X064489Y021573D01*
X064499Y02165D01*
Y022919D01*
X064526Y022965D01*
X06455Y023054D01*
Y023146D01*
X064526Y023235D01*
X06448Y023315D01*
X064415Y02338D01*
X064335Y023426D01*
X064246Y02345D01*
D02*
G37*
%LPD*%
D11*
X0569Y02185D02*
X059131D01*
X05675Y02305D02*
X056769Y023031D01*
X0596Y022319D02*
X061512D01*
X0596Y023937D02*
X06005Y024387D01*
X0596Y022319D02*
Y023937D01*
X059131Y02185D02*
X0596Y021381D01*
X061512Y022319D02*
X061512Y022319D01*
D22*
X06005Y026613D02*
D03*
X06055D02*
D03*
X06105D02*
D03*
X06155D02*
D03*
Y024387D02*
D03*
X06105D02*
D03*
X06055D02*
D03*
X06005D02*
D03*
D23*
X049619Y022533D02*
D03*
X048681D02*
D03*
X046818Y023667D02*
D03*
X047756D02*
D03*
X047769Y0248D02*
D03*
X046831D02*
D03*
X046831Y025933D02*
D03*
X047769D02*
D03*
X046831Y027067D02*
D03*
X047769D02*
D03*
X059019Y025D02*
D03*
X058081D02*
D03*
X055831Y0214D02*
D03*
X056769D02*
D03*
X048688Y0214D02*
D03*
X049625D02*
D03*
Y02725D02*
D03*
X048688D02*
D03*
X056119Y025D02*
D03*
X055181D02*
D03*
X056119Y026D02*
D03*
X055181D02*
D03*
X053963Y02725D02*
D03*
X0549D02*
D03*
X061419Y02815D02*
D03*
X060481D02*
D03*
X061375Y0291D02*
D03*
X060438D02*
D03*
X06045Y03005D02*
D03*
X061387D02*
D03*
X047769Y0282D02*
D03*
X046831D02*
D03*
X047769Y022533D02*
D03*
X046831D02*
D03*
X053931Y0282D02*
D03*
X054869D02*
D03*
X052206D02*
D03*
X050334Y0282D02*
D03*
X051271D02*
D03*
X048706Y0282D02*
D03*
X0634Y03005D02*
D03*
X062463D02*
D03*
X062478Y02815D02*
D03*
X063415D02*
D03*
X062463Y0291D02*
D03*
X0634D02*
D03*
X055825Y02225D02*
D03*
X056762D02*
D03*
X046825Y0214D02*
D03*
X047762D02*
D03*
X053125Y02725D02*
D03*
X052188D02*
D03*
X058081Y026D02*
D03*
X059019D02*
D03*
D24*
X0571Y025975D02*
D03*
Y025038D02*
D03*
X0587Y021382D02*
D03*
Y022319D02*
D03*
X06245Y021381D02*
D03*
Y022319D02*
D03*
X061512Y022319D02*
D03*
Y021382D02*
D03*
X063387Y021394D02*
D03*
Y022332D02*
D03*
X0596Y022319D02*
D03*
Y021381D02*
D03*
X060575Y021381D02*
D03*
Y022319D02*
D03*
X0625Y024375D02*
D03*
Y025312D02*
D03*
X0634D02*
D03*
Y024375D02*
D03*
D25*
X049566Y02625D02*
D03*
Y02575D02*
D03*
Y02525D02*
D03*
Y02475D02*
D03*
X053834D02*
D03*
Y02525D02*
D03*
Y02575D02*
D03*
Y02625D02*
D03*
D26*
X052994Y0282D02*
D03*
X049494D02*
D03*
D42*
X054869D02*
X05575D01*
X0549Y02725D02*
X0582D01*
X0465Y0249D02*
X046831Y024569D01*
Y02368D02*
Y0248D01*
X04375Y0249D02*
X0465D01*
X0458Y02665D02*
X046217Y027067D01*
X046831D01*
Y025933D02*
X046831Y025933D01*
X046831Y025933D02*
Y027067D01*
X047769D02*
X047769Y027067D01*
Y0282D01*
X05675Y021419D02*
Y02305D01*
X053863Y02725D02*
X053869D01*
X053963D01*
X05888Y02793D02*
Y028166D01*
X0582Y02725D02*
X05888Y02793D01*
X049575Y02725D02*
X0503D01*
X0522Y027362D02*
Y02895D01*
X053125Y02725D02*
X053863D01*
X053125Y02725D02*
X053125Y02725D01*
X048681Y021406D02*
Y023331D01*
X048691Y023341D01*
X046831Y022533D02*
Y023654D01*
X047769Y0248D02*
X047769Y0248D01*
Y025933D01*
X047756Y022546D02*
X047769Y022533D01*
X047756Y022546D02*
Y023667D01*
X046825Y0214D02*
X046831Y021406D01*
Y022533D01*
X046818Y023667D02*
X046831Y023654D01*
X046818Y023667D02*
X046831Y02368D01*
X0487Y028206D02*
Y02895D01*
X048706Y027269D02*
Y0282D01*
X049619Y022533D02*
X049785Y0227D01*
X05125D01*
X0634Y025312D02*
X064438D01*
X06495Y0248D01*
X066D01*
X05425Y0227D02*
X055375D01*
X055825Y02225D01*
X05675Y021419D02*
X056769Y0214D01*
X061387Y03005D02*
X062137Y0308D01*
X06425D01*
X062282Y03005D02*
X062463D01*
X061387D02*
X062282D01*
X066Y0258D02*
X06644Y02624D01*
Y0277D01*
Y02861D01*
X06425Y0308D02*
X06644Y02861D01*
X063931Y021381D02*
X0642Y02165D01*
X063387Y021381D02*
X063931D01*
X0642Y02165D02*
Y0231D01*
X06245Y021381D02*
X063387D01*
X0625Y024375D02*
X0634D01*
X064125D01*
X0647Y0238D02*
X066D01*
X064125Y024375D02*
X0647Y0238D01*
X063387Y022332D02*
Y023087D01*
X0634Y0231D01*
X062463Y03005D02*
X062463Y03005D01*
X0625Y025312D02*
X0634D01*
X060575Y021381D02*
X060575Y021382D01*
X048675Y0214D02*
X048681Y021406D01*
X047762Y0214D02*
X048675D01*
D43*
X04505Y0282D02*
X046831D01*
X045D02*
X04505D01*
X066Y0238D02*
X0677D01*
X06843Y02453D01*
Y0277D01*
D44*
X04505Y0282D02*
X0471Y03025D01*
X04375Y0269D02*
X04505Y0282D01*
X0471Y03025D02*
X057504D01*
X05762Y02915D02*
Y030134D01*
X057504Y03025D02*
X05762Y030134D01*
D45*
X05355Y0214D02*
X055831D01*
X05325Y0217D02*
Y0227D01*
Y0217D02*
X05355Y0214D01*
X049625Y0214D02*
X0518D01*
X05225Y02185D02*
Y0227D01*
X0518Y0214D02*
X05225Y02185D01*
D46*
X0503Y02725D02*
X05125Y0282D01*
X053963Y027294D02*
X054869Y0282D01*
X053963Y02725D02*
Y027294D01*
X047756Y023667D02*
Y023936D01*
X04875Y02493D01*
X047769Y0248D02*
X048D01*
X0483Y0251D01*
X04895Y02575D02*
X049566D01*
X0483Y0251D02*
X04895Y02575D01*
X04907Y02525D02*
X049566D01*
X04875Y02493D02*
X04907Y02525D01*
X06105Y0238D02*
Y024387D01*
Y0238D02*
X06245Y0224D01*
Y022319D02*
Y0224D01*
X049444Y0282D02*
X049444Y0282D01*
X049494D02*
X050334D01*
X052994Y0282D02*
X053881D01*
X06045Y0308D02*
X06045Y0308D01*
X06045Y03005D02*
Y0308D01*
X05225Y0227D02*
Y0234D01*
X04985Y0238D02*
X05185D01*
X05225Y0234D01*
X049566Y024084D02*
X04985Y0238D01*
X049566Y024084D02*
Y02475D01*
X0587Y024681D02*
X059019Y025D01*
X0587Y022319D02*
Y024681D01*
X053834Y027221D02*
X053863Y02725D01*
X053834Y02625D02*
Y027221D01*
X049566Y027241D02*
X049575Y02725D01*
X049566Y02625D02*
Y027241D01*
X06045Y030025D02*
X061375Y0291D01*
X06045Y030025D02*
Y03005D01*
X0614Y02815D02*
X061419D01*
X06055Y0273D02*
X0614Y02815D01*
X0613Y02735D02*
X061678D01*
X06105Y0271D02*
X0613Y02735D01*
X06105Y026613D02*
Y0271D01*
X06055Y026613D02*
Y0273D01*
X061678Y02735D02*
X062478Y02815D01*
X062663Y026613D02*
X063415Y027365D01*
Y02815D01*
X06155Y026613D02*
X062663D01*
X062463Y028165D02*
X062478Y02815D01*
X062463Y028165D02*
Y0291D01*
X06055Y024387D02*
X06105D01*
X062463Y021394D02*
X063387D01*
X06005Y026613D02*
Y026996D01*
X05888Y028166D02*
X06005Y026996D01*
X062488Y024387D02*
X0625Y024375D01*
X06155Y024387D02*
X062488D01*
X0634Y0291D02*
Y03005D01*
Y028165D02*
Y0291D01*
Y028165D02*
X063415Y02815D01*
X060575Y021382D02*
X061512D01*
X05425Y0227D02*
Y024334D01*
X053834Y02475D02*
X05425Y024334D01*
D47*
X062905Y02185D02*
X063387Y022332D01*
X06198Y02185D02*
X062905D01*
X061512Y021382D02*
X06198Y02185D01*
X060044Y02085D02*
X060575Y021381D01*
X059232Y02085D02*
X060044D01*
X0587Y021382D02*
X059232Y02085D01*
D48*
X06245Y021381D02*
X062463Y021394D01*
X059481Y02915D02*
X060481Y02815D01*
X05888Y02915D02*
X059481D01*
X05888Y030134D02*
X059403D01*
X060438Y0291D01*
D49*
X059019Y026D02*
X059669Y02535D01*
X0602D02*
X06055Y0257D01*
X059669Y02535D02*
X0602D01*
X06055Y0257D02*
Y026613D01*
X06105Y02575D02*
Y026613D01*
X059019Y025D02*
X0603D01*
X06105Y02575D01*
D50*
X056119Y025D02*
X056156Y025038D01*
X0571D01*
X058044D02*
X058081Y025D01*
X0571Y025038D02*
X058044D01*
X057125Y026D02*
X058081D01*
X0571Y025975D02*
X057125Y026D01*
X057075D02*
X0571Y025975D01*
X056119Y026D02*
X057075D01*
D51*
X053934Y02565D02*
X054858D01*
X053834Y02575D02*
X053934Y02565D01*
X054858D02*
X055181Y025973D01*
X054831Y02535D02*
X055181Y025D01*
X053834Y02525D02*
X053934Y02535D01*
X054831D01*
X055181Y025973D02*
Y026D01*
D52*
X05125Y0227D02*
D03*
X05225D02*
D03*
X05325D02*
D03*
D53*
X05425D02*
D03*
D54*
X06644Y0277D02*
D03*
X06745D02*
D03*
X06843D02*
D03*
D55*
X066Y0248D02*
D03*
Y0238D02*
D03*
D56*
Y0258D02*
D03*
D57*
X05762Y030134D02*
D03*
D58*
Y02915D02*
D03*
Y028166D02*
D03*
X05888Y030134D02*
D03*
Y02915D02*
D03*
Y028166D02*
D03*
D59*
X04375Y0249D02*
D03*
Y0269D02*
D03*
D60*
X05575Y0282D02*
D03*
X0503Y02725D02*
D03*
X048691Y023341D02*
D03*
X06045Y0308D02*
D03*
X0642Y0231D02*
D03*
X0634D02*
D03*
X05675Y02305D02*
D03*
D61*
X0454Y02975D02*
D03*
X0589Y02085D02*
D03*
X05835D02*
D03*
X0578D02*
D03*
X05725D02*
D03*
X04375Y02835D02*
D03*
X04485Y02215D02*
D03*
X0454D02*
D03*
X04485Y0216D02*
D03*
Y0227D02*
D03*
X0454D02*
D03*
Y0216D02*
D03*
X0582Y02675D02*
D03*
X0588D02*
D03*
X0594D02*
D03*
X0622Y0237D02*
D03*
X0628D02*
D03*
X0634D02*
D03*
X0537Y02405D02*
D03*
X05425D02*
D03*
X0548D02*
D03*
X05535D02*
D03*
X05095Y0237D02*
D03*
X05155D02*
D03*
X04975D02*
D03*
X05035D02*
D03*
X0546Y02895D02*
D03*
X054D02*
D03*
X0534D02*
D03*
X0528D02*
D03*
X05015D02*
D03*
X04945D02*
D03*
X04485Y02975D02*
D03*
X0454Y0303D02*
D03*
X04485D02*
D03*
X04265Y02835D02*
D03*
X04375Y0289D02*
D03*
X04265D02*
D03*
X0432Y02835D02*
D03*
Y0289D02*
D03*
X06515Y0284D02*
D03*
X0646D02*
D03*
X06515Y02895D02*
D03*
Y02785D02*
D03*
X0646D02*
D03*
Y02895D02*
D03*
X0487D02*
D03*
X0522D02*
D03*
D62*
X0458Y02665D02*
D03*
M02*
